ComicJensPro-Regular.ufo
<glyph name="exclam" format="2">
	<unicode hex="0021"/>
	<advance width="389"/>
	<outline>
		<contour>
			<point name="hr00" x="180" y="695" type="curve"/>
			<point x="175" y="533"/>
			<point x="138" y="375"/>
			<point x="132" y="213" type="curve"/>
			<point x="132" y="175"/>
			<point x="156" y="155"/>
			<point x="181" y="155" type="curve" smooth="yes"/>
			<point x="204" y="155"/>
			<point x="227" y="171"/>
			<point x="232" y="205" type="curve"/>
			<point x="237" y="367"/>
			<point x="275" y="525"/>
			<point x="280" y="687" type="curve"/>
			<point x="275" y="720"/>
			<point x="253" y="737"/>
			<point x="231" y="737" type="curve" smooth="yes"/>
			<point x="211" y="737"/>
			<point x="190" y="723"/>
		</contour>
		<contour>
			<point x="224" y="62" type="curve" smooth="yes"/>
			<point x="219" y="92"/>
			<point x="197" y="110"/>
			<point x="169" y="110" type="curve" smooth="yes"/>
			<point x="128" y="110"/>
			<point x="80" y="68"/>
			<point x="80" y="28" type="curve" smooth="yes"/>
			<point x="80" y="0"/>
			<point x="109" y="-27"/>
			<point x="144" y="-27" type="curve" smooth="yes"/>
			<point x="185" y="-27"/>
			<point x="225" y="6"/>
			<point x="225" y="47" type="curve" smooth="yes"/>
			<point x="225" y="50"/>
			<point x="225" y="56"/>
		</contour>
	</outline>
</glyph>
<glyph name="quotedbl" format="2">
	<unicode hex="0022"/>
	<advance width="442"/>
	<outline>
		<contour>
			<point name="hr00" x="89" y="609" type="curve"/>
			<point x="88" y="542"/>
			<point x="81" y="476"/>
			<point x="79" y="409" type="curve"/>
			<point x="79" y="371"/>
			<point x="103" y="351"/>
			<point x="128" y="351" type="curve" smooth="yes"/>
			<point x="151" y="351"/>
			<point x="174" y="367"/>
			<point x="179" y="401" type="curve"/>
			<point x="180" y="468"/>
			<point x="188" y="534"/>
			<point x="189" y="601" type="curve"/>
			<point x="184" y="634"/>
			<point x="162" y="651"/>
			<point x="140" y="651" type="curve" smooth="yes"/>
			<point x="120" y="651"/>
			<point x="99" y="637"/>
		</contour>
		<contour>
			<point x="266" y="630" type="curve"/>
			<point x="265" y="557"/>
			<point x="254" y="484"/>
			<point x="252" y="411" type="curve"/>
			<point x="252" y="373"/>
			<point x="276" y="353"/>
			<point x="301" y="353" type="curve" smooth="yes"/>
			<point x="324" y="353"/>
			<point x="347" y="369"/>
			<point x="352" y="403" type="curve"/>
			<point x="353" y="476"/>
			<point x="365" y="549"/>
			<point x="366" y="622" type="curve"/>
			<point x="361" y="655"/>
			<point x="339" y="672"/>
			<point x="317" y="672" type="curve" smooth="yes"/>
			<point x="297" y="672"/>
			<point x="276" y="658"/>
		</contour>
	</outline>
</glyph>
<glyph name="numbersign" format="2">
	<unicode hex="0023"/>
	<advance width="712"/>
	<outline>
		<contour>
			<point name="hr00" x="106" y="429" type="curve"/>
			<point x="133" y="431"/>
			<point x="158" y="445"/>
			<point x="184" y="446" type="curve" smooth="yes"/>
			<point x="192" y="446" type="line"/>
			<point x="184" y="387"/>
			<point x="173" y="327"/>
			<point x="163" y="267" type="curve"/>
			<point x="83" y="267" type="line"/>
			<point x="53" y="259"/>
			<point x="39" y="238"/>
			<point x="39" y="217" type="curve" smooth="yes"/>
			<point x="39" y="196"/>
			<point x="53" y="174"/>
			<point x="83" y="167" type="curve"/>
			<point x="146" y="167" type="line"/>
			<point x="137" y="117"/>
			<point x="124" y="66"/>
			<point x="122" y="15" type="curve"/>
			<point x="122" y="-23"/>
			<point x="146" y="-43"/>
			<point x="171" y="-43" type="curve" smooth="yes"/>
			<point x="194" y="-43"/>
			<point x="217" y="-27"/>
			<point x="222" y="7" type="curve"/>
			<point x="225" y="58"/>
			<point x="237" y="116"/>
			<point x="247" y="169" type="curve"/>
			<point x="404" y="174" type="line"/>
			<point x="400" y="127"/>
			<point x="397" y="79"/>
			<point x="397" y="33" type="curve" smooth="yes"/>
			<point x="397" y="-5"/>
			<point x="421" y="-25"/>
			<point x="446" y="-25" type="curve" smooth="yes"/>
			<point x="469" y="-25"/>
			<point x="492" y="-9"/>
			<point x="497" y="25" type="curve"/>
			<point x="498" y="75"/>
			<point x="501" y="126"/>
			<point x="505" y="176" type="curve"/>
			<point x="544" y="177"/>
			<point x="583" y="178"/>
			<point x="622" y="178" type="curve"/>
			<point x="658" y="181"/>
			<point x="676" y="205"/>
			<point x="676" y="228" type="curve" smooth="yes"/>
			<point x="676" y="251"/>
			<point x="658" y="274"/>
			<point x="622" y="278" type="curve"/>
			<point x="586" y="278"/>
			<point x="550" y="277"/>
			<point x="515" y="277" type="curve"/>
			<point x="522" y="334"/>
			<point x="535" y="413"/>
			<point x="542" y="450" type="curve"/>
			<point x="590" y="450" type="line"/>
			<point x="626" y="453"/>
			<point x="644" y="477"/>
			<point x="644" y="500" type="curve" smooth="yes"/>
			<point x="644" y="523"/>
			<point x="626" y="546"/>
			<point x="590" y="550" type="curve"/>
			<point x="566" y="550" type="line"/>
			<point x="573" y="582"/>
			<point x="580" y="615"/>
			<point x="582" y="650" type="curve"/>
			<point x="577" y="683"/>
			<point x="555" y="700"/>
			<point x="533" y="700" type="curve" smooth="yes"/>
			<point x="513" y="700"/>
			<point x="492" y="686"/>
			<point x="482" y="658" type="curve"/>
			<point x="477" y="621"/>
			<point x="471" y="582"/>
			<point x="464" y="550" type="curve"/>
			<point x="411" y="550"/>
			<point x="357" y="550"/>
			<point x="304" y="549" type="curve"/>
			<point x="307" y="580"/>
			<point x="309" y="610"/>
			<point x="310" y="641" type="curve"/>
			<point x="305" y="674"/>
			<point x="283" y="691"/>
			<point x="261" y="691" type="curve" smooth="yes"/>
			<point x="241" y="691"/>
			<point x="220" y="677"/>
			<point x="210" y="649" type="curve"/>
			<point x="207" y="614"/>
			<point x="206" y="580"/>
			<point x="203" y="545" type="curve"/>
			<point x="89" y="535"/>
			<point x="61" y="519"/>
			<point x="61" y="479" type="curve" smooth="yes"/>
			<point x="61" y="457"/>
			<point x="76" y="436"/>
		</contour>
		<contour>
			<point x="293" y="449" type="curve"/>
			<point x="342" y="450"/>
			<point x="391" y="450"/>
			<point x="440" y="450" type="curve"/>
			<point x="429" y="392"/>
			<point x="420" y="333"/>
			<point x="413" y="274" type="curve"/>
			<point x="265" y="270" type="line"/>
			<point x="276" y="329"/>
			<point x="285" y="389"/>
		</contour>
	</outline>
</glyph>
<glyph name="dollar" format="2">
	<unicode hex="0024"/>
	<advance width="493"/>
	<outline>
		<contour>
			<point name="hr00" x="250" y="835" type="curve"/>
			<point x="246" y="783"/>
			<point x="224" y="732"/>
			<point x="215" y="682" type="curve"/>
			<point x="144" y="652"/>
			<point x="84" y="592"/>
			<point x="84" y="509" type="curve" smooth="yes"/>
			<point x="84" y="446"/>
			<point x="121" y="389"/>
			<point x="178" y="360" type="curve"/>
			<point x="170" y="292" type="line" smooth="yes"/>
			<point x="162" y="229"/>
			<point x="152" y="166"/>
			<point x="143" y="103" type="curve"/>
			<point x="141" y="105"/>
			<point x="140" y="108"/>
			<point x="138" y="111" type="curve"/>
			<point x="124" y="124"/>
			<point x="109" y="130"/>
			<point x="95" y="130" type="curve" smooth="yes"/>
			<point x="71" y="130"/>
			<point x="50" y="110"/>
			<point x="50" y="81" type="curve" smooth="yes"/>
			<point x="50" y="41"/>
			<point x="96" y="6"/>
			<point x="130" y="-8" type="curve"/>
			<point x="127" y="-33"/>
			<point x="125" y="-57"/>
			<point x="125" y="-82" type="curve" smooth="yes"/>
			<point x="125" y="-120"/>
			<point x="149" y="-140"/>
			<point x="174" y="-140" type="curve" smooth="yes"/>
			<point x="197" y="-140"/>
			<point x="220" y="-124"/>
			<point x="225" y="-90" type="curve"/>
			<point x="225" y="-69"/>
			<point x="227" y="-47"/>
			<point x="228" y="-26" type="curve"/>
			<point x="282" y="-23"/>
			<point x="335" y="-1"/>
			<point x="371" y="41" type="curve" smooth="yes"/>
			<point x="415" y="93"/>
			<point x="443" y="186"/>
			<point x="443" y="235" type="curve" smooth="yes"/>
			<point x="443" y="330"/>
			<point x="380" y="398"/>
			<point x="284" y="426" type="curve"/>
			<point x="304" y="604" type="line"/>
			<point x="337" y="604"/>
			<point x="350" y="580"/>
			<point x="379" y="580" type="curve" smooth="yes"/>
			<point x="410" y="580"/>
			<point x="429" y="601"/>
			<point x="429" y="625" type="curve" smooth="yes"/>
			<point x="429" y="640"/>
			<point x="424" y="658"/>
			<point x="407" y="671" type="curve" smooth="yes"/>
			<point x="380" y="692"/>
			<point x="359" y="699"/>
			<point x="323" y="701" type="curve"/>
			<point x="333" y="743"/>
			<point x="346" y="784"/>
			<point x="350" y="827" type="curve"/>
			<point x="345" y="860"/>
			<point x="323" y="877"/>
			<point x="301" y="877" type="curve" smooth="yes"/>
			<point x="281" y="877"/>
			<point x="260" y="863"/>
		</contour>
		<contour>
			<point x="340" y="260" type="curve" smooth="yes"/>
			<point x="341" y="254"/>
			<point x="342" y="248"/>
			<point x="342" y="241" type="curve" smooth="yes"/>
			<point x="342" y="196"/>
			<point x="314" y="122"/>
			<point x="286" y="97" type="curve" smooth="yes"/>
			<point x="275" y="88"/>
			<point x="255" y="82"/>
			<point x="240" y="78" type="curve"/>
			<point x="249" y="147"/>
			<point x="261" y="215"/>
			<point x="269" y="284" type="curve" smooth="yes"/>
			<point x="274" y="326" type="line"/>
			<point x="305" y="314"/>
			<point x="331" y="295"/>
		</contour>
		<contour>
			<point x="197" y="542" type="curve"/>
			<point x="190" y="483" type="line"/>
			<point x="187" y="491"/>
			<point x="186" y="498"/>
			<point x="186" y="505" type="curve" smooth="yes"/>
			<point x="186" y="518"/>
			<point x="190" y="530"/>
		</contour>
	</outline>
</glyph>
<glyph name="percent" format="2">
	<unicode hex="0025"/>
	<advance width="671"/>
	<outline>
		<contour>
			<point x="270" y="714" type="curve"/>
			<point x="245" y="719"/>
			<point x="213" y="728"/>
			<point x="184" y="728" type="curve" smooth="yes"/>
			<point x="156" y="728"/>
			<point x="135" y="722"/>
			<point x="118" y="699" type="curve"/>
			<point x="108" y="698"/>
			<point x="58" y="621"/>
			<point x="53" y="607" type="curve" smooth="yes"/>
			<point x="44" y="584"/>
			<point x="40" y="559"/>
			<point x="40" y="533" type="curve" smooth="yes"/>
			<point x="40" y="469"/>
			<point x="76" y="378"/>
			<point x="158" y="378" type="curve" smooth="yes"/>
			<point x="240" y="378"/>
			<point x="351" y="478"/>
			<point x="351" y="573" type="curve" smooth="yes"/>
			<point x="351" y="605"/>
			<point x="338" y="637"/>
			<point x="308" y="664" type="curve"/>
			<point x="308" y="683"/>
			<point x="296" y="702"/>
		</contour>
		<contour>
			<point x="506" y="658" type="curve" smooth="yes"/>
			<point x="375" y="458"/>
			<point x="230" y="260"/>
			<point x="117" y="47" type="curve" smooth="yes"/>
			<point x="114" y="41"/>
			<point x="112" y="30"/>
			<point x="112" y="22" type="curve" smooth="yes"/>
			<point x="112" y="-8"/>
			<point x="134" y="-27"/>
			<point x="158" y="-27" type="curve" smooth="yes"/>
			<point x="176" y="-27"/>
			<point x="195" y="-17"/>
			<point x="208" y="7" type="curve" smooth="yes"/>
			<point x="319" y="215"/>
			<point x="460" y="406"/>
			<point x="589" y="603" type="curve" smooth="yes"/>
			<point x="596" y="614"/>
			<point x="598" y="626"/>
			<point x="598" y="636" type="curve" smooth="yes"/>
			<point x="598" y="665"/>
			<point x="576" y="683"/>
			<point x="552" y="683" type="curve" smooth="yes"/>
			<point x="536" y="683"/>
			<point x="519" y="677"/>
		</contour>
		<contour>
			<point x="521" y="342" type="curve" smooth="yes"/>
			<point x="446" y="342"/>
			<point x="374" y="247"/>
			<point x="354" y="182" type="curve" smooth="yes"/>
			<point x="349" y="166"/>
			<point x="347" y="150"/>
			<point x="347" y="134" type="curve" smooth="yes"/>
			<point x="347" y="42"/>
			<point x="387" y="4"/>
			<point x="454" y="4" type="curve" smooth="yes"/>
			<point x="550" y="4"/>
			<point x="619" y="86"/>
			<point x="619" y="167" type="curve" smooth="yes"/>
			<point x="619" y="202"/>
			<point x="606" y="232"/>
			<point x="590" y="269" type="curve"/>
			<point x="591" y="273"/>
			<point x="592" y="277"/>
			<point x="592" y="282" type="curve" smooth="yes"/>
			<point x="592" y="321"/>
			<point x="558" y="342"/>
		</contour>
		<contour>
			<point x="188" y="626" type="curve"/>
			<point x="206" y="625"/>
			<point x="217" y="624"/>
			<point x="230" y="621" type="curve"/>
			<point x="231" y="614"/>
			<point x="233" y="603"/>
			<point x="237" y="597" type="curve" smooth="yes"/>
			<point x="244" y="587"/>
			<point x="251" y="575"/>
			<point x="251" y="566" type="curve" smooth="yes"/>
			<point x="251" y="539"/>
			<point x="192" y="481"/>
			<point x="163" y="481" type="curve" smooth="yes"/>
			<point x="146" y="481"/>
			<point x="139" y="499"/>
			<point x="139" y="521" type="curve" smooth="yes"/>
			<point x="139" y="583"/>
			<point x="168" y="601"/>
		</contour>
		<contour>
			<point x="516" y="146" type="curve" smooth="yes"/>
			<point x="512" y="136"/>
			<point x="478" y="101"/>
			<point x="459" y="101" type="curve" smooth="yes"/>
			<point x="449" y="101"/>
			<point x="447" y="114"/>
			<point x="447" y="125" type="curve" smooth="yes"/>
			<point x="447" y="133"/>
			<point x="447" y="138"/>
			<point x="448" y="143" type="curve" smooth="yes"/>
			<point x="453" y="169"/>
			<point x="468" y="195"/>
			<point x="489" y="216" type="curve" smooth="yes"/>
			<point x="500" y="227" type="line"/>
			<point x="509" y="206"/>
			<point x="519" y="186"/>
			<point x="519" y="165" type="curve" smooth="yes"/>
			<point x="519" y="159"/>
			<point x="518" y="152"/>
		</contour>
	</outline>
</glyph>
<glyph name="ampersand" format="2">
	<unicode hex="0026"/>
	<advance width="675"/>
	<outline>
		<contour>
			<point x="634" y="23" type="curve"/>
			<point x="599" y="57"/>
			<point x="563" y="88"/>
			<point x="526" y="119" type="curve"/>
			<point x="539" y="128" type="line" smooth="yes"/>
			<point x="569" y="149"/>
			<point x="597" y="176"/>
			<point x="631" y="191" type="curve"/>
			<point x="646" y="205"/>
			<point x="653" y="222"/>
			<point x="653" y="236" type="curve" smooth="yes"/>
			<point x="653" y="261"/>
			<point x="634" y="281"/>
			<point x="603" y="281" type="curve" smooth="yes"/>
			<point x="597" y="281"/>
			<point x="591" y="281"/>
			<point x="584" y="279" type="curve"/>
			<point x="534" y="255"/>
			<point x="492" y="222"/>
			<point x="448" y="190" type="curve"/>
			<point x="426" y="227"/>
			<point x="391" y="246"/>
			<point x="362" y="274" type="curve" smooth="yes"/>
			<point x="338" y="297"/>
			<point x="318" y="323"/>
			<point x="298" y="349" type="curve"/>
			<point x="362" y="409"/>
			<point x="426" y="482"/>
			<point x="426" y="550" type="curve" smooth="yes"/>
			<point x="426" y="619"/>
			<point x="369" y="653"/>
			<point x="319" y="653" type="curve" smooth="yes"/>
			<point x="215" y="653"/>
			<point x="143" y="555"/>
			<point x="143" y="466" type="curve" smooth="yes"/>
			<point x="143" y="445"/>
			<point x="144" y="404"/>
			<point x="165" y="359" type="curve"/>
			<point x="101" y="298"/>
			<point x="41" y="229"/>
			<point x="41" y="148" type="curve" smooth="yes"/>
			<point x="41" y="37"/>
			<point x="103" y="-7"/>
			<point x="208" y="-7" type="curve" smooth="yes"/>
			<point x="288" y="-7"/>
			<point x="370" y="23"/>
			<point x="435" y="60" type="curve"/>
			<point x="476" y="25"/>
			<point x="522" y="-6"/>
			<point x="561" y="-44" type="curve"/>
			<point x="573" y="-52"/>
			<point x="585" y="-55"/>
			<point x="595" y="-55" type="curve" smooth="yes"/>
			<point x="622" y="-55"/>
			<point x="643" y="-35"/>
			<point x="643" y="-8" type="curve" smooth="yes"/>
			<point x="643" y="2"/>
			<point x="640" y="12"/>
		</contour>
		<contour>
			<point x="203" y="92" type="curve" smooth="yes"/>
			<point x="167" y="92"/>
			<point x="138" y="107"/>
			<point x="138" y="143" type="curve" smooth="yes"/>
			<point x="138" y="182"/>
			<point x="175" y="228"/>
			<point x="194" y="250" type="curve" smooth="yes"/>
			<point x="202" y="259"/>
			<point x="212" y="269"/>
			<point x="224" y="280" type="curve"/>
			<point x="244" y="257" type="line" smooth="yes"/>
			<point x="278" y="217"/>
			<point x="317" y="186"/>
			<point x="354" y="150" type="curve"/>
			<point x="366" y="136" type="line"/>
			<point x="314" y="109"/>
			<point x="258" y="92"/>
		</contour>
		<contour>
			<point x="266" y="525" type="curve" smooth="yes"/>
			<point x="278" y="540"/>
			<point x="297" y="552"/>
			<point x="316" y="553" type="curve" smooth="yes"/>
			<point x="318" y="553"/>
			<point x="320" y="552"/>
			<point x="323" y="550" type="curve"/>
			<point x="323" y="513"/>
			<point x="280" y="466"/>
			<point x="245" y="432" type="curve"/>
			<point x="243" y="439"/>
			<point x="243" y="446"/>
			<point x="243" y="453" type="curve" smooth="yes"/>
			<point x="243" y="479"/>
			<point x="252" y="508"/>
		</contour>
	</outline>
</glyph>
<glyph name="quotesingle" format="2">
	<unicode hex="0027"/>
	<advance width="357"/>
	<outline>
		<contour>
			<point name="hr00" x="130" y="635" type="curve" smooth="yes"/>
			<point x="130" y="568"/>
			<point x="125" y="501"/>
			<point x="125" y="434" type="curve" smooth="yes"/>
			<point x="125" y="396"/>
			<point x="149" y="376"/>
			<point x="174" y="376" type="curve" smooth="yes"/>
			<point x="197" y="376"/>
			<point x="220" y="392"/>
			<point x="225" y="426" type="curve"/>
			<point x="225" y="498"/>
			<point x="230" y="571"/>
			<point x="230" y="643" type="curve"/>
			<point x="225" y="677"/>
			<point x="202" y="693"/>
			<point x="179" y="693" type="curve" smooth="yes"/>
			<point x="154" y="693"/>
			<point x="130" y="673"/>
		</contour>
	</outline>
</glyph>
<glyph name="parenleft" format="2">
	<unicode hex="0028"/>
	<advance width="461"/>
	<outline>
		<contour>
			<point name="hr00" x="356" y="709" type="curve"/>
			<point x="264" y="707"/>
			<point x="141" y="533"/>
			<point x="110" y="461" type="curve" smooth="yes"/>
			<point x="89" y="414"/>
			<point x="80" y="357"/>
			<point x="80" y="297" type="curve" smooth="yes"/>
			<point x="80" y="170"/>
			<point x="122" y="30"/>
			<point x="200" y="-45" type="curve" smooth="yes"/>
			<point x="246" y="-89"/>
			<point x="310" y="-105"/>
			<point x="368" y="-112" type="curve"/>
			<point x="403" y="-110"/>
			<point x="422" y="-87"/>
			<point x="422" y="-63" type="curve" smooth="yes"/>
			<point x="422" y="-2"/>
			<point x="319" y="-13"/>
			<point x="268" y="30" type="curve" smooth="yes"/>
			<point x="208" y="80"/>
			<point x="182" y="192"/>
			<point x="182" y="292" type="curve" smooth="yes"/>
			<point x="182" y="459"/>
			<point x="255" y="521"/>
			<point x="336" y="592" type="curve" smooth="yes"/>
			<point x="365" y="617"/>
			<point x="409" y="623"/>
			<point x="409" y="659" type="curve" smooth="yes"/>
			<point x="409" y="683"/>
			<point x="391" y="706"/>
		</contour>
	</outline>
</glyph>
<glyph name="parenright" format="2">
	<unicode hex="0029"/>
	<advance width="439"/>
	<outline>
		<contour>
			<point name="hr00" x="77" y="621" type="curve"/>
			<point x="102" y="613"/>
			<point x="129" y="610"/>
			<point x="151" y="595" type="curve" smooth="yes"/>
			<point x="244" y="532"/>
			<point x="288" y="368"/>
			<point x="288" y="248" type="curve" smooth="yes"/>
			<point x="288" y="190"/>
			<point x="274" y="86"/>
			<point x="202" y="46" type="curve" smooth="yes"/>
			<point x="152" y="18"/>
			<point x="62" y="34"/>
			<point x="62" y="-28" type="curve" smooth="yes"/>
			<point x="62" y="-53"/>
			<point x="81" y="-76"/>
			<point x="114" y="-76" type="curve" smooth="yes"/>
			<point x="118" y="-76"/>
			<point x="123" y="-76"/>
			<point x="128" y="-75" type="curve" smooth="yes"/>
			<point x="173" y="-64"/>
			<point x="227" y="-69"/>
			<point x="260" y="-37" type="curve" smooth="yes"/>
			<point x="290" y="-8"/>
			<point x="322" y="19"/>
			<point x="344" y="54" type="curve" smooth="yes"/>
			<point x="377" y="106"/>
			<point x="389" y="164"/>
			<point x="389" y="226" type="curve" smooth="yes"/>
			<point x="389" y="366"/>
			<point x="330" y="612"/>
			<point x="201" y="683" type="curve" smooth="yes"/>
			<point x="170" y="700"/>
			<point x="135" y="707"/>
			<point x="101" y="718" type="curve"/>
			<point x="64" y="717"/>
			<point x="43" y="695"/>
			<point x="43" y="670" type="curve" smooth="yes"/>
			<point x="43" y="653"/>
			<point x="54" y="634"/>
		</contour>
	</outline>
</glyph>
<glyph name="asterisk" format="2">
	<unicode hex="002A"/>
	<advance width="691"/>
	<outline>
		<contour>
			<point x="427" y="520" type="curve" smooth="yes"/>
			<point x="384" y="478"/>
			<point x="346" y="433"/>
			<point x="309" y="375" type="curve"/>
			<point x="246" y="441"/>
			<point x="181" y="501"/>
			<point x="140" y="501" type="curve" smooth="yes"/>
			<point x="111" y="501"/>
			<point x="91" y="479"/>
			<point x="91" y="455" type="curve" smooth="yes"/>
			<point x="91" y="415"/>
			<point x="154" y="393"/>
			<point x="256" y="285" type="curve"/>
			<point x="253" y="281" type="line"/>
			<point x="241" y="277"/>
			<point x="209" y="270"/>
			<point x="183" y="260" type="curve" smooth="yes"/>
			<point x="152" y="248"/>
			<point x="111" y="236"/>
			<point x="72" y="231" type="curve" smooth="yes"/>
			<point x="42" y="227"/>
			<point x="28" y="202"/>
			<point x="28" y="181" type="curve" smooth="yes"/>
			<point x="28" y="153"/>
			<point x="46" y="131"/>
			<point x="72" y="131" type="curve" smooth="yes"/>
			<point x="99" y="131"/>
			<point x="158" y="148"/>
			<point x="200" y="161" type="curve"/>
			<point x="182" y="113"/>
			<point x="162" y="44"/>
			<point x="162" y="11" type="curve" smooth="yes"/>
			<point x="162" y="-15"/>
			<point x="184" y="-37"/>
			<point x="211" y="-37" type="curve" smooth="yes"/>
			<point x="234" y="-37"/>
			<point x="257" y="-21"/>
			<point x="262" y="13" type="curve" smooth="yes"/>
			<point x="270" y="66"/>
			<point x="293" y="131"/>
			<point x="324" y="197" type="curve"/>
			<point x="332" y="199" type="line"/>
			<point x="401" y="123"/>
			<point x="426" y="17"/>
			<point x="491" y="17" type="curve" smooth="yes"/>
			<point x="518" y="17"/>
			<point x="538" y="38"/>
			<point x="538" y="63" type="curve" smooth="yes"/>
			<point x="538" y="77"/>
			<point x="531" y="93"/>
			<point x="516" y="108" type="curve" smooth="yes"/>
			<point x="485" y="141"/>
			<point x="467" y="189"/>
			<point x="437" y="225" type="curve"/>
			<point x="494" y="238"/>
			<point x="552" y="247"/>
			<point x="611" y="249" type="curve" smooth="yes"/>
			<point x="645" y="250"/>
			<point x="665" y="276"/>
			<point x="665" y="299" type="curve" smooth="yes"/>
			<point x="665" y="322"/>
			<point x="647" y="349"/>
			<point x="611" y="349" type="curve" smooth="yes"/>
			<point x="560" y="349"/>
			<point x="462" y="332"/>
			<point x="389" y="315" type="curve"/>
			<point x="407" y="343"/>
			<point x="426" y="369"/>
			<point x="445" y="393" type="curve" smooth="yes"/>
			<point x="475" y="431"/>
			<point x="515" y="454"/>
			<point x="515" y="490" type="curve" smooth="yes"/>
			<point x="515" y="515"/>
			<point x="495" y="535"/>
			<point x="468" y="535" type="curve" smooth="yes"/>
			<point x="451" y="535"/>
			<point x="438" y="531"/>
		</contour>
	</outline>
</glyph>
<glyph name="plus" format="2">
	<unicode hex="002B"/>
	<advance width="589"/>
	<outline>
		<contour>
			<point name="hr00" x="231" y="506" type="curve"/>
			<point x="233" y="464"/>
			<point x="243" y="423"/>
			<point x="245" y="381" type="curve" smooth="yes"/>
			<point x="245" y="377" type="line"/>
			<point x="227" y="377" type="line" smooth="yes"/>
			<point x="168" y="377"/>
			<point x="114" y="372"/>
			<point x="74" y="359" type="curve"/>
			<point x="54" y="346"/>
			<point x="46" y="329"/>
			<point x="46" y="312" type="curve" smooth="yes"/>
			<point x="46" y="287"/>
			<point x="66" y="264"/>
			<point x="100" y="264" type="curve" smooth="yes"/>
			<point x="106" y="264" type="line"/>
			<point x="131" y="273"/>
			<point x="159" y="275"/>
			<point x="186" y="275" type="curve" smooth="yes"/>
			<point x="206" y="275"/>
			<point x="226" y="274"/>
			<point x="245" y="273" type="curve"/>
			<point x="244" y="232"/>
			<point x="240" y="192"/>
			<point x="240" y="151" type="curve" smooth="yes"/>
			<point x="240" y="113"/>
			<point x="264" y="93"/>
			<point x="289" y="93" type="curve" smooth="yes"/>
			<point x="312" y="93"/>
			<point x="335" y="109"/>
			<point x="340" y="143" type="curve"/>
			<point x="340" y="185"/>
			<point x="343" y="228"/>
			<point x="345" y="270" type="curve"/>
			<point x="484" y="266" type="line"/>
			<point x="520" y="269"/>
			<point x="538" y="293"/>
			<point x="538" y="316" type="curve" smooth="yes"/>
			<point x="538" y="339"/>
			<point x="520" y="362"/>
			<point x="484" y="366" type="curve"/>
			<point x="448" y="367"/>
			<point x="396" y="370"/>
			<point x="345" y="373" type="curve"/>
			<point x="342" y="420"/>
			<point x="333" y="466"/>
			<point x="331" y="514" type="curve"/>
			<point x="326" y="548"/>
			<point x="303" y="564"/>
			<point x="280" y="564" type="curve" smooth="yes"/>
			<point x="255" y="564"/>
			<point x="231" y="544"/>
		</contour>
	</outline>
</glyph>
<glyph name="comma" format="2">
	<unicode hex="002C"/>
	<advance width="359"/>
	<outline>
		<contour>
			<point x="202" y="53" type="curve" smooth="yes"/>
			<point x="169" y="25"/>
			<point x="139" y="-50"/>
			<point x="118" y="-84" type="curve" smooth="yes"/>
			<point x="106" y="-104"/>
			<point x="96" y="-118"/>
			<point x="83" y="-137" type="curve" smooth="yes"/>
			<point x="80" y="-142"/>
			<point x="75" y="-148"/>
			<point x="70" y="-152" type="curve" smooth="yes"/>
			<point x="53" y="-165"/>
			<point x="46" y="-181"/>
			<point x="46" y="-196" type="curve" smooth="yes"/>
			<point x="46" y="-220"/>
			<point x="66" y="-242"/>
			<point x="95" y="-242" type="curve" smooth="yes"/>
			<point x="154" y="-242"/>
			<point x="194" y="-152"/>
			<point x="221" y="-106" type="curve" smooth="yes"/>
			<point x="262" y="-36" type="line" smooth="yes"/>
			<point x="275" y="-13"/>
			<point x="283" y="-2"/>
			<point x="283" y="16" type="curve" smooth="yes"/>
			<point x="283" y="42"/>
			<point x="265" y="65"/>
			<point x="238" y="65" type="curve" smooth="yes"/>
			<point x="224" y="65"/>
			<point x="210" y="60"/>
		</contour>
	</outline>
</glyph>
<glyph name="hyphen" format="2">
	<unicode hex="002D"/>
	<advance width="473"/>
	<outline>
		<contour>
			<point name="hr00" x="87" y="226" type="curve" smooth="yes"/>
			<point x="189" y="226"/>
			<point x="288" y="229"/>
			<point x="390" y="229" type="curve" smooth="yes"/>
			<point x="426" y="229"/>
			<point x="444" y="256"/>
			<point x="444" y="279" type="curve" smooth="yes"/>
			<point x="444" y="302"/>
			<point x="427" y="329"/>
			<point x="390" y="329" type="curve" smooth="yes"/>
			<point x="288" y="329"/>
			<point x="189" y="326"/>
			<point x="87" y="326" type="curve" smooth="yes"/>
			<point x="58" y="326"/>
			<point x="39" y="304"/>
			<point x="39" y="276" type="curve" smooth="yes"/>
			<point x="39" y="248"/>
			<point x="57" y="226"/>
		</contour>
	</outline>
</glyph>
<glyph name="period" format="2">
	<unicode hex="002E"/>
	<advance width="363"/>
	<outline>
		<contour>
			<point x="199" y="138" type="curve" smooth="yes"/>
			<point x="146" y="138"/>
			<point x="98" y="86"/>
			<point x="98" y="40" type="curve" smooth="yes"/>
			<point x="98" y="14"/>
			<point x="121" y="-21"/>
			<point x="168" y="-21" type="curve" smooth="yes"/>
			<point x="206" y="-21"/>
			<point x="233" y="14"/>
			<point x="235" y="50" type="curve"/>
			<point x="247" y="59"/>
			<point x="254" y="73"/>
			<point x="254" y="86" type="curve" smooth="yes"/>
			<point x="254" y="115"/>
			<point x="226" y="138"/>
		</contour>
	</outline>
</glyph>
<glyph name="slash" format="2">
	<unicode hex="002F"/>
	<advance width="441"/>
	<outline>
		<contour>
			<point x="336" y="667" type="curve" smooth="yes"/>
			<point x="325" y="629"/>
			<point x="254" y="543"/>
			<point x="199" y="454" type="curve" smooth="yes"/>
			<point x="118" y="324"/>
			<point x="32" y="184"/>
			<point x="9" y="38" type="curve"/>
			<point x="9" y="-4"/>
			<point x="32" y="-20"/>
			<point x="56" y="-20" type="curve" smooth="yes"/>
			<point x="75" y="-20"/>
			<point x="102" y="-6"/>
			<point x="108" y="24" type="curve" smooth="yes"/>
			<point x="137" y="189"/>
			<point x="246" y="342"/>
			<point x="335" y="485" type="curve" smooth="yes"/>
			<point x="367" y="536"/>
			<point x="434" y="596"/>
			<point x="434" y="656" type="curve" smooth="yes"/>
			<point x="434" y="690"/>
			<point x="411" y="709"/>
			<point x="387" y="709" type="curve" smooth="yes"/>
			<point x="367" y="709"/>
			<point x="344" y="696"/>
		</contour>
	</outline>
</glyph>
<glyph name="zero" format="2">
	<unicode hex="0030"/>
	<advance width="624"/>
	<outline>
		<contour>
			<point x="416" y="563" type="curve" smooth="yes"/>
			<point x="398" y="580"/>
			<point x="375" y="581"/>
			<point x="355" y="581" type="curve" smooth="yes"/>
			<point x="179" y="581"/>
			<point x="95" y="454"/>
			<point x="75" y="287" type="curve" smooth="yes"/>
			<point x="73" y="267"/>
			<point x="71" y="247"/>
			<point x="71" y="226" type="curve" smooth="yes"/>
			<point x="71" y="86"/>
			<point x="113" y="-19"/>
			<point x="260" y="-19" type="curve" smooth="yes"/>
			<point x="465" y="-19"/>
			<point x="552" y="152"/>
			<point x="552" y="310" type="curve" smooth="yes"/>
			<point x="552" y="394"/>
			<point x="519" y="501"/>
			<point x="432" y="539" type="curve"/>
			<point x="429" y="548"/>
			<point x="424" y="555"/>
		</contour>
		<contour>
			<point x="363" y="465" type="curve" smooth="yes"/>
			<point x="378" y="451"/>
			<point x="399" y="446"/>
			<point x="414" y="431" type="curve" smooth="yes"/>
			<point x="442" y="402"/>
			<point x="454" y="358"/>
			<point x="454" y="312" type="curve" smooth="yes"/>
			<point x="454" y="196"/>
			<point x="401" y="81"/>
			<point x="268" y="81" type="curve" smooth="yes"/>
			<point x="249" y="81"/>
			<point x="230" y="83"/>
			<point x="211" y="87" type="curve"/>
			<point x="182" y="109"/>
			<point x="171" y="154"/>
			<point x="171" y="202" type="curve" smooth="yes"/>
			<point x="171" y="359"/>
			<point x="209" y="477"/>
			<point x="353" y="481" type="curve"/>
			<point x="354" y="475"/>
			<point x="358" y="469"/>
		</contour>
	</outline>
</glyph>
<glyph name="one" format="2">
	<unicode hex="0031"/>
	<advance width="574"/>
	<outline>
		<contour>
			<point x="131" y="149" type="curve" smooth="yes"/>
			<point x="231" y="269"/>
			<point x="323" y="387"/>
			<point x="407" y="505" type="curve"/>
			<point x="409" y="465"/>
			<point x="410" y="424"/>
			<point x="410" y="385" type="curve" smooth="yes"/>
			<point x="410" y="262"/>
			<point x="402" y="144"/>
			<point x="402" y="26" type="curve" smooth="yes"/>
			<point x="402" y="-12"/>
			<point x="426" y="-32"/>
			<point x="451" y="-32" type="curve" smooth="yes"/>
			<point x="474" y="-32"/>
			<point x="502" y="-16"/>
			<point x="502" y="23" type="curve" smooth="yes"/>
			<point x="502" y="197"/>
			<point x="510" y="389"/>
			<point x="510" y="546" type="curve" smooth="yes"/>
			<point x="510" y="635"/>
			<point x="497" y="667"/>
			<point x="441" y="667" type="curve" smooth="yes"/>
			<point x="421" y="667"/>
			<point x="396" y="653"/>
			<point x="385" y="639" type="curve" smooth="yes"/>
			<point x="272" y="496"/>
			<point x="177" y="353"/>
			<point x="58" y="219" type="curve" smooth="yes"/>
			<point x="48" y="208"/>
			<point x="35" y="187"/>
			<point x="35" y="173" type="curve" smooth="yes"/>
			<point x="35" y="136"/>
			<point x="60" y="121"/>
			<point x="85" y="121" type="curve" smooth="yes"/>
			<point x="102" y="121"/>
			<point x="116" y="131"/>
		</contour>
	</outline>
</glyph>
<glyph name="two" format="2">
	<unicode hex="0032"/>
	<advance width="546"/>
	<outline>
		<contour>
			<point x="219" y="573" type="curve" smooth="yes"/>
			<point x="225" y="588"/>
			<point x="249" y="600"/>
			<point x="265" y="600" type="curve" smooth="yes"/>
			<point x="313" y="600"/>
			<point x="331" y="563"/>
			<point x="331" y="515" type="curve" smooth="yes"/>
			<point x="331" y="492"/>
			<point x="311" y="462"/>
			<point x="305" y="450" type="curve" smooth="yes"/>
			<point x="244" y="336"/>
			<point x="176" y="243"/>
			<point x="97" y="141" type="curve" smooth="yes"/>
			<point x="72" y="108"/>
			<point x="29" y="78"/>
			<point x="29" y="37" type="curve" smooth="yes"/>
			<point x="29" y="4"/>
			<point x="50" y="-14"/>
			<point x="74" y="-14" type="curve" smooth="yes"/>
			<point x="86" y="-14"/>
			<point x="91" y="-14"/>
			<point x="103" y="-12" type="curve"/>
			<point x="115" y="-13"/>
			<point x="127" y="-14"/>
			<point x="139" y="-14" type="curve" smooth="yes"/>
			<point x="244" y="-14"/>
			<point x="350" y="1"/>
			<point x="455" y="1" type="curve" smooth="yes"/>
			<point x="491" y="1"/>
			<point x="509" y="28"/>
			<point x="509" y="51" type="curve" smooth="yes"/>
			<point x="509" y="74"/>
			<point x="488" y="101"/>
			<point x="452" y="101" type="curve" smooth="yes"/>
			<point x="360" y="101"/>
			<point x="272" y="93"/>
			<point x="182" y="88" type="curve"/>
			<point x="252" y="182"/>
			<point x="330" y="299"/>
			<point x="389" y="399" type="curve" smooth="yes"/>
			<point x="413" y="440"/>
			<point x="428" y="481"/>
			<point x="428" y="525" type="curve" smooth="yes"/>
			<point x="428" y="612"/>
			<point x="374" y="695"/>
			<point x="263" y="695" type="curve" smooth="yes"/>
			<point x="186" y="695"/>
			<point x="127" y="646"/>
			<point x="127" y="584" type="curve" smooth="yes"/>
			<point x="127" y="552"/>
			<point x="147" y="526"/>
			<point x="171" y="526" type="curve" smooth="yes"/>
			<point x="197" y="526"/>
			<point x="207" y="544"/>
		</contour>
	</outline>
</glyph>
<glyph name="three" format="2">
	<unicode hex="0033"/>
	<advance width="562"/>
	<outline>
		<contour>
			<point x="161" y="605" type="curve" smooth="yes"/>
			<point x="190" y="605"/>
			<point x="213" y="611"/>
			<point x="251" y="611" type="curve" smooth="yes"/>
			<point x="291" y="611"/>
			<point x="358" y="598"/>
			<point x="378" y="578" type="curve"/>
			<point x="340" y="487"/>
			<point x="210" y="509"/>
			<point x="210" y="426" type="curve" smooth="yes"/>
			<point x="210" y="390"/>
			<point x="233" y="369"/>
			<point x="284" y="352" type="curve" smooth="yes"/>
			<point x="325" y="338"/>
			<point x="399" y="292"/>
			<point x="399" y="257" type="curve" smooth="yes"/>
			<point x="399" y="162"/>
			<point x="319" y="64"/>
			<point x="212" y="64" type="curve" smooth="yes"/>
			<point x="137" y="64"/>
			<point x="128" y="88"/>
			<point x="94" y="88" type="curve" smooth="yes"/>
			<point x="52" y="88"/>
			<point x="39" y="65"/>
			<point x="39" y="40" type="curve" smooth="yes"/>
			<point x="39" y="-22"/>
			<point x="158" y="-36"/>
			<point x="205" y="-36" type="curve" smooth="yes"/>
			<point x="370" y="-36"/>
			<point x="498" y="99"/>
			<point x="498" y="257" type="curve" smooth="yes"/>
			<point x="498" y="348"/>
			<point x="426" y="387"/>
			<point x="359" y="423" type="curve"/>
			<point x="398" y="443"/>
			<point x="482" y="510"/>
			<point x="482" y="579" type="curve" smooth="yes"/>
			<point x="482" y="683"/>
			<point x="334" y="711"/>
			<point x="248" y="711" type="curve" smooth="yes"/>
			<point x="218" y="711"/>
			<point x="186" y="710"/>
			<point x="155" y="705" type="curve" smooth="yes"/>
			<point x="124" y="700"/>
			<point x="111" y="676"/>
			<point x="111" y="655" type="curve" smooth="yes"/>
			<point x="111" y="629"/>
			<point x="130" y="605"/>
		</contour>
	</outline>
</glyph>
<glyph name="four" format="2">
	<unicode hex="0034"/>
	<advance width="664"/>
	<outline>
		<contour>
			<point x="356" y="498" type="curve" smooth="yes"/>
			<point x="356" y="453"/>
			<point x="356" y="408"/>
			<point x="357" y="364" type="curve"/>
			<point x="293" y="363"/>
			<point x="229" y="363"/>
			<point x="164" y="363" type="curve"/>
			<point x="164" y="397"/>
			<point x="194" y="545"/>
			<point x="200" y="577" type="curve" smooth="yes"/>
			<point x="207" y="614"/>
			<point x="212" y="651"/>
			<point x="212" y="661" type="curve" smooth="yes"/>
			<point x="212" y="694"/>
			<point x="185" y="711"/>
			<point x="163" y="711" type="curve" smooth="yes"/>
			<point x="143" y="711"/>
			<point x="116" y="699"/>
			<point x="112" y="669" type="curve" smooth="yes"/>
			<point x="104" y="609"/>
			<point x="92" y="550"/>
			<point x="82" y="491" type="curve" smooth="yes"/>
			<point x="75" y="454"/>
			<point x="61" y="392"/>
			<point x="61" y="349" type="curve" smooth="yes"/>
			<point x="61" y="295"/>
			<point x="83" y="263"/>
			<point x="161" y="263" type="curve" smooth="yes"/>
			<point x="178" y="263"/>
			<point x="194" y="265"/>
			<point x="211" y="265" type="curve" smooth="yes"/>
			<point x="360" y="265" type="line"/>
			<point x="362" y="236"/>
			<point x="362" y="208"/>
			<point x="362" y="179" type="curve" smooth="yes"/>
			<point x="362" y="112"/>
			<point x="359" y="86"/>
			<point x="359" y="17" type="curve" smooth="yes"/>
			<point x="359" y="-21"/>
			<point x="383" y="-41"/>
			<point x="408" y="-41" type="curve" smooth="yes"/>
			<point x="431" y="-41"/>
			<point x="458" y="-21"/>
			<point x="458" y="13" type="curve" smooth="yes"/>
			<point x="458" y="75"/>
			<point x="460" y="96"/>
			<point x="460" y="156" type="curve" smooth="yes"/>
			<point x="460" y="192"/>
			<point x="459" y="228"/>
			<point x="457" y="265" type="curve"/>
			<point x="614" y="265" type="line" smooth="yes"/>
			<point x="650" y="265"/>
			<point x="668" y="292"/>
			<point x="668" y="315" type="curve" smooth="yes"/>
			<point x="668" y="338"/>
			<point x="652" y="365"/>
			<point x="614" y="365" type="curve" smooth="yes"/>
			<point x="561" y="365"/>
			<point x="508" y="365"/>
			<point x="455" y="364" type="curve"/>
			<point x="455" y="502" type="line" smooth="yes"/>
			<point x="455" y="536"/>
			<point x="428" y="556"/>
			<point x="405" y="556" type="curve" smooth="yes"/>
			<point x="380" y="556"/>
			<point x="356" y="536"/>
		</contour>
	</outline>
</glyph>
<glyph name="five" format="2">
	<unicode hex="0035"/>
	<advance width="475"/>
	<outline>
		<contour>
			<point name="hr00" x="179" y="340" type="curve" smooth="yes"/>
			<point x="245" y="307"/>
			<point x="336" y="284"/>
			<point x="336" y="180" type="curve" smooth="yes"/>
			<point x="336" y="80"/>
			<point x="285" y="48"/>
			<point x="250" y="48" type="curve" smooth="yes"/>
			<point x="214" y="48"/>
			<point x="172" y="74"/>
			<point x="128" y="74" type="curve" smooth="yes"/>
			<point x="93" y="74"/>
			<point x="74" y="51"/>
			<point x="74" y="27" type="curve" smooth="yes"/>
			<point x="74" y="3"/>
			<point x="84" y="-12"/>
			<point x="111" y="-24" type="curve" smooth="yes"/>
			<point x="143" y="-38"/>
			<point x="202" y="-50"/>
			<point x="242" y="-50" type="curve" smooth="yes"/>
			<point x="374" y="-50"/>
			<point x="436" y="62"/>
			<point x="436" y="181" type="curve" smooth="yes"/>
			<point x="436" y="281"/>
			<point x="374" y="361"/>
			<point x="267" y="407" type="curve" smooth="yes"/>
			<point x="246" y="416"/>
			<point x="191" y="441"/>
			<point x="191" y="452" type="curve" smooth="yes"/>
			<point x="191" y="470"/>
			<point x="200" y="496"/>
			<point x="206" y="510" type="curve" smooth="yes"/>
			<point x="222" y="549"/>
			<point x="236" y="590"/>
			<point x="238" y="625" type="curve"/>
			<point x="308" y="632"/>
			<point x="379" y="635"/>
			<point x="450" y="635" type="curve" smooth="yes"/>
			<point x="486" y="635"/>
			<point x="504" y="662"/>
			<point x="504" y="685" type="curve" smooth="yes"/>
			<point x="504" y="708"/>
			<point x="487" y="735"/>
			<point x="450" y="735" type="curve" smooth="yes"/>
			<point x="318" y="735"/>
			<point x="207" y="723"/>
			<point x="73" y="709" type="curve" smooth="yes"/>
			<point x="32" y="705"/>
			<point x="12" y="684"/>
			<point x="12" y="651" type="curve" smooth="yes"/>
			<point x="12" y="626"/>
			<point x="31" y="605"/>
			<point x="60" y="605" type="curve" smooth="yes"/>
			<point x="84" y="605"/>
			<point x="111" y="613"/>
			<point x="136" y="615" type="curve"/>
			<point x="123" y="550"/>
			<point x="91" y="495"/>
			<point x="91" y="447" type="curve" smooth="yes"/>
			<point x="91" y="408"/>
			<point x="115" y="372"/>
		</contour>
	</outline>
</glyph>
<glyph name="six" format="2">
	<unicode hex="0036"/>
	<advance width="599"/>
	<outline>
		<contour>
			<point x="180" y="641" type="curve" smooth="yes"/>
			<point x="102" y="554"/>
			<point x="51" y="409"/>
			<point x="51" y="269" type="curve" smooth="yes"/>
			<point x="51" y="63"/>
			<point x="127" y="-21"/>
			<point x="326" y="-21" type="curve" smooth="yes"/>
			<point x="429" y="-21"/>
			<point x="577" y="68"/>
			<point x="577" y="191" type="curve" smooth="yes"/>
			<point x="577" y="281"/>
			<point x="504" y="368"/>
			<point x="385" y="368" type="curve" smooth="yes"/>
			<point x="306" y="368"/>
			<point x="207" y="301"/>
			<point x="207" y="221" type="curve" smooth="yes"/>
			<point x="207" y="195"/>
			<point x="228" y="174"/>
			<point x="253" y="174" type="curve" smooth="yes"/>
			<point x="277" y="174"/>
			<point x="304" y="189"/>
			<point x="307" y="220" type="curve"/>
			<point x="333" y="254"/>
			<point x="364" y="267"/>
			<point x="393" y="267" type="curve" smooth="yes"/>
			<point x="436" y="267"/>
			<point x="469" y="232"/>
			<point x="469" y="193" type="curve" smooth="yes"/>
			<point x="469" y="147"/>
			<point x="407" y="68"/>
			<point x="302" y="68" type="curve" smooth="yes"/>
			<point x="263" y="68"/>
			<point x="222" y="77"/>
			<point x="200" y="93" type="curve"/>
			<point x="163" y="144"/>
			<point x="149" y="180"/>
			<point x="149" y="250" type="curve" smooth="yes"/>
			<point x="149" y="404"/>
			<point x="203" y="560"/>
			<point x="304" y="619" type="curve" smooth="yes"/>
			<point x="323" y="630"/>
			<point x="346" y="631"/>
			<point x="367" y="638" type="curve" smooth="yes"/>
			<point x="394" y="647"/>
			<point x="405" y="669"/>
			<point x="405" y="688" type="curve" smooth="yes"/>
			<point x="405" y="713"/>
			<point x="385" y="735"/>
			<point x="354" y="735" type="curve" smooth="yes"/>
			<point x="285" y="735"/>
			<point x="221" y="686"/>
		</contour>
	</outline>
</glyph>
<glyph name="seven" format="2">
	<unicode hex="0037"/>
	<advance width="424"/>
	<outline>
		<contour>
			<point name="hr00" x="24" y="605" type="curve"/>
			<point x="75" y="603"/>
			<point x="124" y="603"/>
			<point x="174" y="596" type="curve" smooth="yes"/>
			<point x="207" y="591"/>
			<point x="242" y="594"/>
			<point x="276" y="589" type="curve"/>
			<point x="277" y="584"/>
			<point x="277" y="579"/>
			<point x="277" y="573" type="curve" smooth="yes"/>
			<point x="277" y="543"/>
			<point x="267" y="509"/>
			<point x="263" y="486" type="curve" smooth="yes"/>
			<point x="250" y="408"/>
			<point x="229" y="331"/>
			<point x="211" y="253" type="curve" smooth="yes"/>
			<point x="195" y="186"/>
			<point x="184" y="110"/>
			<point x="153" y="47" type="curve"/>
			<point x="150" y="38"/>
			<point x="148" y="30"/>
			<point x="148" y="22" type="curve" smooth="yes"/>
			<point x="148" y="-8"/>
			<point x="170" y="-27"/>
			<point x="194" y="-27" type="curve" smooth="yes"/>
			<point x="264" y="-27"/>
			<point x="289" y="147"/>
			<point x="308" y="229" type="curve" smooth="yes"/>
			<point x="327" y="312"/>
			<point x="350" y="394"/>
			<point x="363" y="478" type="curve" smooth="yes"/>
			<point x="368" y="510"/>
			<point x="377" y="549"/>
			<point x="377" y="585" type="curve" smooth="yes"/>
			<point x="377" y="613"/>
			<point x="371" y="639"/>
			<point x="354" y="662" type="curve" smooth="yes"/>
			<point x="326" y="698"/>
			<point x="250" y="691"/>
			<point x="212" y="693" type="curve"/>
			<point x="149" y="699"/>
			<point x="88" y="702"/>
			<point x="24" y="705" type="curve"/>
			<point x="-6" y="697"/>
			<point x="-20" y="676"/>
			<point x="-20" y="655" type="curve" smooth="yes"/>
			<point x="-20" y="634"/>
			<point x="-6" y="612"/>
		</contour>
	</outline>
</glyph>
<glyph name="eight" format="2">
	<unicode hex="0038"/>
	<advance width="532"/>
	<outline>
		<contour>
			<point x="357" y="708" type="curve" smooth="yes"/>
			<point x="335" y="729"/>
			<point x="300" y="731"/>
			<point x="271" y="731" type="curve" smooth="yes"/>
			<point x="165" y="731"/>
			<point x="112" y="664"/>
			<point x="112" y="563" type="curve" smooth="yes"/>
			<point x="112" y="472"/>
			<point x="160" y="439"/>
			<point x="218" y="397" type="curve"/>
			<point x="190" y="388"/>
			<point x="163" y="376"/>
			<point x="140" y="358" type="curve" smooth="yes"/>
			<point x="68" y="304"/>
			<point x="44" y="257"/>
			<point x="44" y="151" type="curve" smooth="yes"/>
			<point x="44" y="104"/>
			<point x="51" y="53"/>
			<point x="79" y="28" type="curve" smooth="yes"/>
			<point x="114" y="-3"/>
			<point x="182" y="-15"/>
			<point x="235" y="-15" type="curve" smooth="yes"/>
			<point x="349" y="-15"/>
			<point x="461" y="64"/>
			<point x="461" y="173" type="curve" smooth="yes"/>
			<point x="461" y="229"/>
			<point x="433" y="288"/>
			<point x="390" y="358" type="curve"/>
			<point x="443" y="386"/>
			<point x="519" y="444"/>
			<point x="519" y="520" type="curve" smooth="yes"/>
			<point x="519" y="560"/>
			<point x="492" y="615"/>
			<point x="448" y="615" type="curve" smooth="yes"/>
			<point x="415" y="615"/>
			<point x="394" y="593"/>
			<point x="394" y="567" type="curve" smooth="yes"/>
			<point x="394" y="554"/>
			<point x="401" y="539"/>
			<point x="414" y="527" type="curve"/>
			<point x="405" y="481"/>
			<point x="368" y="453"/>
			<point x="329" y="434" type="curve"/>
			<point x="276" y="475"/>
			<point x="210" y="506"/>
			<point x="210" y="569" type="curve" smooth="yes"/>
			<point x="210" y="611"/>
			<point x="233" y="633"/>
			<point x="282" y="633" type="curve" smooth="yes"/>
			<point x="287" y="633"/>
			<point x="292" y="632"/>
			<point x="296" y="629" type="curve" smooth="yes"/>
			<point x="309" y="621"/>
			<point x="321" y="617"/>
			<point x="332" y="617" type="curve" smooth="yes"/>
			<point x="359" y="617"/>
			<point x="379" y="638"/>
			<point x="379" y="663" type="curve" smooth="yes"/>
			<point x="379" y="678"/>
			<point x="372" y="693"/>
		</contour>
		<contour>
			<point x="359" y="172" type="curve" smooth="yes"/>
			<point x="359" y="111"/>
			<point x="305" y="86"/>
			<point x="242" y="86" type="curve" smooth="yes"/>
			<point x="212" y="86"/>
			<point x="179" y="93"/>
			<point x="148" y="103" type="curve"/>
			<point x="147" y="114"/>
			<point x="145" y="130"/>
			<point x="145" y="134" type="curve" smooth="yes"/>
			<point x="146" y="227"/>
			<point x="143" y="268"/>
			<point x="299" y="318" type="curve"/>
			<point x="326" y="276"/>
			<point x="359" y="216"/>
		</contour>
	</outline>
</glyph>
<glyph name="nine" format="2">
	<unicode hex="0039"/>
	<advance width="514"/>
	<outline>
		<contour>
			<point x="435" y="667" type="curve"/>
			<point x="408" y="708"/>
			<point x="370" y="720"/>
			<point x="311" y="720" type="curve" smooth="yes"/>
			<point x="161" y="720"/>
			<point x="47" y="654"/>
			<point x="47" y="516" type="curve" smooth="yes"/>
			<point x="47" y="409"/>
			<point x="156" y="368"/>
			<point x="247" y="368" type="curve" smooth="yes"/>
			<point x="285" y="368"/>
			<point x="324" y="375"/>
			<point x="350" y="388" type="curve"/>
			<point x="348" y="370" type="line" smooth="yes"/>
			<point x="332" y="223"/>
			<point x="302" y="64"/>
			<point x="196" y="-19" type="curve" smooth="yes"/>
			<point x="186" y="-27"/>
			<point x="174" y="-27"/>
			<point x="163" y="-32" type="curve"/>
			<point x="142" y="-7"/>
			<point x="124" y="3"/>
			<point x="103" y="3" type="curve" smooth="yes"/>
			<point x="74" y="3"/>
			<point x="54" y="-19"/>
			<point x="54" y="-44" type="curve" smooth="yes"/>
			<point x="54" y="-69"/>
			<point x="72" y="-91"/>
			<point x="102" y="-117" type="curve" smooth="yes"/>
			<point x="119" y="-130"/>
			<point x="140" y="-138"/>
			<point x="155" y="-138" type="curve" smooth="yes"/>
			<point x="170" y="-138"/>
			<point x="186" y="-131"/>
			<point x="204" y="-123" type="curve" smooth="yes"/>
			<point x="402" y="-39"/>
			<point x="429" y="206"/>
			<point x="452" y="392" type="curve"/>
			<point x="459" y="428"/>
			<point x="480" y="498"/>
			<point x="480" y="518" type="curve" smooth="yes"/>
			<point x="480" y="549"/>
			<point x="455" y="566"/>
			<point x="431" y="566" type="curve" smooth="yes"/>
			<point x="412" y="566"/>
			<point x="395" y="558"/>
			<point x="380" y="534" type="curve"/>
			<point x="324" y="481"/>
			<point x="300" y="470"/>
			<point x="237" y="470" type="curve" smooth="yes"/>
			<point x="192" y="470"/>
			<point x="148" y="482"/>
			<point x="148" y="525" type="curve" smooth="yes"/>
			<point x="148" y="603"/>
			<point x="253" y="619"/>
			<point x="305" y="619" type="curve" smooth="yes"/>
			<point x="323" y="619"/>
			<point x="335" y="618"/>
			<point x="357" y="607" type="curve"/>
			<point x="370" y="593"/>
			<point x="385" y="588"/>
			<point x="398" y="588" type="curve" smooth="yes"/>
			<point x="423" y="588"/>
			<point x="444" y="607"/>
			<point x="444" y="635" type="curve" smooth="yes"/>
			<point x="444" y="645"/>
			<point x="441" y="655"/>
		</contour>
	</outline>
</glyph>
<glyph name="colon" format="2">
	<unicode hex="003A"/>
	<advance width="362"/>
	<outline>
		<contour>
			<point x="186" y="429" type="curve" smooth="yes"/>
			<point x="135" y="429"/>
			<point x="115" y="402"/>
			<point x="115" y="373" type="curve" smooth="yes"/>
			<point x="115" y="340"/>
			<point x="141" y="305"/>
			<point x="177" y="305" type="curve" smooth="yes"/>
			<point x="205" y="305"/>
			<point x="245" y="332"/>
			<point x="245" y="368" type="curve" smooth="yes"/>
			<point x="245" y="407"/>
			<point x="215" y="429"/>
		</contour>
		<contour>
			<point x="185" y="94" type="curve" smooth="yes"/>
			<point x="149" y="94"/>
			<point x="126" y="60"/>
			<point x="126" y="30" type="curve" smooth="yes"/>
			<point x="126" y="-4"/>
			<point x="157" y="-26"/>
			<point x="188" y="-26" type="curve" smooth="yes"/>
			<point x="207" y="-26"/>
			<point x="245" y="-11"/>
			<point x="245" y="29" type="curve" smooth="yes"/>
			<point x="245" y="60"/>
			<point x="219" y="94"/>
		</contour>
	</outline>
</glyph>
<glyph name="semicolon" format="2">
	<unicode hex="003B"/>
	<advance width="360"/>
	<outline>
		<contour>
			<point x="150" y="86" type="curve"/>
			<point x="130" y="61"/>
			<point x="122" y="31"/>
			<point x="106" y="4" type="curve" smooth="yes"/>
			<point x="82" y="-36"/>
			<point x="29" y="-74"/>
			<point x="29" y="-122" type="curve" smooth="yes"/>
			<point x="29" y="-152"/>
			<point x="51" y="-171"/>
			<point x="75" y="-171" type="curve" smooth="yes"/>
			<point x="108" y="-171"/>
			<point x="114" y="-149"/>
			<point x="147" y="-107" type="curve" smooth="yes"/>
			<point x="184" y="-60"/>
			<point x="231" y="4"/>
			<point x="231" y="50" type="curve" smooth="yes"/>
			<point x="231" y="77"/>
			<point x="211" y="97"/>
			<point x="184" y="97" type="curve" smooth="yes"/>
			<point x="173" y="97"/>
			<point x="162" y="94"/>
		</contour>
		<contour>
			<point x="116" y="403" type="curve" smooth="yes"/>
			<point x="116" y="363"/>
			<point x="139" y="336"/>
			<point x="168" y="336" type="curve" smooth="yes"/>
			<point x="171" y="336"/>
			<point x="173" y="337"/>
			<point x="175" y="337" type="curve" smooth="yes"/>
			<point x="179" y="336"/>
			<point x="183" y="335"/>
			<point x="187" y="335" type="curve" smooth="yes"/>
			<point x="222" y="335"/>
			<point x="244" y="367"/>
			<point x="244" y="390" type="curve" smooth="yes"/>
			<point x="244" y="405"/>
			<point x="238" y="417"/>
			<point x="226" y="426" type="curve"/>
			<point x="217" y="449"/>
			<point x="196" y="465"/>
			<point x="171" y="465" type="curve" smooth="yes"/>
			<point x="139" y="465"/>
			<point x="116" y="437"/>
		</contour>
	</outline>
</glyph>
<glyph name="less" format="2">
	<unicode hex="003C"/>
	<advance width="440"/>
	<outline>
		<contour>
			<point x="307" y="579" type="curve" smooth="yes"/>
			<point x="255" y="553"/>
			<point x="130" y="439"/>
			<point x="99" y="396" type="curve" smooth="yes"/>
			<point x="83" y="374"/>
			<point x="76" y="352"/>
			<point x="76" y="332" type="curve" smooth="yes"/>
			<point x="76" y="267"/>
			<point x="170" y="222"/>
			<point x="212" y="175" type="curve" smooth="yes"/>
			<point x="224" y="161"/>
			<point x="238" y="159"/>
			<point x="251" y="159" type="curve" smooth="yes"/>
			<point x="278" y="159"/>
			<point x="299" y="177"/>
			<point x="299" y="203" type="curve" smooth="yes"/>
			<point x="299" y="222"/>
			<point x="293" y="234"/>
			<point x="276" y="253" type="curve" smooth="yes"/>
			<point x="246" y="286"/>
			<point x="209" y="313"/>
			<point x="189" y="327" type="curve" smooth="yes"/>
			<point x="178" y="335" type="line"/>
			<point x="217" y="387"/>
			<point x="306" y="457"/>
			<point x="357" y="491" type="curve" smooth="yes"/>
			<point x="373" y="501"/>
			<point x="386" y="524"/>
			<point x="386" y="538" type="curve" smooth="yes"/>
			<point x="386" y="562"/>
			<point x="366" y="585"/>
			<point x="334" y="585" type="curve" smooth="yes"/>
			<point x="326" y="585"/>
			<point x="318" y="584"/>
		</contour>
	</outline>
</glyph>
<glyph name="equal" format="2">
	<unicode hex="003D"/>
	<advance width="533"/>
	<outline>
		<contour>
			<point x="120" y="194" type="curve" smooth="yes"/>
			<point x="223" y="194"/>
			<point x="322" y="210"/>
			<point x="427" y="210" type="curve" smooth="yes"/>
			<point x="463" y="210"/>
			<point x="481" y="237"/>
			<point x="481" y="260" type="curve" smooth="yes"/>
			<point x="481" y="283"/>
			<point x="463" y="310"/>
			<point x="427" y="310" type="curve" smooth="yes"/>
			<point x="322" y="310"/>
			<point x="230" y="294"/>
			<point x="125" y="294" type="curve" smooth="yes"/>
			<point x="94" y="294"/>
			<point x="70" y="272"/>
			<point x="70" y="244" type="curve" smooth="yes"/>
			<point x="70" y="216"/>
			<point x="90" y="194"/>
		</contour>
		<contour>
			<point x="174" y="369" type="curve" smooth="yes"/>
			<point x="181" y="385"/>
			<point x="227" y="391"/>
			<point x="275" y="391" type="curve" smooth="yes"/>
			<point x="322" y="391"/>
			<point x="371" y="386"/>
			<point x="388" y="386" type="curve" smooth="yes"/>
			<point x="425" y="386"/>
			<point x="442" y="413"/>
			<point x="442" y="436" type="curve" smooth="yes"/>
			<point x="442" y="459"/>
			<point x="424" y="486"/>
			<point x="388" y="486" type="curve" smooth="yes"/>
			<point x="355" y="486"/>
			<point x="311" y="491"/>
			<point x="267" y="491" type="curve" smooth="yes"/>
			<point x="189" y="491"/>
			<point x="109" y="478"/>
			<point x="83" y="409" type="curve" smooth="yes"/>
			<point x="80" y="400"/>
			<point x="78" y="392"/>
			<point x="78" y="384" type="curve" smooth="yes"/>
			<point x="78" y="354"/>
			<point x="100" y="335"/>
			<point x="124" y="335" type="curve" smooth="yes"/>
			<point x="142" y="335"/>
			<point x="163" y="344"/>
		</contour>
	</outline>
</glyph>
<glyph name="greater" format="2">
	<unicode hex="003E"/>
	<advance width="479"/>
	<outline>
		<contour>
			<point x="94" y="455" type="curve" smooth="yes"/>
			<point x="156" y="406"/>
			<point x="216" y="367"/>
			<point x="277" y="319" type="curve"/>
			<point x="298" y="301" type="line"/>
			<point x="286" y="287" type="line" smooth="yes"/>
			<point x="269" y="267"/>
			<point x="229" y="212"/>
			<point x="206" y="203" type="curve" smooth="yes"/>
			<point x="186" y="195"/>
			<point x="178" y="176"/>
			<point x="178" y="158" type="curve" smooth="yes"/>
			<point x="178" y="133"/>
			<point x="198" y="110"/>
			<point x="232" y="110" type="curve" smooth="yes"/>
			<point x="278" y="110"/>
			<point x="346" y="207"/>
			<point x="367" y="228" type="curve" smooth="yes"/>
			<point x="398" y="259"/>
			<point x="412" y="283"/>
			<point x="412" y="305" type="curve" smooth="yes"/>
			<point x="412" y="328"/>
			<point x="398" y="353"/>
			<point x="350" y="389" type="curve" smooth="yes"/>
			<point x="270" y="450"/>
			<point x="207" y="495"/>
			<point x="154" y="535" type="curve" smooth="yes"/>
			<point x="146" y="541"/>
			<point x="133" y="543"/>
			<point x="124" y="543" type="curve" smooth="yes"/>
			<point x="96" y="543"/>
			<point x="76" y="524"/>
			<point x="76" y="496" type="curve" smooth="yes"/>
			<point x="76" y="481"/>
			<point x="80" y="467"/>
		</contour>
	</outline>
</glyph>
<glyph name="question" format="2">
	<unicode hex="003F"/>
	<advance width="538"/>
	<outline>
		<contour>
			<point x="157" y="447" type="curve" smooth="yes"/>
			<point x="157" y="471"/>
			<point x="148" y="490"/>
			<point x="146" y="512" type="curve"/>
			<point x="158" y="526"/>
			<point x="175" y="537"/>
			<point x="190" y="548" type="curve" smooth="yes"/>
			<point x="237" y="580"/>
			<point x="302" y="595"/>
			<point x="355" y="606" type="curve"/>
			<point x="359" y="598"/>
			<point x="361" y="588"/>
			<point x="361" y="579" type="curve" smooth="yes"/>
			<point x="361" y="538"/>
			<point x="328" y="490"/>
			<point x="312" y="461" type="curve" smooth="yes"/>
			<point x="285" y="412"/>
			<point x="250" y="349"/>
			<point x="250" y="285" type="curve" smooth="yes"/>
			<point x="250" y="247"/>
			<point x="267" y="217"/>
			<point x="284" y="195" type="curve" smooth="yes"/>
			<point x="298" y="177"/>
			<point x="314" y="169"/>
			<point x="330" y="169" type="curve" smooth="yes"/>
			<point x="355" y="169"/>
			<point x="376" y="189"/>
			<point x="376" y="217" type="curve" smooth="yes"/>
			<point x="376" y="244"/>
			<point x="350" y="262"/>
			<point x="350" y="292" type="curve" smooth="yes"/>
			<point x="350" y="383"/>
			<point x="464" y="467"/>
			<point x="464" y="600" type="curve" smooth="yes"/>
			<point x="464" y="636"/>
			<point x="443" y="675"/>
			<point x="415" y="694" type="curve" smooth="yes"/>
			<point x="402" y="703"/>
			<point x="383" y="707"/>
			<point x="363" y="707" type="curve" smooth="yes"/>
			<point x="292" y="707"/>
			<point x="193" y="663"/>
			<point x="151" y="641" type="curve" smooth="yes"/>
			<point x="126" y="628"/>
			<point x="103" y="613"/>
			<point x="82" y="595" type="curve" smooth="yes"/>
			<point x="54" y="572"/>
			<point x="47" y="547"/>
			<point x="47" y="519" type="curve" smooth="yes"/>
			<point x="47" y="493"/>
			<point x="51" y="465"/>
			<point x="57" y="439" type="curve" smooth="yes"/>
			<point x="64" y="409"/>
			<point x="88" y="397"/>
			<point x="108" y="397" type="curve" smooth="yes"/>
			<point x="130" y="397"/>
			<point x="157" y="414"/>
		</contour>
		<contour>
			<point x="357" y="63" type="curve" smooth="yes"/>
			<point x="357" y="104"/>
			<point x="317" y="130"/>
			<point x="282" y="130" type="curve" smooth="yes"/>
			<point x="254" y="130"/>
			<point x="228" y="113"/>
			<point x="228" y="75" type="curve" smooth="yes"/>
			<point x="228" y="39"/>
			<point x="255" y="-5"/>
			<point x="294" y="-5" type="curve" smooth="yes"/>
			<point x="333" y="-5"/>
			<point x="357" y="28"/>
		</contour>
	</outline>
</glyph>
<glyph name="C" format="2">
	<unicode hex="0043"/>
	<advance width="576"/>
	<outline>
		<contour>
			<point x="430" y="702" type="curve" smooth="yes"/>
			<point x="355" y="701"/>
			<point x="261" y="672"/>
			<point x="185" y="613" type="curve" smooth="yes"/>
			<point x="89" y="538"/>
			<point x="37" y="429"/>
			<point x="37" y="322" type="curve" smooth="yes"/>
			<point x="37" y="103"/>
			<point x="208" y="-27"/>
			<point x="411" y="-27" type="curve" smooth="yes"/>
			<point x="483" y="-27" type="line" smooth="yes"/>
			<point x="516" y="-27"/>
			<point x="537" y="0"/>
			<point x="537" y="23" type="curve" smooth="yes"/>
			<point x="537" y="46"/>
			<point x="519" y="73"/>
			<point x="483" y="73" type="curve" smooth="yes"/>
			<point x="411" y="73" type="line" smooth="yes"/>
			<point x="264" y="73"/>
			<point x="138" y="156"/>
			<point x="138" y="327" type="curve" smooth="yes"/>
			<point x="138" y="382"/>
			<point x="165" y="449"/>
			<point x="202" y="492" type="curve" smooth="yes"/>
			<point x="261" y="559"/>
			<point x="321" y="586"/>
			<point x="446" y="603" type="curve" smooth="yes"/>
			<point x="475" y="607"/>
			<point x="484" y="634"/>
			<point x="484" y="653" type="curve" smooth="yes"/>
			<point x="484" y="676"/>
			<point x="465" y="702"/>
		</contour>
	</outline>
	<anchor name="top" x="297" y="714"/>
	<anchor name="bottomAttach" x="354" y="-9"/>
</glyph>
<glyph name="F" format="2">
	<unicode hex="0046"/>
	<advance width="625"/>
	<outline>
		<contour>
			<point x="124" y="304" type="line"/>
			<point x="119" y="217"/>
			<point x="112" y="131"/>
			<point x="112" y="44" type="curve" smooth="yes"/>
			<point x="112" y="8"/>
			<point x="134" y="-14"/>
			<point x="161" y="-14" type="curve" smooth="yes"/>
			<point x="193" y="-14"/>
			<point x="212" y="11"/>
			<point x="212" y="40" type="curve" smooth="yes"/>
			<point x="212" y="130"/>
			<point x="220" y="215"/>
			<point x="223" y="305" type="curve"/>
			<point x="293" y="307"/>
			<point x="363" y="309"/>
			<point x="433" y="309" type="curve" smooth="yes"/>
			<point x="466" y="309"/>
			<point x="487" y="331"/>
			<point x="487" y="359" type="curve" smooth="yes"/>
			<point x="487" y="387"/>
			<point x="466" y="409"/>
			<point x="433" y="409" type="curve" smooth="yes"/>
			<point x="363" y="409"/>
			<point x="294" y="407"/>
			<point x="225" y="405" type="curve"/>
			<point x="224" y="442"/>
			<point x="221" y="478"/>
			<point x="221" y="515" type="curve" smooth="yes"/>
			<point x="221" y="554"/>
			<point x="225" y="593"/>
			<point x="231" y="634" type="curve"/>
			<point x="272" y="631"/>
			<point x="311" y="630"/>
			<point x="349" y="630" type="curve" smooth="yes"/>
			<point x="419" y="630"/>
			<point x="489" y="634"/>
			<point x="559" y="634" type="curve" smooth="yes"/>
			<point x="592" y="634"/>
			<point x="613" y="661"/>
			<point x="613" y="684" type="curve" smooth="yes"/>
			<point x="613" y="707"/>
			<point x="592" y="734"/>
			<point x="559" y="734" type="curve" smooth="yes"/>
			<point x="498" y="734"/>
			<point x="414" y="730"/>
			<point x="342" y="730" type="curve" smooth="yes"/>
			<point x="262" y="730"/>
			<point x="185" y="741"/>
			<point x="105" y="741" type="curve" smooth="yes"/>
			<point x="76" y="741"/>
			<point x="52" y="717"/>
			<point x="52" y="687" type="curve" smooth="yes"/>
			<point x="52" y="661"/>
			<point x="74" y="640"/>
			<point x="100" y="640" type="curve" smooth="yes"/>
			<point x="109" y="640"/>
			<point x="120" y="640"/>
			<point x="131" y="639" type="curve"/>
			<point x="127" y="601"/>
			<point x="121" y="564"/>
			<point x="121" y="526" type="curve" smooth="yes"/>
			<point x="121" y="485"/>
			<point x="125" y="444"/>
			<point x="126" y="404" type="curve"/>
			<point x="94" y="404" type="line" smooth="yes"/>
			<point x="67" y="404"/>
			<point x="45" y="382"/>
			<point x="45" y="354" type="curve" smooth="yes"/>
			<point x="45" y="326"/>
			<point x="67" y="304"/>
			<point x="94" y="304" type="curve" smooth="yes"/>
		</contour>
	</outline>
	<anchor name="top" x="328" y="722"/>
</glyph>
<glyph name="G" format="2">
	<unicode hex="0047"/>
	<advance width="728"/>
	<outline>
		<contour>
			<point x="601" y="700" type="curve" smooth="yes"/>
			<point x="565" y="722"/>
			<point x="512" y="749"/>
			<point x="451" y="749" type="curve" smooth="yes"/>
			<point x="384" y="749"/>
			<point x="318" y="721"/>
			<point x="270" y="678" type="curve" smooth="yes"/>
			<point x="139" y="562"/>
			<point x="50" y="369"/>
			<point x="50" y="173" type="curve" smooth="yes"/>
			<point x="50" y="47"/>
			<point x="139" y="-25"/>
			<point x="246" y="-25" type="curve" smooth="yes"/>
			<point x="352" y="-25"/>
			<point x="441" y="36"/>
			<point x="499" y="107" type="curve"/>
			<point x="518" y="39"/>
			<point x="583" y="-40"/>
			<point x="651" y="-40" type="curve" smooth="yes"/>
			<point x="682" y="-40"/>
			<point x="698" y="-16"/>
			<point x="698" y="8" type="curve" smooth="yes"/>
			<point x="698" y="36"/>
			<point x="676" y="56"/>
			<point x="655" y="58" type="curve"/>
			<point x="615" y="86"/>
			<point x="589" y="126"/>
			<point x="589" y="180" type="curve" smooth="yes"/>
			<point x="589" y="202"/>
			<point x="590" y="224"/>
			<point x="590" y="268" type="curve"/>
			<point x="591" y="272"/>
			<point x="591" y="275"/>
			<point x="591" y="279" type="curve" smooth="yes"/>
			<point x="591" y="309"/>
			<point x="566" y="333"/>
			<point x="536" y="333" type="curve" smooth="yes"/>
			<point x="506" y="333"/>
			<point x="482" y="308"/>
			<point x="482" y="277" type="curve"/>
			<point x="452" y="176"/>
			<point x="360" y="74"/>
			<point x="243" y="74" type="curve" smooth="yes"/>
			<point x="199" y="74"/>
			<point x="154" y="116"/>
			<point x="154" y="184" type="curve" smooth="yes"/>
			<point x="154" y="282"/>
			<point x="192" y="401"/>
			<point x="232" y="470" type="curve" smooth="yes"/>
			<point x="279" y="552"/>
			<point x="346" y="647"/>
			<point x="448" y="647" type="curve" smooth="yes"/>
			<point x="511" y="647"/>
			<point x="552" y="603"/>
			<point x="588" y="603" type="curve" smooth="yes"/>
			<point x="619" y="603"/>
			<point x="639" y="626"/>
			<point x="639" y="650" type="curve" smooth="yes"/>
			<point x="639" y="669"/>
			<point x="626" y="685"/>
		</contour>
	</outline>
	<anchor name="top" x="451" y="725"/>
	<anchor name="bottom" x="651" y="0"/>
	<anchor name="bottomAttach" x="651" y="0"/>
</glyph>
<glyph name="H" format="2">
	<unicode hex="0048"/>
	<advance width="604"/>
	<outline>
		<contour>
			<point x="434" y="691" type="curve" smooth="yes"/>
			<point x="434" y="602"/>
			<point x="430" y="517"/>
			<point x="427" y="428" type="curve"/>
			<point x="343" y="427"/>
			<point x="259" y="421"/>
			<point x="175" y="419" type="curve"/>
			<point x="177" y="505"/>
			<point x="179" y="590"/>
			<point x="179" y="676" type="curve" smooth="yes"/>
			<point x="179" y="706"/>
			<point x="157" y="728"/>
			<point x="129" y="728" type="curve" smooth="yes"/>
			<point x="101" y="728"/>
			<point x="79" y="706"/>
			<point x="79" y="676" type="curve" smooth="yes"/>
			<point x="79" y="458"/>
			<point x="67" y="245"/>
			<point x="67" y="27" type="curve" smooth="yes"/>
			<point x="67" y="-3"/>
			<point x="89" y="-25"/>
			<point x="117" y="-25" type="curve" smooth="yes"/>
			<point x="145" y="-25"/>
			<point x="167" y="-3"/>
			<point x="167" y="27" type="curve" smooth="yes"/>
			<point x="167" y="125"/>
			<point x="169" y="221"/>
			<point x="172" y="319" type="curve"/>
			<point x="255" y="320"/>
			<point x="339" y="327"/>
			<point x="422" y="328" type="curve"/>
			<point x="418" y="226"/>
			<point x="413" y="124"/>
			<point x="413" y="23" type="curve" smooth="yes"/>
			<point x="413" y="-16"/>
			<point x="435" y="-35"/>
			<point x="462" y="-35" type="curve" smooth="yes"/>
			<point x="490" y="-35"/>
			<point x="513" y="-17"/>
			<point x="513" y="17" type="curve" smooth="yes"/>
			<point x="513" y="233"/>
			<point x="534" y="463"/>
			<point x="534" y="687" type="curve" smooth="yes"/>
			<point x="534" y="719"/>
			<point x="510" y="737"/>
			<point x="485" y="737" type="curve" smooth="yes"/>
			<point x="460" y="737"/>
			<point x="434" y="719"/>
		</contour>
	</outline>
	<anchor name="top" x="288" y="726"/>
	<anchor name="bottom" x="462" y="0"/>
	<anchor name="bottomAttach" x="462" y="0"/>
	<anchor name="half_top" x="485" y="500"/>
	<guideline x="0" y="678" angle="0"/>
	<guideline x="129" y="0" angle="90"/>
</glyph>
<glyph name="I" format="2">
	<unicode hex="0049"/>
	<advance width="297"/>
	<outline>
		<contour>
			<point x="109" y="676" type="curve" smooth="yes"/>
			<point x="109" y="455"/>
			<point x="83" y="262"/>
			<point x="83" y="41" type="curve" smooth="yes"/>
			<point x="83" y="2"/>
			<point x="105" y="-17"/>
			<point x="132" y="-17" type="curve" smooth="yes"/>
			<point x="160" y="-17"/>
			<point x="183" y="1"/>
			<point x="183" y="35" type="curve" smooth="yes"/>
			<point x="183" y="256"/>
			<point x="209" y="451"/>
			<point x="209" y="672" type="curve" smooth="yes"/>
			<point x="209" y="700"/>
			<point x="187" y="722"/>
			<point x="160" y="722" type="curve" smooth="yes"/>
			<point x="132" y="722"/>
			<point x="109" y="699"/>
		</contour>
	</outline>
	<anchor name="top" x="160" y="725"/>
	<anchor name="bottomAttach" x="132" y="0"/>
	<anchor name="bottom" x="132" y="0"/>
</glyph>
<glyph name="K" format="2">
	<unicode hex="004B"/>
	<advance width="582"/>
	<outline>
		<contour>
			<point x="76" y="707" type="curve" smooth="yes"/>
			<point x="76" y="504"/>
			<point x="51" y="305"/>
			<point x="51" y="101" type="curve" smooth="yes"/>
			<point x="51" y="75"/>
			<point x="54" y="50"/>
			<point x="54" y="24" type="curve" smooth="yes"/>
			<point x="54" y="1"/>
			<point x="76" y="-17"/>
			<point x="103" y="-17" type="curve" smooth="yes"/>
			<point x="130" y="-17"/>
			<point x="153" y="3"/>
			<point x="165" y="36" type="curve"/>
			<point x="183" y="56"/>
			<point x="194" y="78"/>
			<point x="207" y="110" type="curve" smooth="yes"/>
			<point x="228" y="162"/>
			<point x="255" y="237"/>
			<point x="285" y="290" type="curve"/>
			<point x="340" y="166"/>
			<point x="427" y="29"/>
			<point x="478" y="-16" type="curve" smooth="yes"/>
			<point x="488" y="-24"/>
			<point x="501" y="-28"/>
			<point x="514" y="-28" type="curve" smooth="yes"/>
			<point x="541" y="-28"/>
			<point x="561" y="-7"/>
			<point x="561" y="18" type="curve" smooth="yes"/>
			<point x="561" y="32"/>
			<point x="554" y="49"/>
			<point x="539" y="63" type="curve" smooth="yes"/>
			<point x="490" y="106"/>
			<point x="392" y="272"/>
			<point x="353" y="389" type="curve"/>
			<point x="426" y="493"/>
			<point x="478" y="575"/>
			<point x="537" y="651" type="curve" smooth="yes"/>
			<point x="544" y="660"/>
			<point x="548" y="675"/>
			<point x="548" y="684" type="curve" smooth="yes"/>
			<point x="548" y="712"/>
			<point x="527" y="732"/>
			<point x="500" y="732" type="curve" smooth="yes"/>
			<point x="475" y="732"/>
			<point x="459" y="720"/>
			<point x="443" y="699" type="curve" smooth="yes"/>
			<point x="400" y="641"/>
			<point x="362" y="579"/>
			<point x="318" y="519" type="curve" smooth="yes"/>
			<point x="256" y="434"/>
			<point x="184" y="331"/>
			<point x="155" y="247" type="curve"/>
			<point x="161" y="400"/>
			<point x="177" y="551"/>
			<point x="177" y="703" type="curve" smooth="yes"/>
			<point x="177" y="731"/>
			<point x="155" y="753"/>
			<point x="128" y="753" type="curve" smooth="yes"/>
			<point x="100" y="753"/>
			<point x="76" y="734"/>
		</contour>
	</outline>
	<anchor name="bottomAttach" x="514" y="0"/>
	<anchor name="top" x="286" y="725"/>
	<anchor name="bottom" x="514" y="0"/>
</glyph>
<glyph name="L" format="2">
	<unicode hex="004C"/>
	<advance width="529"/>
	<outline>
		<contour>
			<point x="106" y="673" type="curve" smooth="yes"/>
			<point x="106" y="473"/>
			<point x="64" y="281"/>
			<point x="64" y="81" type="curve" smooth="yes"/>
			<point x="64" y="22"/>
			<point x="72" y="-2"/>
			<point x="113" y="-13" type="curve"/>
			<point x="146" y="-18"/>
			<point x="179" y="-20"/>
			<point x="212" y="-20" type="curve" smooth="yes"/>
			<point x="285" y="-20"/>
			<point x="402" y="-6"/>
			<point x="463" y="-6" type="curve" smooth="yes"/>
			<point x="496" y="-6"/>
			<point x="517" y="16"/>
			<point x="517" y="44" type="curve" smooth="yes"/>
			<point x="517" y="72"/>
			<point x="496" y="94"/>
			<point x="463" y="94" type="curve" smooth="yes"/>
			<point x="396" y="94"/>
			<point x="289" y="80"/>
			<point x="203" y="80" type="curve" smooth="yes"/>
			<point x="190" y="80"/>
			<point x="178" y="80"/>
			<point x="166" y="81" type="curve"/>
			<point x="171" y="279"/>
			<point x="206" y="474"/>
			<point x="206" y="671" type="curve" smooth="yes"/>
			<point x="206" y="704"/>
			<point x="179" y="721"/>
			<point x="157" y="721" type="curve" smooth="yes"/>
			<point x="131" y="721"/>
			<point x="106" y="703"/>
		</contour>
	</outline>
	<anchor name="top" x="157" y="725"/>
	<anchor name="bottomAttach" x="212" y="0"/>
	<anchor name="bottom" x="212" y="0"/>
</glyph>
<glyph name="M" format="2">
	<unicode hex="004D"/>
	<advance width="727"/>
	<outline>
		<contour>
			<point x="125" y="-2" type="curve" smooth="yes"/>
			<point x="133" y="187"/>
			<point x="197" y="300"/>
			<point x="229" y="394" type="curve"/>
			<point x="244" y="264"/>
			<point x="272" y="165"/>
			<point x="304" y="129" type="curve" smooth="yes"/>
			<point x="318" y="112"/>
			<point x="330" y="108"/>
			<point x="345" y="108" type="curve" smooth="yes"/>
			<point x="371" y="108"/>
			<point x="388" y="124"/>
			<point x="415" y="169" type="curve" smooth="yes"/>
			<point x="447" y="221"/>
			<point x="480" y="300"/>
			<point x="511" y="384" type="curve"/>
			<point x="521" y="247"/>
			<point x="545" y="77"/>
			<point x="567" y="4" type="curve" smooth="yes"/>
			<point x="576" y="-24"/>
			<point x="598" y="-38"/>
			<point x="618" y="-38" type="curve" smooth="yes"/>
			<point x="645" y="-38"/>
			<point x="667" y="-16"/>
			<point x="667" y="12" type="curve" smooth="yes"/>
			<point x="667" y="41"/>
			<point x="651" y="89"/>
			<point x="642" y="150" type="curve" smooth="yes"/>
			<point x="616" y="323"/>
			<point x="604" y="496"/>
			<point x="598" y="668" type="curve" smooth="yes"/>
			<point x="596" y="709"/>
			<point x="566" y="728"/>
			<point x="542" y="728" type="curve" smooth="yes"/>
			<point x="474" y="728"/>
			<point x="470" y="636"/>
			<point x="449" y="542" type="curve" smooth="yes"/>
			<point x="429" y="449"/>
			<point x="398" y="355"/>
			<point x="354" y="268" type="curve"/>
			<point x="316" y="394"/>
			<point x="316" y="549"/>
			<point x="299" y="674" type="curve" smooth="yes"/>
			<point x="295" y="702"/>
			<point x="279" y="724"/>
			<point x="251" y="724" type="curve" smooth="yes"/>
			<point x="223" y="724"/>
			<point x="203" y="704"/>
			<point x="200" y="682" type="curve" smooth="yes"/>
			<point x="176" y="476"/>
			<point x="25" y="255"/>
			<point x="25" y="6" type="curve" smooth="yes"/>
			<point x="25" y="-32"/>
			<point x="49" y="-52"/>
			<point x="74" y="-52" type="curve" smooth="yes"/>
			<point x="97" y="-52"/>
			<point x="124" y="-36"/>
		</contour>
	</outline>
	<anchor name="top" x="379" y="725"/>
	<anchor name="bottom" x="74" y="0"/>
</glyph>
<glyph name="N" format="2">
	<unicode hex="004E"/>
	<advance width="678"/>
	<outline>
		<contour>
			<point x="67" y="677" type="curve" smooth="yes"/>
			<point x="67" y="658"/>
			<point x="86" y="630"/>
			<point x="98" y="610" type="curve"/>
			<point x="93" y="418"/>
			<point x="79" y="225"/>
			<point x="77" y="33" type="curve" smooth="yes"/>
			<point x="77" y="-5"/>
			<point x="101" y="-25"/>
			<point x="126" y="-25" type="curve" smooth="yes"/>
			<point x="152" y="-25"/>
			<point x="177" y="-9"/>
			<point x="177" y="25" type="curve" smooth="yes"/>
			<point x="177" y="166"/>
			<point x="187" y="307"/>
			<point x="193" y="449" type="curve"/>
			<point x="255" y="309"/>
			<point x="303" y="170"/>
			<point x="406" y="52" type="curve"/>
			<point x="435" y="12"/>
			<point x="476" y="-34"/>
			<point x="512" y="-34" type="curve" smooth="yes"/>
			<point x="561" y="-34"/>
			<point x="572" y="22"/>
			<point x="583" y="113" type="curve" smooth="yes"/>
			<point x="594" y="207"/>
			<point x="594" y="238"/>
			<point x="594" y="385" type="curve" smooth="yes"/>
			<point x="594" y="479"/>
			<point x="590" y="552"/>
			<point x="586" y="647" type="curve" smooth="yes"/>
			<point x="586" y="656"/>
			<point x="586" y="665"/>
			<point x="585" y="674" type="curve" smooth="yes"/>
			<point x="583" y="702"/>
			<point x="562" y="721"/>
			<point x="535" y="721" type="curve" smooth="yes"/>
			<point x="508" y="721"/>
			<point x="485" y="697"/>
			<point x="485" y="662" type="curve"/>
			<point x="494" y="515"/>
			<point x="495" y="440"/>
			<point x="495" y="273" type="curve" smooth="yes"/>
			<point x="495" y="220"/>
			<point x="494" y="165"/>
			<point x="483" y="114" type="curve"/>
			<point x="458" y="148"/>
			<point x="433" y="181"/>
			<point x="411" y="218" type="curve" smooth="yes"/>
			<point x="330" y="356"/>
			<point x="293" y="518"/>
			<point x="199" y="639" type="curve"/>
			<point x="200" y="651"/>
			<point x="200" y="667"/>
			<point x="200" y="682" type="curve" smooth="yes"/>
			<point x="200" y="715"/>
			<point x="173" y="732"/>
			<point x="150" y="732" type="curve" smooth="yes"/>
			<point x="145" y="732"/>
			<point x="139" y="731"/>
			<point x="134" y="729" type="curve"/>
			<point x="127" y="732"/>
			<point x="120" y="733"/>
			<point x="114" y="733" type="curve" smooth="yes"/>
			<point x="89" y="733"/>
			<point x="67" y="717"/>
		</contour>
	</outline>
	<anchor name="top" x="323" y="725"/>
	<anchor name="bottomAttach" x="512" y="0"/>
	<anchor name="bottom" x="512" y="0"/>
</glyph>
<glyph name="P" format="2">
	<unicode hex="0050"/>
	<advance width="597"/>
	<outline>
		<contour>
			<point x="48" y="40" type="curve"/>
			<point x="47" y="36"/>
			<point x="47" y="33"/>
			<point x="47" y="29" type="curve" smooth="yes"/>
			<point x="47" y="-9"/>
			<point x="71" y="-29"/>
			<point x="96" y="-29" type="curve" smooth="yes"/>
			<point x="119" y="-29"/>
			<point x="142" y="-13"/>
			<point x="147" y="21" type="curve"/>
			<point x="156" y="55"/>
			<point x="162" y="154"/>
			<point x="171" y="217" type="curve" smooth="yes"/>
			<point x="174" y="239"/>
			<point x="177" y="262"/>
			<point x="179" y="286" type="curve"/>
			<point x="204" y="286"/>
			<point x="230" y="284"/>
			<point x="256" y="284" type="curve" smooth="yes"/>
			<point x="385" y="284"/>
			<point x="569" y="365"/>
			<point x="569" y="552" type="curve" smooth="yes"/>
			<point x="569" y="685"/>
			<point x="423" y="740"/>
			<point x="316" y="740" type="curve" smooth="yes"/>
			<point x="263" y="740"/>
			<point x="212" y="725"/>
			<point x="175" y="690" type="curve"/>
			<point x="170" y="708"/>
			<point x="156" y="735"/>
			<point x="129" y="735" type="curve" smooth="yes"/>
			<point x="96" y="735"/>
			<point x="76" y="712"/>
			<point x="76" y="687" type="curve" smooth="yes"/>
			<point x="76" y="684"/>
			<point x="76" y="680"/>
			<point x="77" y="677" type="curve"/>
			<point x="66" y="465"/>
			<point x="61" y="253"/>
		</contour>
		<contour>
			<point x="205" y="524" type="curve" smooth="yes"/>
			<point x="217" y="579"/>
			<point x="232" y="642"/>
			<point x="321" y="642" type="curve" smooth="yes"/>
			<point x="392" y="642"/>
			<point x="465" y="617"/>
			<point x="465" y="551" type="curve" smooth="yes"/>
			<point x="465" y="444"/>
			<point x="354" y="383"/>
			<point x="261" y="383" type="curve" smooth="yes"/>
			<point x="236" y="383"/>
			<point x="210" y="385"/>
			<point x="186" y="386" type="curve"/>
			<point x="189" y="433"/>
			<point x="195" y="480"/>
		</contour>
	</outline>
	<anchor name="top" x="316" y="725"/>
</glyph>
<glyph name="Q" format="2">
	<unicode hex="0051"/>
	<advance width="638"/>
	<outline>
		<contour>
			<point x="264" y="225" type="curve" smooth="yes"/>
			<point x="264" y="195"/>
			<point x="288" y="160"/>
			<point x="308" y="133" type="curve"/>
			<point x="285" y="125"/>
			<point x="263" y="121"/>
			<point x="242" y="121" type="curve" smooth="yes"/>
			<point x="150" y="121"/>
			<point x="137" y="211"/>
			<point x="137" y="289" type="curve" smooth="yes"/>
			<point x="137" y="370"/>
			<point x="158" y="453"/>
			<point x="214" y="528" type="curve" smooth="yes"/>
			<point x="259" y="588"/>
			<point x="333" y="635"/>
			<point x="404" y="635" type="curve" smooth="yes"/>
			<point x="428" y="635"/>
			<point x="451" y="628"/>
			<point x="472" y="619" type="curve"/>
			<point x="483" y="599"/>
			<point x="501" y="590"/>
			<point x="518" y="590" type="curve" smooth="yes"/>
			<point x="542" y="590"/>
			<point x="565" y="609"/>
			<point x="565" y="643" type="curve" smooth="yes"/>
			<point x="565" y="673"/>
			<point x="542" y="700"/>
			<point x="510" y="714" type="curve" smooth="yes"/>
			<point x="472" y="731"/>
			<point x="445" y="733"/>
			<point x="395" y="733" type="curve" smooth="yes"/>
			<point x="280" y="733"/>
			<point x="209" y="671"/>
			<point x="150" y="603" type="curve" smooth="yes"/>
			<point x="62" y="501"/>
			<point x="38" y="377"/>
			<point x="38" y="289" type="curve" smooth="yes"/>
			<point x="38" y="100"/>
			<point x="113" y="23"/>
			<point x="235" y="23" type="curve" smooth="yes"/>
			<point x="282" y="23"/>
			<point x="333" y="35"/>
			<point x="380" y="55" type="curve"/>
			<point x="433" y="8"/>
			<point x="527" y="-42"/>
			<point x="569" y="-42" type="curve" smooth="yes"/>
			<point x="600" y="-42"/>
			<point x="620" y="-19"/>
			<point x="620" y="5" type="curve" smooth="yes"/>
			<point x="620" y="24"/>
			<point x="609" y="44"/>
			<point x="582" y="53" type="curve" smooth="yes"/>
			<point x="552" y="63"/>
			<point x="510" y="82"/>
			<point x="473" y="109" type="curve"/>
			<point x="544" y="165"/>
			<point x="595" y="267"/>
			<point x="595" y="369" type="curve" smooth="yes"/>
			<point x="595" y="422"/>
			<point x="581" y="473"/>
			<point x="548" y="513" type="curve" smooth="yes"/>
			<point x="528" y="537"/>
			<point x="510" y="565"/>
			<point x="480" y="565" type="curve" smooth="yes"/>
			<point x="456" y="565"/>
			<point x="434" y="546"/>
			<point x="434" y="517" type="curve" smooth="yes"/>
			<point x="434" y="473"/>
			<point x="475" y="457"/>
			<point x="487" y="420" type="curve" smooth="yes"/>
			<point x="492" y="404"/>
			<point x="495" y="387"/>
			<point x="495" y="370" type="curve" smooth="yes"/>
			<point x="495" y="294"/>
			<point x="459" y="222"/>
			<point x="398" y="177" type="curve"/>
			<point x="380" y="198"/>
			<point x="368" y="222"/>
			<point x="359" y="241" type="curve" smooth="yes"/>
			<point x="347" y="266"/>
			<point x="329" y="275"/>
			<point x="311" y="275" type="curve" smooth="yes"/>
			<point x="287" y="275"/>
			<point x="264" y="259"/>
		</contour>
	</outline>
</glyph>
<glyph name="R" format="2">
	<unicode hex="0052"/>
	<advance width="645"/>
	<outline>
		<contour>
			<point x="82" y="676" type="curve" smooth="yes"/>
			<point x="82" y="553"/>
			<point x="77" y="431"/>
			<point x="77" y="308" type="curve" smooth="yes"/>
			<point x="77" y="260"/>
			<point x="78" y="212"/>
			<point x="80" y="165" type="curve"/>
			<point x="78" y="136" type="line" smooth="yes"/>
			<point x="76" y="100"/>
			<point x="76" y="74"/>
			<point x="76" y="40" type="curve" smooth="yes"/>
			<point x="76" y="-1"/>
			<point x="95" y="-20"/>
			<point x="128" y="-20" type="curve" smooth="yes"/>
			<point x="156" y="-20"/>
			<point x="177" y="1"/>
			<point x="177" y="32" type="curve" smooth="yes"/>
			<point x="177" y="84" type="line" smooth="yes"/>
			<point x="177" y="110"/>
			<point x="178" y="134"/>
			<point x="180" y="158" type="curve"/>
			<point x="195" y="254" type="line"/>
			<point x="207" y="351"/>
			<point x="211" y="460"/>
			<point x="248" y="551" type="curve" smooth="yes"/>
			<point x="270" y="605"/>
			<point x="308" y="632"/>
			<point x="408" y="632" type="curve" smooth="yes"/>
			<point x="445" y="632"/>
			<point x="479" y="625"/>
			<point x="496" y="608" type="curve" smooth="yes"/>
			<point x="500" y="604"/>
			<point x="503" y="587"/>
			<point x="503" y="569" type="curve" smooth="yes"/>
			<point x="503" y="513"/>
			<point x="474" y="471"/>
			<point x="432" y="438" type="curve" smooth="yes"/>
			<point x="388" y="404"/>
			<point x="324" y="394"/>
			<point x="293" y="394" type="curve" smooth="yes"/>
			<point x="247" y="394"/>
			<point x="229" y="370"/>
			<point x="229" y="343" type="curve" smooth="yes"/>
			<point x="229" y="321"/>
			<point x="238" y="303"/>
			<point x="256" y="294" type="curve"/>
			<point x="317" y="193"/>
			<point x="429" y="17"/>
			<point x="547" y="-26" type="curve" smooth="yes"/>
			<point x="554" y="-28"/>
			<point x="560" y="-29"/>
			<point x="566" y="-29" type="curve" smooth="yes"/>
			<point x="597" y="-29"/>
			<point x="617" y="-6"/>
			<point x="617" y="18" type="curve" smooth="yes"/>
			<point x="617" y="37"/>
			<point x="604" y="56"/>
			<point x="579" y="68" type="curve"/>
			<point x="491" y="115"/>
			<point x="426" y="210"/>
			<point x="366" y="305" type="curve"/>
			<point x="426" y="313"/>
			<point x="489" y="356"/>
			<point x="522" y="388" type="curve" smooth="yes"/>
			<point x="571" y="435"/>
			<point x="603" y="506"/>
			<point x="603" y="571" type="curve" smooth="yes"/>
			<point x="603" y="663"/>
			<point x="547" y="731"/>
			<point x="391" y="731" type="curve" smooth="yes"/>
			<point x="284" y="731"/>
			<point x="221" y="692"/>
			<point x="182" y="633" type="curve"/>
			<point x="182" y="684" type="line" smooth="yes"/>
			<point x="182" y="718"/>
			<point x="154" y="734"/>
			<point x="131" y="734" type="curve" smooth="yes"/>
			<point x="106" y="734"/>
			<point x="82" y="714"/>
		</contour>
	</outline>
	<anchor name="top" x="365" y="730"/>
	<anchor name="bottomAttach" x="566" y="0"/>
	<anchor name="bottom" x="566" y="0"/>
</glyph>
<glyph name="S" format="2">
	<unicode hex="0053"/>
	<advance width="541"/>
	<outline>
		<contour>
			<point x="444" y="683" type="curve" smooth="yes"/>
			<point x="410" y="719"/>
			<point x="349" y="731"/>
			<point x="291" y="731" type="curve" smooth="yes"/>
			<point x="193" y="731"/>
			<point x="74" y="712"/>
			<point x="74" y="589" type="curve" smooth="yes"/>
			<point x="74" y="480"/>
			<point x="191" y="404"/>
			<point x="257" y="347" type="curve" smooth="yes"/>
			<point x="331" y="284"/>
			<point x="380" y="229"/>
			<point x="380" y="172" type="curve" smooth="yes"/>
			<point x="380" y="97"/>
			<point x="337" y="67"/>
			<point x="261" y="67" type="curve" smooth="yes"/>
			<point x="210" y="67"/>
			<point x="157" y="86"/>
			<point x="135" y="136" type="curve" smooth="yes"/>
			<point x="129" y="149"/>
			<point x="128" y="160"/>
			<point x="123" y="173" type="curve" smooth="yes"/>
			<point x="115" y="194"/>
			<point x="98" y="204"/>
			<point x="74" y="204" type="curve" smooth="yes"/>
			<point x="47" y="204"/>
			<point x="28" y="186"/>
			<point x="28" y="151" type="curve" smooth="yes"/>
			<point x="28" y="70"/>
			<point x="105" y="-36"/>
			<point x="271" y="-36" type="curve" smooth="yes"/>
			<point x="415" y="-36"/>
			<point x="488" y="57"/>
			<point x="488" y="168" type="curve" smooth="yes"/>
			<point x="488" y="231"/>
			<point x="465" y="284"/>
			<point x="412" y="344" type="curve" smooth="yes"/>
			<point x="384" y="375"/>
			<point x="321" y="429"/>
			<point x="268" y="474" type="curve" smooth="yes"/>
			<point x="220" y="515"/>
			<point x="180" y="549"/>
			<point x="180" y="596" type="curve" smooth="yes"/>
			<point x="180" y="627"/>
			<point x="229" y="640"/>
			<point x="278" y="640" type="curve" smooth="yes"/>
			<point x="336" y="640"/>
			<point x="364" y="624"/>
			<point x="383" y="598" type="curve" smooth="yes"/>
			<point x="394" y="583"/>
			<point x="411" y="579"/>
			<point x="424" y="579" type="curve" smooth="yes"/>
			<point x="449" y="579"/>
			<point x="470" y="599"/>
			<point x="470" y="628" type="curve" smooth="yes"/>
			<point x="470" y="654"/>
			<point x="457" y="669"/>
		</contour>
	</outline>
	<anchor name="top" x="291" y="725"/>
	<anchor name="bottomAttach" x="269" y="-19"/>
	<anchor name="bottom" x="271" y="-17"/>
</glyph>
<glyph name="T" format="2">
	<unicode hex="0054"/>
	<advance width="599"/>
	<outline>
		<contour>
			<point x="55" y="590" type="curve" smooth="yes"/>
			<point x="113" y="590"/>
			<point x="175" y="602"/>
			<point x="237" y="610" type="curve"/>
			<point x="234" y="410"/>
			<point x="219" y="248"/>
			<point x="216" y="49" type="curve" smooth="yes"/>
			<point x="216" y="11"/>
			<point x="240" y="-9"/>
			<point x="265" y="-9" type="curve" smooth="yes"/>
			<point x="291" y="-9"/>
			<point x="316" y="6"/>
			<point x="316" y="44" type="curve" smooth="yes"/>
			<point x="316" y="248"/>
			<point x="333" y="412"/>
			<point x="337" y="617" type="curve"/>
			<point x="379" y="617"/>
			<point x="422" y="616"/>
			<point x="463" y="609" type="curve" smooth="yes"/>
			<point x="488" y="605"/>
			<point x="511" y="594"/>
			<point x="537" y="594" type="curve" smooth="yes"/>
			<point x="572" y="594"/>
			<point x="591" y="620"/>
			<point x="591" y="644" type="curve" smooth="yes"/>
			<point x="591" y="665"/>
			<point x="578" y="693"/>
			<point x="542" y="693" type="curve" smooth="yes"/>
			<point x="537" y="693"/>
			<point x="511" y="700"/>
			<point x="491" y="705" type="curve" smooth="yes"/>
			<point x="450" y="715"/>
			<point x="400" y="716"/>
			<point x="360" y="716" type="curve" smooth="yes"/>
			<point x="256" y="716"/>
			<point x="144" y="690"/>
			<point x="57" y="690" type="curve" smooth="yes"/>
			<point x="19" y="690"/>
			<point x="6" y="661"/>
			<point x="6" y="640" type="curve" smooth="yes"/>
			<point x="6" y="619"/>
			<point x="19" y="590"/>
		</contour>
	</outline>
	<anchor name="top" x="287" y="724"/>
	<anchor name="bottomAttach" x="265" y="0"/>
	<anchor name="bottom" x="265" y="0"/>
	<anchor name="half_top" x="285" y="500"/>
</glyph>
<glyph name="U" format="2">
	<unicode hex="0055"/>
	<advance width="605"/>
	<outline>
		<contour>
			<point x="86" y="672" type="curve" smooth="yes"/>
			<point x="64" y="575"/>
			<point x="41" y="459"/>
			<point x="41" y="353" type="curve" smooth="yes"/>
			<point x="41" y="280"/>
			<point x="48" y="219"/>
			<point x="68" y="148" type="curve" smooth="yes"/>
			<point x="96" y="50"/>
			<point x="154" y="-11"/>
			<point x="223" y="-11" type="curve" smooth="yes"/>
			<point x="310" y="-11"/>
			<point x="362" y="30"/>
			<point x="400" y="124" type="curve"/>
			<point x="419" y="29"/>
			<point x="465" y="-25"/>
			<point x="526" y="-25" type="curve" smooth="yes"/>
			<point x="556" y="-25"/>
			<point x="577" y="-6"/>
			<point x="577" y="24" type="curve" smooth="yes"/>
			<point x="577" y="48"/>
			<point x="565" y="73"/>
			<point x="528" y="78" type="curve"/>
			<point x="517" y="86"/>
			<point x="506" y="107"/>
			<point x="502" y="123" type="curve" smooth="yes"/>
			<point x="494" y="154"/>
			<point x="489" y="218"/>
			<point x="489" y="281" type="curve" smooth="yes"/>
			<point x="489" y="300"/>
			<point x="489" y="319"/>
			<point x="490" y="337" type="curve" smooth="yes"/>
			<point x="491" y="361"/>
			<point x="495" y="448"/>
			<point x="502" y="530" type="curve"/>
			<point x="510" y="575"/>
			<point x="516" y="616"/>
			<point x="516" y="656" type="curve" smooth="yes"/>
			<point x="516" y="689"/>
			<point x="494" y="709"/>
			<point x="468" y="709" type="curve" smooth="yes"/>
			<point x="433" y="709"/>
			<point x="420" y="689"/>
			<point x="417" y="667" type="curve" smooth="yes"/>
			<point x="416" y="660"/>
			<point x="415" y="645"/>
			<point x="415" y="635" type="curve"/>
			<point x="405" y="539"/>
			<point x="374" y="285"/>
			<point x="320" y="170" type="curve" smooth="yes"/>
			<point x="305" y="138"/>
			<point x="280" y="89"/>
			<point x="239" y="89" type="curve" smooth="yes"/>
			<point x="167" y="89"/>
			<point x="139" y="249"/>
			<point x="139" y="343" type="curve" smooth="yes"/>
			<point x="139" y="415"/>
			<point x="148" y="474"/>
			<point x="159" y="535" type="curve" smooth="yes"/>
			<point x="167" y="580"/>
			<point x="186" y="638"/>
			<point x="186" y="668" type="curve" smooth="yes"/>
			<point x="186" y="696"/>
			<point x="166" y="718"/>
			<point x="137" y="718" type="curve" smooth="yes"/>
			<point x="107" y="718"/>
			<point x="92" y="697"/>
		</contour>
	</outline>
	<anchor name="top" x="299" y="725"/>
	<anchor name="topRightAttach" x="469" y="725"/>
	<anchor name="bottom" x="526" y="0"/>
	<anchor name="bottomAttach" x="526" y="0"/>
</glyph>
<glyph name="V" format="2">
	<unicode hex="0056"/>
	<advance width="716"/>
	<outline>
		<contour>
			<point x="37" y="633" type="curve" smooth="yes"/>
			<point x="101" y="501"/>
			<point x="148" y="327"/>
			<point x="184" y="185" type="curve" smooth="yes"/>
			<point x="201" y="116"/>
			<point x="211" y="-24"/>
			<point x="284" y="-24" type="curve" smooth="yes"/>
			<point x="314" y="-24"/>
			<point x="330" y="-1"/>
			<point x="336" y="23" type="curve"/>
			<point x="359" y="46"/>
			<point x="372" y="81"/>
			<point x="386" y="108" type="curve" smooth="yes"/>
			<point x="418" y="173"/>
			<point x="448" y="238"/>
			<point x="483" y="301" type="curve" smooth="yes"/>
			<point x="551" y="424"/>
			<point x="644" y="522"/>
			<point x="707" y="649" type="curve" smooth="yes"/>
			<point x="710" y="655"/>
			<point x="712" y="662"/>
			<point x="712" y="669" type="curve" smooth="yes"/>
			<point x="712" y="701"/>
			<point x="690" y="721"/>
			<point x="665" y="721" type="curve" smooth="yes"/>
			<point x="649" y="721"/>
			<point x="628" y="715"/>
			<point x="617" y="691" type="curve" smooth="yes"/>
			<point x="571" y="595"/>
			<point x="504" y="521"/>
			<point x="447" y="434" type="curve" smooth="yes"/>
			<point x="388" y="343"/>
			<point x="343" y="245"/>
			<point x="295" y="149" type="curve"/>
			<point x="291" y="169"/>
			<point x="286" y="189"/>
			<point x="281" y="209" type="curve" smooth="yes"/>
			<point x="243" y="354"/>
			<point x="192" y="543"/>
			<point x="126" y="677" type="curve" smooth="yes"/>
			<point x="114" y="701"/>
			<point x="93" y="711"/>
			<point x="76" y="711" type="curve" smooth="yes"/>
			<point x="52" y="711"/>
			<point x="30" y="695"/>
			<point x="30" y="665" type="curve" smooth="yes"/>
			<point x="30" y="655"/>
			<point x="31" y="644"/>
		</contour>
	</outline>
	<anchor name="top" x="363" y="725"/>
	<anchor name="bottom" x="284" y="0"/>
</glyph>
<glyph name="W" format="2">
	<unicode hex="0057"/>
	<advance width="839"/>
	<outline>
		<contour>
			<point x="39" y="541" type="curve" smooth="yes"/>
			<point x="39" y="493"/>
			<point x="65" y="395"/>
			<point x="100" y="255" type="curve" smooth="yes"/>
			<point x="119" y="178"/>
			<point x="143" y="99"/>
			<point x="153" y="77" type="curve" smooth="yes"/>
			<point x="163" y="56"/>
			<point x="174" y="46"/>
			<point x="201" y="46" type="curve" smooth="yes"/>
			<point x="243" y="46"/>
			<point x="248" y="76"/>
			<point x="260" y="95" type="curve" smooth="yes"/>
			<point x="284" y="134"/>
			<point x="328" y="203"/>
			<point x="361" y="265" type="curve"/>
			<point x="402" y="209"/>
			<point x="430" y="119"/>
			<point x="447" y="41" type="curve" smooth="yes"/>
			<point x="457" y="-3"/>
			<point x="475" y="-25"/>
			<point x="505" y="-25" type="curve" smooth="yes"/>
			<point x="542" y="-25"/>
			<point x="569" y="19"/>
			<point x="592" y="47" type="curve" smooth="yes"/>
			<point x="641" y="106"/>
			<point x="691" y="186"/>
			<point x="727" y="276" type="curve" smooth="yes"/>
			<point x="776" y="398"/>
			<point x="803" y="537"/>
			<point x="803" y="664" type="curve" smooth="yes"/>
			<point x="803" y="694"/>
			<point x="781" y="714"/>
			<point x="754" y="714" type="curve" smooth="yes"/>
			<point x="726" y="714"/>
			<point x="704" y="693"/>
			<point x="703" y="665" type="curve" smooth="yes"/>
			<point x="693" y="436"/>
			<point x="646" y="282"/>
			<point x="525" y="116" type="curve"/>
			<point x="504" y="226"/>
			<point x="458" y="329"/>
			<point x="401" y="404" type="curve"/>
			<point x="392" y="420"/>
			<point x="377" y="426"/>
			<point x="360" y="426" type="curve" smooth="yes"/>
			<point x="309" y="426"/>
			<point x="299" y="365"/>
			<point x="282" y="330" type="curve" smooth="yes"/>
			<point x="263" y="291"/>
			<point x="241" y="252"/>
			<point x="218" y="214" type="curve"/>
			<point x="182" y="332"/>
			<point x="155" y="435"/>
			<point x="140" y="540" type="curve" smooth="yes"/>
			<point x="134" y="580"/>
			<point x="119" y="599"/>
			<point x="88" y="599" type="curve" smooth="yes"/>
			<point x="63" y="599"/>
			<point x="39" y="584"/>
		</contour>
	</outline>
	<anchor name="top" x="384" y="693"/>
	<anchor name="bottom" x="347" y="0"/>
</glyph>
<glyph name="X" format="2">
	<unicode hex="0058"/>
	<advance width="724"/>
	<outline>
		<contour>
			<point x="101" y="588" type="curve" smooth="yes"/>
			<point x="172" y="494"/>
			<point x="218" y="456"/>
			<point x="288" y="361" type="curve"/>
			<point x="203" y="282" type="line" smooth="yes"/>
			<point x="126" y="210"/>
			<point x="94" y="176"/>
			<point x="35" y="88" type="curve" smooth="yes"/>
			<point x="29" y="79"/>
			<point x="26" y="69"/>
			<point x="26" y="56" type="curve" smooth="yes"/>
			<point x="26" y="28"/>
			<point x="46" y="8"/>
			<point x="71" y="8" type="curve" smooth="yes"/>
			<point x="85" y="8"/>
			<point x="104" y="12"/>
			<point x="115" y="30" type="curve" smooth="yes"/>
			<point x="191" y="144"/>
			<point x="265" y="202"/>
			<point x="353" y="285" type="curve"/>
			<point x="434" y="184"/>
			<point x="534" y="73"/>
			<point x="628" y="13" type="curve" smooth="yes"/>
			<point x="636" y="8"/>
			<point x="649" y="6"/>
			<point x="659" y="6" type="curve" smooth="yes"/>
			<point x="683" y="6"/>
			<point x="702" y="27"/>
			<point x="702" y="52" type="curve" smooth="yes"/>
			<point x="702" y="69"/>
			<point x="696" y="87"/>
			<point x="676" y="101" type="curve" smooth="yes"/>
			<point x="596" y="154"/>
			<point x="504" y="257"/>
			<point x="426" y="352" type="curve"/>
			<point x="522" y="439"/>
			<point x="615" y="524"/>
			<point x="701" y="620" type="curve" smooth="yes"/>
			<point x="710" y="630"/>
			<point x="714" y="641"/>
			<point x="714" y="656" type="curve" smooth="yes"/>
			<point x="714" y="683"/>
			<point x="693" y="703"/>
			<point x="666" y="703" type="curve" smooth="yes"/>
			<point x="654" y="703"/>
			<point x="637" y="698"/>
			<point x="626" y="685" type="curve" smooth="yes"/>
			<point x="545" y="589"/>
			<point x="457" y="514"/>
			<point x="362" y="428" type="curve"/>
			<point x="305" y="505"/>
			<point x="231" y="579"/>
			<point x="176" y="651" type="curve" smooth="yes"/>
			<point x="165" y="665"/>
			<point x="153" y="679"/>
			<point x="131" y="679" type="curve" smooth="yes"/>
			<point x="106" y="679"/>
			<point x="86" y="659"/>
			<point x="86" y="629" type="curve" smooth="yes"/>
			<point x="86" y="614"/>
			<point x="93" y="599"/>
		</contour>
	</outline>
	<anchor name="top" x="367" y="724"/>
</glyph>
<glyph name="Y" format="2">
	<unicode hex="0059"/>
	<advance width="657"/>
	<outline>
		<contour>
			<point x="27" y="674" type="curve" smooth="yes"/>
			<point x="59" y="570"/>
			<point x="143" y="396"/>
			<point x="242" y="329" type="curve"/>
			<point x="233" y="229"/>
			<point x="209" y="112"/>
			<point x="209" y="29" type="curve" smooth="yes"/>
			<point x="209" y="-9"/>
			<point x="233" y="-29"/>
			<point x="258" y="-29" type="curve" smooth="yes"/>
			<point x="281" y="-29"/>
			<point x="309" y="-13"/>
			<point x="309" y="21" type="curve" smooth="yes"/>
			<point x="309" y="108"/>
			<point x="335" y="230"/>
			<point x="343" y="334" type="curve"/>
			<point x="399" y="369"/>
			<point x="464" y="420"/>
			<point x="503" y="471" type="curve" smooth="yes"/>
			<point x="533" y="509"/>
			<point x="556" y="551"/>
			<point x="583" y="591" type="curve" smooth="yes"/>
			<point x="604" y="622"/>
			<point x="646" y="643"/>
			<point x="646" y="678" type="curve" smooth="yes"/>
			<point x="646" y="702"/>
			<point x="630" y="730"/>
			<point x="599" y="730" type="curve" smooth="yes"/>
			<point x="581" y="730"/>
			<point x="560" y="715"/>
			<point x="544" y="702" type="curve" smooth="yes"/>
			<point x="491" y="659"/>
			<point x="467" y="586"/>
			<point x="425" y="533" type="curve" smooth="yes"/>
			<point x="391" y="491"/>
			<point x="346" y="462"/>
			<point x="304" y="430" type="curve"/>
			<point x="293" y="430"/>
			<point x="287" y="429"/>
			<point x="282" y="428" type="curve"/>
			<point x="206" y="507"/>
			<point x="157" y="588"/>
			<point x="124" y="698" type="curve" smooth="yes"/>
			<point x="116" y="724"/>
			<point x="95" y="739"/>
			<point x="72" y="739" type="curve" smooth="yes"/>
			<point x="46" y="739"/>
			<point x="25" y="719"/>
			<point x="25" y="694" type="curve" smooth="yes"/>
			<point x="25" y="688"/>
			<point x="25" y="680"/>
		</contour>
	</outline>
	<anchor name="top" x="307" y="725"/>
	<anchor name="bottom" x="258" y="0"/>
</glyph>
<glyph name="Z" format="2">
	<unicode hex="005A"/>
	<advance width="687"/>
	<outline>
		<contour>
			<point name="hr00" x="236" y="316" type="line"/>
			<point x="209" y="269"/>
			<point x="182" y="221"/>
			<point x="153" y="176" type="curve" smooth="yes"/>
			<point x="135" y="148"/>
			<point x="117" y="117"/>
			<point x="95" y="92" type="curve" smooth="yes"/>
			<point x="81" y="76"/>
			<point x="66" y="65"/>
			<point x="66" y="38" type="curve" smooth="yes"/>
			<point x="66" y="-14"/>
			<point x="128" y="-17"/>
			<point x="185" y="-17" type="curve" smooth="yes"/>
			<point x="259" y="-17"/>
			<point x="343" y="-11"/>
			<point x="429" y="-8" type="curve" smooth="yes"/>
			<point x="494" y="-6"/>
			<point x="579" y="-2"/>
			<point x="623" y="-2" type="curve" smooth="yes"/>
			<point x="656" y="-2"/>
			<point x="677" y="25"/>
			<point x="677" y="48" type="curve" smooth="yes"/>
			<point x="677" y="71"/>
			<point x="659" y="98"/>
			<point x="623" y="98" type="curve" smooth="yes"/>
			<point x="560" y="98"/>
			<point x="379" y="88"/>
			<point x="211" y="83" type="curve"/>
			<point x="220" y="96" type="line" smooth="yes"/>
			<point x="246" y="138"/>
			<point x="272" y="177"/>
			<point x="294" y="219" type="curve" smooth="yes"/>
			<point x="312" y="253"/>
			<point x="334" y="289"/>
			<point x="351" y="321" type="curve"/>
			<point x="410" y="424" type="line"/>
			<point x="511" y="596" type="line" smooth="yes"/>
			<point x="524" y="617"/>
			<point x="546" y="639"/>
			<point x="546" y="664" type="curve" smooth="yes"/>
			<point x="546" y="701"/>
			<point x="516" y="718"/>
			<point x="490" y="718" type="curve" smooth="yes"/>
			<point x="485" y="718"/>
			<point x="479" y="717"/>
			<point x="474" y="717" type="curve" smooth="yes"/>
			<point x="345" y="719"/>
			<point x="218" y="721"/>
			<point x="87" y="721" type="curve" smooth="yes"/>
			<point x="59" y="721"/>
			<point x="37" y="695"/>
			<point x="37" y="671" type="curve" smooth="yes"/>
			<point x="37" y="647"/>
			<point x="57" y="621"/>
			<point x="87" y="621" type="curve" smooth="yes"/>
			<point x="196" y="621"/>
			<point x="275" y="621"/>
			<point x="407" y="615" type="curve"/>
			<point x="291" y="418" type="line"/>
		</contour>
	</outline>
	<anchor name="top" x="287" y="724"/>
	<anchor name="bottom" x="366" y="0"/>
</glyph>
<glyph name="bracketleft" format="2">
	<unicode hex="005B"/>
	<advance width="408"/>
	<outline>
		<contour>
			<point x="201" y="738" type="curve" smooth="yes"/>
			<point x="162" y="738"/>
			<point x="128" y="730"/>
			<point x="115" y="706" type="curve" smooth="yes"/>
			<point x="79" y="638"/>
			<point x="77" y="372"/>
			<point x="77" y="231" type="curve" smooth="yes"/>
			<point x="77" y="133"/>
			<point x="85" y="19"/>
			<point x="92" y="-53" type="curve"/>
			<point x="92" y="-61" type="line" smooth="yes"/>
			<point x="92" y="-114"/>
			<point x="143" y="-126"/>
			<point x="197" y="-126" type="curve" smooth="yes"/>
			<point x="298" y="-126"/>
			<point x="352" y="-117"/>
			<point x="352" y="-69" type="curve" smooth="yes"/>
			<point x="352" y="-46"/>
			<point x="335" y="-19"/>
			<point x="296" y="-19" type="curve" smooth="yes"/>
			<point x="263" y="-19"/>
			<point x="229" y="-26"/>
			<point x="194" y="-27" type="curve"/>
			<point x="183" y="44"/>
			<point x="175" y="139"/>
			<point x="175" y="221" type="curve" smooth="yes"/>
			<point x="175" y="360"/>
			<point x="179" y="500"/>
			<point x="199" y="638" type="curve"/>
			<point x="266" y="638"/>
			<point x="286" y="621"/>
			<point x="326" y="621" type="curve" smooth="yes"/>
			<point x="362" y="621"/>
			<point x="380" y="647"/>
			<point x="380" y="671" type="curve" smooth="yes"/>
			<point x="380" y="690"/>
			<point x="367" y="712"/>
			<point x="338" y="719" type="curve" smooth="yes"/>
			<point x="287" y="731"/>
			<point x="255" y="738"/>
		</contour>
	</outline>
</glyph>
<glyph name="backslash" format="2">
	<unicode hex="005C"/>
	<advance width="489"/>
	<outline>
		<contour>
			<point x="63" y="650" type="curve" smooth="yes"/>
			<point x="63" y="597"/>
			<point x="114" y="541"/>
			<point x="135" y="493" type="curve" smooth="yes"/>
			<point x="178" y="396"/>
			<point x="210" y="294"/>
			<point x="252" y="195" type="curve" smooth="yes"/>
			<point x="278" y="133"/>
			<point x="324" y="76"/>
			<point x="334" y="7" type="curve" smooth="yes"/>
			<point x="339" y="-27"/>
			<point x="366" y="-41"/>
			<point x="386" y="-41" type="curve" smooth="yes"/>
			<point x="408" y="-41"/>
			<point x="435" y="-24"/>
			<point x="435" y="9" type="curve" smooth="yes"/>
			<point x="435" y="73"/>
			<point x="376" y="160"/>
			<point x="344" y="235" type="curve" smooth="yes"/>
			<point x="285" y="374"/>
			<point x="242" y="518"/>
			<point x="165" y="644" type="curve" smooth="yes"/>
			<point x="161" y="651"/>
			<point x="153" y="698"/>
			<point x="112" y="698" type="curve" smooth="yes"/>
			<point x="87" y="698"/>
			<point x="63" y="685"/>
		</contour>
	</outline>
</glyph>
<glyph name="bracketright" format="2">
	<unicode hex="005D"/>
	<advance width="440"/>
	<outline>
		<contour>
			<point x="251" y="651" type="curve"/>
			<point x="253" y="603"/>
			<point x="253" y="556"/>
			<point x="253" y="509" type="curve" smooth="yes"/>
			<point x="253" y="331"/>
			<point x="235" y="154"/>
			<point x="234" y="-22" type="curve"/>
			<point x="218" y="-25"/>
			<point x="201" y="-26"/>
			<point x="183" y="-26" type="curve" smooth="yes"/>
			<point x="146" y="-26"/>
			<point x="113" y="-21"/>
			<point x="86" y="-21" type="curve" smooth="yes"/>
			<point x="55" y="-21"/>
			<point x="37" y="-46"/>
			<point x="37" y="-71" type="curve" smooth="yes"/>
			<point x="37" y="-99"/>
			<point x="61" y="-121"/>
			<point x="85" y="-121" type="curve" smooth="yes"/>
			<point x="119" y="-121"/>
			<point x="154" y="-126"/>
			<point x="192" y="-126" type="curve" smooth="yes"/>
			<point x="247" y="-126"/>
			<point x="334" y="-125"/>
			<point x="334" y="-69" type="curve" smooth="yes"/>
			<point x="334" y="140"/>
			<point x="353" y="338"/>
			<point x="353" y="537" type="curve" smooth="yes"/>
			<point x="353" y="591"/>
			<point x="352" y="636"/>
			<point x="352" y="690" type="curve" smooth="yes"/>
			<point x="352" y="726"/>
			<point x="330" y="751"/>
			<point x="265" y="751" type="curve" smooth="yes"/>
			<point x="209" y="751"/>
			<point x="126" y="742"/>
			<point x="102" y="730" type="curve" smooth="yes"/>
			<point x="80" y="719"/>
			<point x="72" y="698"/>
			<point x="72" y="682" type="curve" smooth="yes"/>
			<point x="72" y="657"/>
			<point x="89" y="636"/>
			<point x="118" y="636" type="curve" smooth="yes"/>
			<point x="160" y="636"/>
			<point x="212" y="649"/>
		</contour>
	</outline>
</glyph>
<glyph name="asciicircum" format="2">
	<unicode hex="005E"/>
	<advance width="486"/>
	<outline>
		<contour>
			<point name="hr00" x="141" y="325" type="curve"/>
			<point x="155" y="394"/>
			<point x="205" y="452"/>
			<point x="236" y="514" type="curve" smooth="yes"/>
			<point x="241" y="523"/>
			<point x="245" y="533"/>
			<point x="250" y="543" type="curve"/>
			<point x="256" y="528"/>
			<point x="262" y="513"/>
			<point x="269" y="498" type="curve" smooth="yes"/>
			<point x="294" y="445"/>
			<point x="330" y="392"/>
			<point x="339" y="333" type="curve"/>
			<point x="349" y="304"/>
			<point x="370" y="291"/>
			<point x="390" y="291" type="curve" smooth="yes"/>
			<point x="414" y="291"/>
			<point x="437" y="310"/>
			<point x="437" y="343" type="curve" smooth="yes"/>
			<point x="437" y="417"/>
			<point x="362" y="533"/>
			<point x="331" y="609" type="curve" smooth="yes"/>
			<point x="316" y="645"/>
			<point x="297" y="694"/>
			<point x="250" y="694" type="curve" smooth="yes"/>
			<point x="195" y="694"/>
			<point x="169" y="602"/>
			<point x="145" y="554" type="curve" smooth="yes"/>
			<point x="111" y="486"/>
			<point x="60" y="425"/>
			<point x="44" y="349" type="curve"/>
			<point x="44" y="312"/>
			<point x="67" y="291"/>
			<point x="91" y="291" type="curve" smooth="yes"/>
			<point x="109" y="291"/>
			<point x="128" y="302"/>
		</contour>
	</outline>
</glyph>
<glyph name="underscore" format="2">
	<unicode hex="005F"/>
	<advance width="442"/>
	<outline>
		<contour>
			<point name="hr00" x="-4" y="-227" type="curve"/>
			<point x="140" y="-224"/>
			<point x="283" y="-210"/>
			<point x="427" y="-207" type="curve"/>
			<point x="463" y="-204"/>
			<point x="481" y="-180"/>
			<point x="481" y="-157" type="curve" smooth="yes"/>
			<point x="481" y="-134"/>
			<point x="463" y="-111"/>
			<point x="427" y="-107" type="curve"/>
			<point x="283" y="-110"/>
			<point x="140" y="-124"/>
			<point x="-4" y="-127" type="curve"/>
			<point x="-34" y="-135"/>
			<point x="-48" y="-156"/>
			<point x="-48" y="-177" type="curve" smooth="yes"/>
			<point x="-48" y="-198"/>
			<point x="-34" y="-220"/>
		</contour>
	</outline>
</glyph>
<glyph name="grave" format="2">
	<unicode hex="0060"/>
	<advance width="309"/>
	<outline>
		<contour>
			<point x="70" y="650" type="curve" smooth="yes"/>
			<point x="85" y="612"/>
			<point x="131" y="595"/>
			<point x="153" y="563" type="curve" smooth="yes"/>
			<point x="165" y="546"/>
			<point x="182" y="539"/>
			<point x="198" y="539" type="curve" smooth="yes"/>
			<point x="223" y="539"/>
			<point x="245" y="559"/>
			<point x="245" y="591" type="curve" smooth="yes"/>
			<point x="245" y="630"/>
			<point x="185" y="670"/>
			<point x="168" y="685" type="curve" smooth="yes"/>
			<point x="165" y="687"/>
			<point x="159" y="693"/>
			<point x="157" y="696" type="curve" smooth="yes"/>
			<point x="144" y="715"/>
			<point x="127" y="723"/>
			<point x="111" y="723" type="curve" smooth="yes"/>
			<point x="87" y="723"/>
			<point x="65" y="704"/>
			<point x="65" y="674" type="curve" smooth="yes"/>
			<point x="65" y="667"/>
			<point x="67" y="659"/>
		</contour>
	</outline>
</glyph>
<glyph name="a" format="2">
	<unicode hex="0061"/>
	<advance width="617"/>
	<outline>
		<contour>
			<point name="hr00" x="362" y="521" type="curve" smooth="yes"/>
			<point x="166" y="521"/>
			<point x="31" y="381"/>
			<point x="31" y="169" type="curve" smooth="yes"/>
			<point x="31" y="50"/>
			<point x="62" y="-8"/>
			<point x="139" y="-8" type="curve" smooth="yes"/>
			<point x="229" y="-8"/>
			<point x="342" y="51"/>
			<point x="413" y="146" type="curve"/>
			<point x="416" y="75"/>
			<point x="428" y="35"/>
			<point x="465" y="5" type="curve" smooth="yes"/>
			<point x="487" y="-13"/>
			<point x="511" y="-19"/>
			<point x="545" y="-19" type="curve" smooth="yes"/>
			<point x="576" y="-19"/>
			<point x="596" y="4"/>
			<point x="596" y="28" type="curve" smooth="yes"/>
			<point x="596" y="47"/>
			<point x="585" y="69"/>
			<point x="558" y="78" type="curve" smooth="yes"/>
			<point x="550" y="81"/>
			<point x="538" y="80"/>
			<point x="526" y="89" type="curve" smooth="yes"/>
			<point x="515" y="97"/>
			<point x="512" y="133"/>
			<point x="512" y="166" type="curve" smooth="yes"/>
			<point x="512" y="247"/>
			<point x="530" y="318"/>
			<point x="530" y="400" type="curve" smooth="yes"/>
			<point x="530" y="427"/>
			<point x="512" y="453"/>
			<point x="479" y="453" type="curve" smooth="yes"/>
			<point x="459" y="453"/>
			<point x="443" y="443"/>
			<point x="435" y="428" type="curve" smooth="yes"/>
			<point x="429" y="417"/>
			<point x="427" y="403"/>
			<point x="424" y="390" type="curve" smooth="yes"/>
			<point x="408" y="321"/>
			<point x="345" y="206"/>
			<point x="300" y="167" type="curve" smooth="yes"/>
			<point x="260" y="132"/>
			<point x="203" y="93"/>
			<point x="149" y="93" type="curve" smooth="yes"/>
			<point x="146" y="93"/>
			<point x="142" y="93"/>
			<point x="138" y="94" type="curve"/>
			<point x="135" y="118"/>
			<point x="133" y="146"/>
			<point x="133" y="170" type="curve" smooth="yes"/>
			<point x="133" y="328"/>
			<point x="222" y="419"/>
			<point x="339" y="419" type="curve" smooth="yes"/>
			<point x="351" y="419"/>
			<point x="365" y="418"/>
			<point x="371" y="417" type="curve"/>
			<point x="378" y="412"/>
			<point x="387" y="410"/>
			<point x="395" y="410" type="curve" smooth="yes"/>
			<point x="425" y="410"/>
			<point x="442" y="436"/>
			<point x="442" y="464" type="curve" smooth="yes"/>
			<point x="442" y="510"/>
			<point x="402" y="521"/>
		</contour>
	</outline>
	<anchor name="top" x="362" y="500"/>
	<anchor name="bottomAttach" x="545" y="0"/>
	<anchor name="bottom" x="545" y="0"/>
</glyph>
<glyph name="b" format="2">
	<unicode hex="0062"/>
	<advance width="581"/>
	<outline>
		<contour>
			<point x="123" y="727" type="curve" smooth="yes"/>
			<point x="98" y="653"/>
			<point x="110" y="576"/>
			<point x="103" y="500" type="curve" smooth="yes"/>
			<point x="95" y="406"/>
			<point x="77" y="313"/>
			<point x="66" y="219" type="curve" smooth="yes"/>
			<point x="65" y="212"/>
			<point x="64" y="199"/>
			<point x="64" y="192" type="curve" smooth="yes"/>
			<point x="64" y="154"/>
			<point x="88" y="139"/>
			<point x="113" y="139" type="curve" smooth="yes"/>
			<point x="140" y="139"/>
			<point x="159" y="158"/>
			<point x="163" y="189" type="curve"/>
			<point x="200" y="288" type="line" smooth="yes"/>
			<point x="234" y="370"/>
			<point x="278" y="405"/>
			<point x="356" y="405" type="curve" smooth="yes"/>
			<point x="412" y="405"/>
			<point x="445" y="342"/>
			<point x="445" y="264" type="curve" smooth="yes"/>
			<point x="445" y="137"/>
			<point x="382" y="55"/>
			<point x="301" y="55" type="curve" smooth="yes"/>
			<point x="253" y="55"/>
			<point x="208" y="69"/>
			<point x="177" y="101" type="curve" smooth="yes"/>
			<point x="164" y="115"/>
			<point x="148" y="120"/>
			<point x="135" y="120" type="curve" smooth="yes"/>
			<point x="110" y="120"/>
			<point x="89" y="100"/>
			<point x="89" y="73" type="curve" smooth="yes"/>
			<point x="89" y="17"/>
			<point x="199" y="-45"/>
			<point x="303" y="-45" type="curve" smooth="yes"/>
			<point x="437" y="-45"/>
			<point x="546" y="84"/>
			<point x="546" y="271" type="curve" smooth="yes"/>
			<point x="546" y="404"/>
			<point x="480" y="505"/>
			<point x="362" y="505" type="curve" smooth="yes"/>
			<point x="313" y="505"/>
			<point x="240" y="493"/>
			<point x="200" y="454" type="curve"/>
			<point x="205" y="492"/>
			<point x="205" y="530"/>
			<point x="205" y="568" type="curve" smooth="yes"/>
			<point x="205" y="614"/>
			<point x="206" y="659"/>
			<point x="220" y="703" type="curve" smooth="yes"/>
			<point x="221" y="708"/>
			<point x="221" y="712"/>
			<point x="221" y="716" type="curve" smooth="yes"/>
			<point x="221" y="754"/>
			<point x="198" y="769"/>
			<point x="174" y="769" type="curve" smooth="yes"/>
			<point x="154" y="769"/>
			<point x="134" y="760"/>
		</contour>
	</outline>
	<anchor name="top" x="174" y="726"/>
	<anchor name="bottom" x="306" y="-23"/>
</glyph>
<glyph name="c" format="2">
	<unicode hex="0063"/>
	<advance width="551"/>
	<outline>
		<contour>
			<point x="493" y="400" type="curve" smooth="yes"/>
			<point x="493" y="476"/>
			<point x="401" y="518"/>
			<point x="302" y="518" type="curve" smooth="yes"/>
			<point x="104" y="518"/>
			<point x="47" y="367"/>
			<point x="47" y="228" type="curve" smooth="yes"/>
			<point x="47" y="83"/>
			<point x="115" y="-14"/>
			<point x="281" y="-14" type="curve" smooth="yes"/>
			<point x="328" y="-14"/>
			<point x="363" y="-4"/>
			<point x="401" y="13" type="curve" smooth="yes"/>
			<point x="445" y="33"/>
			<point x="509" y="62"/>
			<point x="509" y="114" type="curve" smooth="yes"/>
			<point x="509" y="147"/>
			<point x="482" y="164"/>
			<point x="460" y="164" type="curve" smooth="yes"/>
			<point x="443" y="164"/>
			<point x="426" y="155"/>
			<point x="415" y="135" type="curve"/>
			<point x="378" y="109"/>
			<point x="335" y="88"/>
			<point x="284" y="88" type="curve" smooth="yes"/>
			<point x="188" y="88"/>
			<point x="146" y="130"/>
			<point x="146" y="217" type="curve" smooth="yes"/>
			<point x="146" y="314"/>
			<point x="179" y="418"/>
			<point x="299" y="418" type="curve" smooth="yes"/>
			<point x="333" y="418"/>
			<point x="368" y="408"/>
			<point x="399" y="391" type="curve"/>
			<point x="407" y="367"/>
			<point x="429" y="357"/>
			<point x="447" y="357" type="curve" smooth="yes"/>
			<point x="473" y="357"/>
			<point x="493" y="375"/>
		</contour>
	</outline>
	<anchor name="top" x="302" y="500"/>
	<anchor name="bottomAttach" x="281" y="0"/>
</glyph>
<glyph name="d" format="2">
	<unicode hex="0064"/>
	<advance width="626"/>
	<outline>
		<contour>
			<point x="542" y="98" type="curve" smooth="yes"/>
			<point x="532" y="98"/>
			<point x="520" y="100"/>
			<point x="513" y="107" type="curve" smooth="yes"/>
			<point x="493" y="125"/>
			<point x="486" y="178"/>
			<point x="486" y="213" type="curve" smooth="yes"/>
			<point x="486" y="334"/>
			<point x="505" y="445"/>
			<point x="525" y="565" type="curve"/>
			<point x="533" y="624"/>
			<point x="543" y="675"/>
			<point x="543" y="730" type="curve" smooth="yes"/>
			<point x="543" y="755"/>
			<point x="521" y="772"/>
			<point x="499" y="772" type="curve" smooth="yes"/>
			<point x="457" y="772"/>
			<point x="449" y="744"/>
			<point x="446" y="731" type="curve" smooth="yes"/>
			<point x="433" y="672"/>
			<point x="427" y="605"/>
			<point x="417" y="545" type="curve" smooth="yes"/>
			<point x="413" y="521"/>
			<point x="406" y="483"/>
			<point x="393" y="428" type="curve"/>
			<point x="369" y="474"/>
			<point x="310" y="494"/>
			<point x="254" y="494" type="curve" smooth="yes"/>
			<point x="105" y="494"/>
			<point x="21" y="350"/>
			<point x="21" y="220" type="curve" smooth="yes"/>
			<point x="21" y="78"/>
			<point x="79" y="5"/>
			<point x="185" y="5" type="curve" smooth="yes"/>
			<point x="271" y="5"/>
			<point x="355" y="62"/>
			<point x="394" y="139" type="curve"/>
			<point x="412" y="43"/>
			<point x="473" y="1"/>
			<point x="538" y="1" type="curve" smooth="yes"/>
			<point x="578" y="1"/>
			<point x="665" y="24"/>
			<point x="665" y="81" type="curve" smooth="yes"/>
			<point x="665" y="106"/>
			<point x="648" y="127"/>
			<point x="618" y="127" type="curve" smooth="yes"/>
			<point x="591" y="127"/>
			<point x="571" y="98"/>
		</contour>
		<contour>
			<point x="339" y="260" type="curve" smooth="yes"/>
			<point x="313" y="193"/>
			<point x="276" y="104"/>
			<point x="187" y="104" type="curve" smooth="yes"/>
			<point x="134" y="104"/>
			<point x="118" y="156"/>
			<point x="118" y="215" type="curve" smooth="yes"/>
			<point x="118" y="304"/>
			<point x="157" y="391"/>
			<point x="255" y="391" type="curve" smooth="yes"/>
			<point x="270" y="391"/>
			<point x="293" y="390"/>
			<point x="305" y="382" type="curve"/>
			<point x="318" y="366"/>
			<point x="334" y="359"/>
			<point x="348" y="359" type="curve" smooth="yes"/>
			<point x="357" y="359"/>
			<point x="366" y="362"/>
			<point x="374" y="367" type="curve"/>
			<point x="364" y="331"/>
			<point x="348" y="283"/>
		</contour>
	</outline>
	<anchor name="top" x="499" y="772"/>
	<anchor name="half_top" x="462" y="500"/>
	<anchor name="bottom" x="538" y="0"/>
	<anchor name="bottomAttach" x="538" y="0"/>
</glyph>
<glyph name="e" format="2">
	<unicode hex="0065"/>
	<advance width="498"/>
	<outline>
		<contour>
			<point x="162" y="197" type="curve" smooth="yes"/>
			<point x="253" y="197"/>
			<point x="347" y="247"/>
			<point x="394" y="338" type="curve" smooth="yes"/>
			<point x="409" y="367"/>
			<point x="424" y="401"/>
			<point x="424" y="435" type="curve" smooth="yes"/>
			<point x="424" y="496"/>
			<point x="388" y="531"/>
			<point x="268" y="531" type="curve" smooth="yes"/>
			<point x="228" y="531"/>
			<point x="187" y="526"/>
			<point x="169" y="515" type="curve" smooth="yes"/>
			<point x="90" y="469"/>
			<point x="42" y="320"/>
			<point x="42" y="189" type="curve" smooth="yes"/>
			<point x="42" y="24"/>
			<point x="114" y="-51"/>
			<point x="219" y="-51" type="curve" smooth="yes"/>
			<point x="312" y="-51"/>
			<point x="394" y="9"/>
			<point x="436" y="70" type="curve" smooth="yes"/>
			<point x="443" y="81"/>
			<point x="451" y="94"/>
			<point x="451" y="105" type="curve" smooth="yes"/>
			<point x="451" y="137"/>
			<point x="429" y="157"/>
			<point x="404" y="157" type="curve" smooth="yes"/>
			<point x="389" y="157"/>
			<point x="370" y="150"/>
			<point x="357" y="129" type="curve" smooth="yes"/>
			<point x="334" y="92"/>
			<point x="270" y="48"/>
			<point x="217" y="48" type="curve" smooth="yes"/>
			<point x="157" y="48"/>
			<point x="141" y="124"/>
			<point x="141" y="206" type="curve"/>
			<point x="147" y="201"/>
			<point x="154" y="197"/>
		</contour>
		<contour>
			<point x="220" y="429" type="curve"/>
			<point x="223" y="429"/>
			<point x="234" y="430"/>
			<point x="241" y="430" type="curve" smooth="yes"/>
			<point x="268" y="430"/>
			<point x="297" y="429"/>
			<point x="322" y="425" type="curve"/>
			<point x="320" y="410"/>
			<point x="310" y="391"/>
			<point x="302" y="378" type="curve" smooth="yes"/>
			<point x="270" y="324"/>
			<point x="223" y="299"/>
			<point x="162" y="297" type="curve" smooth="yes"/>
			<point x="158" y="297"/>
			<point x="154" y="295"/>
			<point x="151" y="293" type="curve"/>
			<point x="163" y="353"/>
			<point x="187" y="407"/>
		</contour>
	</outline>
	<anchor name="top" x="267" y="502"/>
	<anchor name="bottomAttach" x="219" y="-28"/>
	<anchor name="bottom" x="219" y="-26"/>
	<anchor name="bottomRightAttach" x="413" y="76"/>
</glyph>
<glyph name="f" format="2">
	<unicode hex="0066"/>
	<advance width="450"/>
	<outline>
		<contour>
			<point name="hr00" x="27" y="376" type="curve"/>
			<point x="59" y="377"/>
			<point x="91" y="381"/>
			<point x="123" y="385" type="curve"/>
			<point x="108" y="260"/>
			<point x="105" y="122"/>
			<point x="105" y="32" type="curve" smooth="yes"/>
			<point x="105" y="-6"/>
			<point x="129" y="-26"/>
			<point x="154" y="-26" type="curve" smooth="yes"/>
			<point x="177" y="-26"/>
			<point x="200" y="-10"/>
			<point x="205" y="24" type="curve"/>
			<point x="206" y="146"/>
			<point x="207" y="271"/>
			<point x="226" y="392" type="curve"/>
			<point x="284" y="391"/>
			<point x="340" y="383"/>
			<point x="397" y="382" type="curve"/>
			<point x="433" y="385"/>
			<point x="451" y="409"/>
			<point x="451" y="432" type="curve" smooth="yes"/>
			<point x="451" y="454"/>
			<point x="433" y="479"/>
			<point x="397" y="482" type="curve" smooth="yes"/>
			<point x="362" y="484"/>
			<point x="299" y="491"/>
			<point x="246" y="491" type="curve"/>
			<point x="260" y="550"/>
			<point x="290" y="651"/>
			<point x="347" y="651" type="curve" smooth="yes"/>
			<point x="369" y="651"/>
			<point x="392" y="638"/>
			<point x="416" y="626" type="curve"/>
			<point x="428" y="589"/>
			<point x="449" y="580"/>
			<point x="471" y="580" type="curve" smooth="yes"/>
			<point x="496" y="580"/>
			<point x="517" y="600"/>
			<point x="517" y="627" type="curve" smooth="yes"/>
			<point x="517" y="668"/>
			<point x="498" y="690"/>
			<point x="484" y="702" type="curve" smooth="yes"/>
			<point x="450" y="731"/>
			<point x="389" y="752"/>
			<point x="343" y="752" type="curve" smooth="yes"/>
			<point x="229" y="752"/>
			<point x="168" y="620"/>
			<point x="139" y="484" type="curve"/>
			<point x="102" y="480"/>
			<point x="65" y="477"/>
			<point x="27" y="476" type="curve"/>
			<point x="-3" y="468"/>
			<point x="-17" y="447"/>
			<point x="-17" y="426" type="curve" smooth="yes"/>
			<point x="-17" y="405"/>
			<point x="-3" y="383"/>
		</contour>
	</outline>
	<anchor name="top" x="336" y="748"/>
</glyph>
<glyph name="g" format="2">
	<unicode hex="0067"/>
	<advance width="613"/>
	<outline>
		<contour>
			<point x="434" y="477" type="curve" smooth="yes"/>
			<point x="392" y="499"/>
			<point x="350" y="515"/>
			<point x="291" y="515" type="curve" smooth="yes"/>
			<point x="154" y="515"/>
			<point x="58" y="378"/>
			<point x="58" y="227" type="curve" smooth="yes"/>
			<point x="58" y="88"/>
			<point x="115" y="-27"/>
			<point x="248" y="-27" type="curve" smooth="yes"/>
			<point x="329" y="-27"/>
			<point x="382" y="-4"/>
			<point x="446" y="45" type="curve"/>
			<point x="442" y="-57"/>
			<point x="438" y="-250"/>
			<point x="269" y="-250" type="curve" smooth="yes"/>
			<point x="251" y="-250"/>
			<point x="228" y="-244"/>
			<point x="207" y="-233" type="curve" smooth="yes"/>
			<point x="179" y="-219"/>
			<point x="156" y="-197"/>
			<point x="134" y="-197" type="curve" smooth="yes"/>
			<point x="111" y="-197"/>
			<point x="91" y="-211"/>
			<point x="91" y="-241" type="curve" smooth="yes"/>
			<point x="91" y="-295"/>
			<point x="197" y="-340"/>
			<point x="281" y="-340" type="curve" smooth="yes"/>
			<point x="406" y="-340"/>
			<point x="492" y="-252"/>
			<point x="517" y="-155" type="curve" smooth="yes"/>
			<point x="534" y="-92"/>
			<point x="540" y="-27"/>
			<point x="545" y="37" type="curve" smooth="yes"/>
			<point x="554" y="146"/>
			<point x="562" y="257"/>
			<point x="562" y="365" type="curve" smooth="yes"/>
			<point x="562" y="373" type="line"/>
			<point x="562" y="406"/>
			<point x="536" y="422"/>
			<point x="512" y="422" type="curve" smooth="yes"/>
			<point x="481" y="422"/>
			<point x="462" y="396"/>
			<point x="462" y="373" type="curve" smooth="yes"/>
			<point x="462" y="350"/>
			<point x="461" y="316"/>
			<point x="458" y="293" type="curve" smooth="yes"/>
			<point x="452" y="239"/>
			<point x="441" y="190"/>
			<point x="422" y="153" type="curve"/>
			<point x="368" y="103"/>
			<point x="322" y="75"/>
			<point x="246" y="75" type="curve" smooth="yes"/>
			<point x="180" y="75"/>
			<point x="157" y="169"/>
			<point x="157" y="228" type="curve" smooth="yes"/>
			<point x="157" y="309"/>
			<point x="211" y="417"/>
			<point x="300" y="417" type="curve" smooth="yes"/>
			<point x="339" y="417"/>
			<point x="367" y="399"/>
			<point x="402" y="383" type="curve" smooth="yes"/>
			<point x="407" y="381"/>
			<point x="415" y="380"/>
			<point x="421" y="380" type="curve" smooth="yes"/>
			<point x="452" y="380"/>
			<point x="472" y="403"/>
			<point x="472" y="427" type="curve" smooth="yes"/>
			<point x="472" y="449"/>
			<point x="459" y="464"/>
		</contour>
	</outline>
	<anchor name="top" x="291" y="500"/>
	<anchor name="bottomAttach" x="281" y="-313"/>
</glyph>
<glyph name="h" format="2">
	<unicode hex="0068"/>
	<advance width="602"/>
	<outline>
		<contour>
			<point x="112" y="743" type="curve" smooth="yes"/>
			<point x="112" y="664"/>
			<point x="89" y="594"/>
			<point x="87" y="512" type="curve" smooth="yes"/>
			<point x="85" y="416"/>
			<point x="79" y="320"/>
			<point x="72" y="224" type="curve" smooth="yes"/>
			<point x="67" y="167"/>
			<point x="64" y="112"/>
			<point x="54" y="53" type="curve"/>
			<point x="54" y="33" type="line" smooth="yes"/>
			<point x="54" y="2"/>
			<point x="71" y="-20"/>
			<point x="100" y="-20" type="curve" smooth="yes"/>
			<point x="136" y="-20"/>
			<point x="153" y="5"/>
			<point x="153" y="28" type="curve"/>
			<point x="168" y="112"/>
			<point x="182" y="181"/>
			<point x="212" y="247" type="curve" smooth="yes"/>
			<point x="245" y="320"/>
			<point x="314" y="423"/>
			<point x="348" y="423" type="curve" smooth="yes"/>
			<point x="388" y="423"/>
			<point x="395" y="344"/>
			<point x="395" y="275" type="curve" smooth="yes"/>
			<point x="395" y="247"/>
			<point x="394" y="221"/>
			<point x="394" y="203" type="curve" smooth="yes"/>
			<point x="394" y="82"/>
			<point x="406" y="-22"/>
			<point x="526" y="-22" type="curve" smooth="yes"/>
			<point x="562" y="-22"/>
			<point x="611" y="-3"/>
			<point x="611" y="42" type="curve" smooth="yes"/>
			<point x="611" y="74"/>
			<point x="588" y="94"/>
			<point x="563" y="94" type="curve" smooth="yes"/>
			<point x="551" y="94"/>
			<point x="538" y="89"/>
			<point x="527" y="79" type="curve"/>
			<point x="520" y="81"/>
			<point x="513" y="83"/>
			<point x="507" y="88" type="curve"/>
			<point x="493" y="123"/>
			<point x="490" y="167"/>
			<point x="490" y="217" type="curve" smooth="yes"/>
			<point x="490" y="241"/>
			<point x="491" y="266"/>
			<point x="491" y="293" type="curve" smooth="yes"/>
			<point x="491" y="385"/>
			<point x="474" y="521"/>
			<point x="356" y="521" type="curve" smooth="yes"/>
			<point x="299" y="521"/>
			<point x="246" y="480"/>
			<point x="181" y="394" type="curve"/>
			<point x="183" y="431"/>
			<point x="186" y="467"/>
			<point x="187" y="504" type="curve" smooth="yes"/>
			<point x="189" y="585"/>
			<point x="212" y="661"/>
			<point x="212" y="740" type="curve" smooth="yes"/>
			<point x="212" y="768"/>
			<point x="190" y="790"/>
			<point x="163" y="790" type="curve" smooth="yes"/>
			<point x="133" y="790"/>
			<point x="112" y="769"/>
		</contour>
	</outline>
	<anchor name="top" x="163" y="762"/>
	<anchor name="half_top" x="356" y="498"/>
	<anchor name="bottom" x="526" y="0"/>
	<anchor name="bottomAttach" x="526" y="0"/>
</glyph>
<glyph name="i" format="2">
	<unicode hex="0069"/>
	<advance width="240"/>
	<outline>
		<contour>
			<point x="76" y="474" type="curve" smooth="yes"/>
			<point x="76" y="314"/>
			<point x="53" y="207"/>
			<point x="53" y="47" type="curve" smooth="yes"/>
			<point x="53" y="9"/>
			<point x="77" y="-11"/>
			<point x="102" y="-11" type="curve" smooth="yes"/>
			<point x="125" y="-11"/>
			<point x="153" y="7"/>
			<point x="153" y="39" type="curve" smooth="yes"/>
			<point x="153" y="199"/>
			<point x="176" y="310"/>
			<point x="176" y="470" type="curve" smooth="yes"/>
			<point x="176" y="498"/>
			<point x="154" y="520"/>
			<point x="127" y="520" type="curve" smooth="yes"/>
			<point x="99" y="520"/>
			<point x="76" y="497"/>
		</contour>
		<contour>
			<point x="140" y="737" type="curve" smooth="yes"/>
			<point x="101" y="737"/>
			<point x="75" y="704"/>
			<point x="75" y="673" type="curve" smooth="yes"/>
			<point x="75" y="650"/>
			<point x="94" y="618"/>
			<point x="138" y="618" type="curve" smooth="yes"/>
			<point x="173" y="618"/>
			<point x="195" y="648"/>
			<point x="195" y="678" type="curve" smooth="yes"/>
			<point x="195" y="712"/>
			<point x="170" y="737"/>
		</contour>
	</outline>
	<anchor name="top" x="140" y="500"/>
	<anchor name="bottomAttach" x="102" y="0"/>
	<anchor name="bottom" x="102" y="0"/>
</glyph>
<glyph name="j" format="2">
	<unicode hex="006A"/>
	<advance width="316"/>
	<outline>
		<contour>
			<point x="167" y="746" type="curve" smooth="yes"/>
			<point x="119" y="746"/>
			<point x="94" y="708"/>
			<point x="94" y="677" type="curve" smooth="yes"/>
			<point x="94" y="642"/>
			<point x="121" y="607"/>
			<point x="166" y="607" type="curve" smooth="yes"/>
			<point x="213" y="607"/>
			<point x="234" y="637"/>
			<point x="234" y="667" type="curve" smooth="yes"/>
			<point x="234" y="706"/>
			<point x="206" y="746"/>
		</contour>
		<contour>
			<point x="110" y="488" type="curve" smooth="yes"/>
			<point x="110" y="420"/>
			<point x="105" y="356"/>
			<point x="105" y="294" type="curve" smooth="yes"/>
			<point x="105" y="251"/>
			<point x="107" y="209"/>
			<point x="113" y="167" type="curve" smooth="yes"/>
			<point x="124" y="85"/>
			<point x="146" y="-2"/>
			<point x="146" y="-87" type="curve" smooth="yes"/>
			<point x="146" y="-188"/>
			<point x="56" y="-281"/>
			<point x="-23" y="-281" type="curve" smooth="yes"/>
			<point x="-43" y="-281"/>
			<point x="-65" y="-276"/>
			<point x="-82" y="-260" type="curve" smooth="yes"/>
			<point x="-106" y="-237"/>
			<point x="-119" y="-228"/>
			<point x="-140" y="-228" type="curve" smooth="yes"/>
			<point x="-165" y="-228"/>
			<point x="-186" y="-248"/>
			<point x="-186" y="-275" type="curve" smooth="yes"/>
			<point x="-186" y="-322"/>
			<point x="-107" y="-378"/>
			<point x="-22" y="-378" type="curve" smooth="yes"/>
			<point x="128" y="-378"/>
			<point x="246" y="-223"/>
			<point x="246" y="-80" type="curve" smooth="yes"/>
			<point x="246" y="12"/>
			<point x="215" y="109"/>
			<point x="208" y="214" type="curve" smooth="yes"/>
			<point x="206" y="240"/>
			<point x="205" y="266"/>
			<point x="205" y="291" type="curve" smooth="yes"/>
			<point x="205" y="356"/>
			<point x="210" y="421"/>
			<point x="210" y="484" type="curve" smooth="yes"/>
			<point x="210" y="514"/>
			<point x="188" y="534"/>
			<point x="161" y="534" type="curve" smooth="yes"/>
			<point x="133" y="534"/>
			<point x="110" y="515"/>
		</contour>
	</outline>
	<anchor name="top" x="167" y="500"/>
</glyph>
<glyph name="k" format="2">
	<unicode hex="006B"/>
	<advance width="592"/>
	<outline>
		<contour>
			<point x="102" y="737" type="curve" smooth="yes"/>
			<point x="102" y="655"/>
			<point x="92" y="594"/>
			<point x="84" y="488" type="curve" smooth="yes"/>
			<point x="76" y="385"/>
			<point x="76" y="293"/>
			<point x="75" y="194" type="curve" smooth="yes"/>
			<point x="75" y="152"/>
			<point x="77" y="111"/>
			<point x="80" y="69" type="curve"/>
			<point x="79" y="64"/>
			<point x="78" y="52"/>
			<point x="78" y="41" type="curve" smooth="yes"/>
			<point x="78" y="0"/>
			<point x="108" y="-19"/>
			<point x="130" y="-19" type="curve" smooth="yes"/>
			<point x="163" y="-19"/>
			<point x="181" y="7"/>
			<point x="181" y="58" type="curve"/>
			<point x="205" y="190"/>
			<point x="228" y="317"/>
			<point x="332" y="401" type="curve" smooth="yes"/>
			<point x="344" y="411"/>
			<point x="361" y="419"/>
			<point x="382" y="419" type="curve" smooth="yes"/>
			<point x="398" y="419"/>
			<point x="404" y="405"/>
			<point x="404" y="388" type="curve" smooth="yes"/>
			<point x="404" y="346"/>
			<point x="375" y="307"/>
			<point x="338" y="307" type="curve" smooth="yes"/>
			<point x="323" y="307"/>
			<point x="308" y="309"/>
			<point x="293" y="309" type="curve" smooth="yes"/>
			<point x="268" y="309"/>
			<point x="246" y="288"/>
			<point x="246" y="259" type="curve" smooth="yes"/>
			<point x="246" y="222"/>
			<point x="335" y="102"/>
			<point x="409" y="43" type="curve" smooth="yes"/>
			<point x="454" y="6"/>
			<point x="508" y="-14"/>
			<point x="544" y="-14" type="curve" smooth="yes"/>
			<point x="579" y="-14"/>
			<point x="598" y="12"/>
			<point x="598" y="35" type="curve" smooth="yes"/>
			<point x="598" y="53"/>
			<point x="587" y="78"/>
			<point x="560" y="84" type="curve" smooth="yes"/>
			<point x="495" y="98"/>
			<point x="432" y="143"/>
			<point x="386" y="211" type="curve"/>
			<point x="453" y="236"/>
			<point x="504" y="314"/>
			<point x="504" y="392" type="curve" smooth="yes"/>
			<point x="504" y="442"/>
			<point x="482" y="522"/>
			<point x="386" y="522" type="curve" smooth="yes"/>
			<point x="289" y="522"/>
			<point x="209" y="419"/>
			<point x="177" y="371" type="curve"/>
			<point x="184" y="522"/>
			<point x="202" y="627"/>
			<point x="202" y="733" type="curve" smooth="yes"/>
			<point x="202" y="765"/>
			<point x="175" y="783"/>
			<point x="153" y="783" type="curve" smooth="yes"/>
			<point x="125" y="783"/>
			<point x="102" y="760"/>
		</contour>
	</outline>
	<anchor name="bottomAttach" x="130" y="0"/>
	<anchor name="top" x="155" y="755"/>
	<anchor name="bottom" x="130" y="0"/>
</glyph>
<glyph name="l" format="2">
	<unicode hex="006C"/>
	<advance width="293"/>
	<outline>
		<contour>
			<point x="94" y="740" type="curve" smooth="yes"/>
			<point x="92" y="701"/>
			<point x="85" y="663"/>
			<point x="80" y="623" type="curve" smooth="yes"/>
			<point x="69" y="535"/>
			<point x="57" y="413"/>
			<point x="57" y="304" type="curve" smooth="yes"/>
			<point x="57" y="254"/>
			<point x="61" y="207"/>
			<point x="66" y="168" type="curve" smooth="yes"/>
			<point x="72" y="121"/>
			<point x="90" y="70"/>
			<point x="117" y="32" type="curve" smooth="yes"/>
			<point x="142" y="-2"/>
			<point x="187" y="-26"/>
			<point x="216" y="-26" type="curve" smooth="yes"/>
			<point x="249" y="-26"/>
			<point x="269" y="-3"/>
			<point x="269" y="21" type="curve" smooth="yes"/>
			<point x="269" y="41"/>
			<point x="257" y="57"/>
			<point x="239" y="65" type="curve" smooth="yes"/>
			<point x="220" y="73"/>
			<point x="201" y="86"/>
			<point x="189" y="102" type="curve" smooth="yes"/>
			<point x="157" y="145"/>
			<point x="156" y="228"/>
			<point x="156" y="299" type="curve" smooth="yes"/>
			<point x="156" y="375"/>
			<point x="164" y="481"/>
			<point x="177" y="598" type="curve" smooth="yes"/>
			<point x="183" y="648"/>
			<point x="194" y="681"/>
			<point x="194" y="735" type="curve" smooth="yes"/>
			<point x="194" y="772"/>
			<point x="165" y="790"/>
			<point x="144" y="790" type="curve" smooth="yes"/>
			<point x="123" y="790"/>
			<point x="96" y="772"/>
		</contour>
	</outline>
	<anchor name="top" x="146" y="762"/>
	<anchor name="bottomAttach" x="216" y="0"/>
	<anchor name="bottom" x="216" y="0"/>
</glyph>
<glyph name="m" format="2">
	<unicode hex="006D"/>
	<advance width="837"/>
	<outline>
		<contour>
			<point x="77" y="163" type="curve"/>
			<point x="70" y="125"/>
			<point x="65" y="86"/>
			<point x="65" y="47" type="curve" smooth="yes"/>
			<point x="65" y="14"/>
			<point x="87" y="-4"/>
			<point x="113" y="-4" type="curve" smooth="yes"/>
			<point x="171" y="-4"/>
			<point x="170" y="74"/>
			<point x="184" y="126" type="curve" smooth="yes"/>
			<point x="203" y="197"/>
			<point x="224" y="266"/>
			<point x="255" y="331" type="curve" smooth="yes"/>
			<point x="265" y="352"/>
			<point x="289" y="378"/>
			<point x="314" y="378" type="curve" smooth="yes"/>
			<point x="373" y="378"/>
			<point x="377" y="261"/>
			<point x="377" y="173" type="curve" smooth="yes"/>
			<point x="377" y="129"/>
			<point x="364" y="87"/>
			<point x="364" y="43" type="curve" smooth="yes"/>
			<point x="364" y="8"/>
			<point x="383" y="-15"/>
			<point x="411" y="-15" type="curve" smooth="yes"/>
			<point x="430" y="-15"/>
			<point x="448" y="-3"/>
			<point x="458" y="17" type="curve" smooth="yes"/>
			<point x="472" y="43"/>
			<point x="475" y="82"/>
			<point x="480" y="111" type="curve" smooth="yes"/>
			<point x="496" y="201"/>
			<point x="539" y="301"/>
			<point x="595" y="373" type="curve"/>
			<point x="611" y="357"/>
			<point x="615" y="328"/>
			<point x="615" y="299" type="curve" smooth="yes"/>
			<point x="615" y="242"/>
			<point x="611" y="206"/>
			<point x="611" y="164" type="curve" smooth="yes"/>
			<point x="611" y="68"/>
			<point x="626" y="-5"/>
			<point x="744" y="-5" type="curve" smooth="yes"/>
			<point x="794" y="-5"/>
			<point x="819" y="16"/>
			<point x="819" y="46" type="curve" smooth="yes"/>
			<point x="819" y="69"/>
			<point x="801" y="92"/>
			<point x="765" y="96" type="curve"/>
			<point x="754" y="95"/>
			<point x="737" y="93"/>
			<point x="724" y="93" type="curve"/>
			<point x="713" y="102"/>
			<point x="710" y="132"/>
			<point x="710" y="162" type="curve" smooth="yes"/>
			<point x="710" y="233"/>
			<point x="713" y="246"/>
			<point x="713" y="277" type="curve" smooth="yes"/>
			<point x="713" y="334"/>
			<point x="711" y="394"/>
			<point x="676" y="439" type="curve" smooth="yes"/>
			<point x="657" y="462"/>
			<point x="629" y="481"/>
			<point x="590" y="481" type="curve" smooth="yes"/>
			<point x="536" y="481"/>
			<point x="494" y="408"/>
			<point x="462" y="344" type="curve"/>
			<point x="440" y="427"/>
			<point x="391" y="481"/>
			<point x="313" y="481" type="curve" smooth="yes"/>
			<point x="271" y="481"/>
			<point x="227" y="461"/>
			<point x="197" y="418" type="curve"/>
			<point x="198" y="432"/>
			<point x="199" y="447"/>
			<point x="199" y="461" type="curve"/>
			<point x="194" y="494"/>
			<point x="171" y="511"/>
			<point x="148" y="511" type="curve" smooth="yes"/>
			<point x="124" y="511"/>
			<point x="102" y="492"/>
			<point x="98" y="456" type="curve" smooth="yes"/>
			<point x="86" y="356"/>
			<point x="77" y="259"/>
		</contour>
	</outline>
	<anchor name="top" x="148" y="500"/>
	<anchor name="bottom" x="411" y="0"/>
</glyph>
<glyph name="n" format="2">
	<unicode hex="006E"/>
	<advance width="629"/>
	<outline>
		<contour>
			<point name="hr00" x="74" y="488" type="curve" smooth="yes"/>
			<point x="70" y="433"/>
			<point x="63" y="369"/>
			<point x="59" y="314" type="curve" smooth="yes"/>
			<point x="51" y="215"/>
			<point x="42" y="139"/>
			<point x="42" y="43" type="curve" smooth="yes"/>
			<point x="42" y="6"/>
			<point x="65" y="-15"/>
			<point x="89" y="-15" type="curve" smooth="yes"/>
			<point x="107" y="-15"/>
			<point x="131" y="-6"/>
			<point x="139" y="19" type="curve" smooth="yes"/>
			<point x="165" y="104"/>
			<point x="200" y="270"/>
			<point x="247" y="322" type="curve" smooth="yes"/>
			<point x="296" y="376"/>
			<point x="342" y="407"/>
			<point x="387" y="407" type="curve" smooth="yes"/>
			<point x="414" y="407"/>
			<point x="424" y="379"/>
			<point x="424" y="341" type="curve" smooth="yes"/>
			<point x="424" y="269"/>
			<point x="410" y="202"/>
			<point x="410" y="134" type="curve" smooth="yes"/>
			<point x="410" y="57"/>
			<point x="428" y="-25"/>
			<point x="503" y="-25" type="curve" smooth="yes"/>
			<point x="526" y="-25"/>
			<point x="553" y="-17"/>
			<point x="572" y="-8" type="curve" smooth="yes"/>
			<point x="593" y="2"/>
			<point x="605" y="21"/>
			<point x="605" y="40" type="curve" smooth="yes"/>
			<point x="605" y="63"/>
			<point x="590" y="89"/>
			<point x="551" y="89" type="curve" smooth="yes"/>
			<point x="538" y="89"/>
			<point x="524" y="85"/>
			<point x="515" y="79" type="curve"/>
			<point x="514" y="85"/>
			<point x="514" y="93"/>
			<point x="514" y="100" type="curve" smooth="yes"/>
			<point x="514" y="153"/>
			<point x="526" y="253"/>
			<point x="526" y="340" type="curve" smooth="yes"/>
			<point x="526" y="433"/>
			<point x="503" y="506"/>
			<point x="394" y="506" type="curve" smooth="yes"/>
			<point x="311" y="506"/>
			<point x="236" y="459"/>
			<point x="166" y="382" type="curve"/>
			<point x="170" y="413"/>
			<point x="174" y="451"/>
			<point x="174" y="487" type="curve" smooth="yes"/>
			<point x="174" y="515"/>
			<point x="152" y="537"/>
			<point x="125" y="537" type="curve" smooth="yes"/>
			<point x="97" y="537"/>
			<point x="76" y="516"/>
		</contour>
	</outline>
	<anchor name="top" x="125" y="500"/>
	<anchor name="bottomAttach" x="503" y="0"/>
	<anchor name="bottom" x="503" y="0"/>
</glyph>
<glyph name="o" format="2">
	<unicode hex="006F"/>
	<advance width="572"/>
	<outline>
		<contour>
			<point x="392" y="479" type="curve" smooth="yes"/>
			<point x="369" y="513"/>
			<point x="336" y="523"/>
			<point x="293" y="523" type="curve" smooth="yes"/>
			<point x="251" y="523"/>
			<point x="208" y="510"/>
			<point x="179" y="493" type="curve" smooth="yes"/>
			<point x="77" y="432"/>
			<point x="32" y="316"/>
			<point x="32" y="197" type="curve" smooth="yes"/>
			<point x="32" y="40"/>
			<point x="136" y="-45"/>
			<point x="257" y="-45" type="curve" smooth="yes"/>
			<point x="416" y="-45"/>
			<point x="534" y="115"/>
			<point x="534" y="267" type="curve" smooth="yes"/>
			<point x="534" y="338"/>
			<point x="503" y="467"/>
			<point x="422" y="467" type="curve" smooth="yes"/>
			<point x="412" y="467"/>
			<point x="403" y="466"/>
			<point x="397" y="463" type="curve"/>
			<point x="397" y="467"/>
			<point x="396" y="473"/>
		</contour>
		<contour>
			<point x="391" y="378" type="curve" smooth="yes"/>
			<point x="427" y="353"/>
			<point x="434" y="299"/>
			<point x="434" y="258" type="curve" smooth="yes"/>
			<point x="434" y="168"/>
			<point x="359" y="55"/>
			<point x="257" y="55" type="curve" smooth="yes"/>
			<point x="166" y="55"/>
			<point x="133" y="118"/>
			<point x="133" y="200" type="curve" smooth="yes"/>
			<point x="133" y="270"/>
			<point x="171" y="368"/>
			<point x="227" y="405" type="curve" smooth="yes"/>
			<point x="246" y="417"/>
			<point x="266" y="422"/>
			<point x="288" y="422" type="curve" smooth="yes"/>
			<point x="312" y="422"/>
			<point x="330" y="407"/>
			<point x="349" y="407" type="curve" smooth="yes"/>
			<point x="355" y="407"/>
			<point x="361" y="409"/>
			<point x="367" y="411" type="curve"/>
			<point x="370" y="399"/>
			<point x="377" y="388"/>
		</contour>
	</outline>
	<anchor name="top" x="293" y="502"/>
	<anchor name="topRightAttach" x="444" y="431"/>
	<anchor name="bottomAttach" x="257" y="-21"/>
	<anchor name="bottom" x="257" y="0"/>
</glyph>
<glyph name="p" format="2">
	<unicode hex="0070"/>
	<advance width="606"/>
	<outline>
		<contour>
			<point x="69" y="484" type="curve" smooth="yes"/>
			<point x="69" y="477"/>
			<point x="72" y="464"/>
			<point x="75" y="451" type="curve" smooth="yes"/>
			<point x="82" y="422"/>
			<point x="86" y="392"/>
			<point x="89" y="375" type="curve" smooth="yes"/>
			<point x="101" y="298"/>
			<point x="102" y="230"/>
			<point x="102" y="160" type="curve" smooth="yes"/>
			<point x="102" y="-72"/>
			<point x="100" y="-204"/>
			<point x="100" y="-371" type="curve" smooth="yes"/>
			<point x="100" y="-402"/>
			<point x="122" y="-421"/>
			<point x="149" y="-421" type="curve" smooth="yes"/>
			<point x="177" y="-421"/>
			<point x="199" y="-403"/>
			<point x="199" y="-373" type="curve" smooth="yes"/>
			<point x="199" y="-175"/>
			<point x="238" y="26"/>
			<point x="244" y="65" type="curve" smooth="yes"/>
			<point x="256" y="147"/>
			<point x="263" y="228"/>
			<point x="303" y="316" type="curve" smooth="yes"/>
			<point x="322" y="358"/>
			<point x="349" y="389"/>
			<point x="375" y="409" type="curve"/>
			<point x="383" y="410"/>
			<point x="390" y="411"/>
			<point x="397" y="411" type="curve" smooth="yes"/>
			<point x="451" y="411"/>
			<point x="465" y="365"/>
			<point x="465" y="323" type="curve" smooth="yes"/>
			<point x="465" y="276"/>
			<point x="449" y="213"/>
			<point x="434" y="176" type="curve" smooth="yes"/>
			<point x="415" y="130"/>
			<point x="387" y="93"/>
			<point x="365" y="93" type="curve" smooth="yes"/>
			<point x="350" y="93"/>
			<point x="340" y="109"/>
			<point x="320" y="109" type="curve" smooth="yes"/>
			<point x="292" y="109"/>
			<point x="274" y="90"/>
			<point x="274" y="60" type="curve" smooth="yes"/>
			<point x="274" y="14"/>
			<point x="318" y="-8"/>
			<point x="378" y="-8" type="curve" smooth="yes"/>
			<point x="501" y="-8"/>
			<point x="567" y="214"/>
			<point x="567" y="309" type="curve" smooth="yes"/>
			<point x="567" y="439"/>
			<point x="507" y="511"/>
			<point x="394" y="511" type="curve" smooth="yes"/>
			<point x="286" y="511"/>
			<point x="220" y="383"/>
			<point x="196" y="313" type="curve"/>
			<point x="192" y="376"/>
			<point x="183" y="437"/>
			<point x="165" y="498" type="curve" smooth="yes"/>
			<point x="158" y="523"/>
			<point x="133" y="532"/>
			<point x="115" y="532" type="curve" smooth="yes"/>
			<point x="89" y="532"/>
			<point x="69" y="507"/>
		</contour>
	</outline>
	<anchor name="top" x="394" y="491"/>
</glyph>
<glyph name="q" format="2">
	<unicode hex="0071"/>
	<advance width="569"/>
	<outline>
		<contour>
			<point x="396" y="484" type="curve"/>
			<point x="373" y="507"/>
			<point x="338" y="516"/>
			<point x="299" y="516" type="curve" smooth="yes"/>
			<point x="233" y="516"/>
			<point x="159" y="490"/>
			<point x="118" y="460" type="curve" smooth="yes"/>
			<point x="63" y="419"/>
			<point x="43" y="341"/>
			<point x="43" y="262" type="curve" smooth="yes"/>
			<point x="43" y="129"/>
			<point x="86" y="-16"/>
			<point x="230" y="-16" type="curve" smooth="yes"/>
			<point x="281" y="-16"/>
			<point x="337" y="12"/>
			<point x="366" y="47" type="curve"/>
			<point x="353" y="-79"/>
			<point x="349" y="-209"/>
			<point x="349" y="-335" type="curve" smooth="yes"/>
			<point x="349" y="-373"/>
			<point x="373" y="-393"/>
			<point x="398" y="-393" type="curve" smooth="yes"/>
			<point x="421" y="-393"/>
			<point x="444" y="-377"/>
			<point x="449" y="-343" type="curve"/>
			<point x="450" y="-195"/>
			<point x="453" y="-39"/>
			<point x="474" y="107" type="curve" smooth="yes"/>
			<point x="480" y="153"/>
			<point x="491" y="197"/>
			<point x="499" y="242" type="curve" smooth="yes"/>
			<point x="506" y="285"/>
			<point x="509" y="328"/>
			<point x="513" y="371" type="curve" smooth="yes"/>
			<point x="515" y="391"/>
			<point x="522" y="415"/>
			<point x="522" y="436" type="curve" smooth="yes"/>
			<point x="522" y="477"/>
			<point x="497" y="497"/>
			<point x="473" y="497" type="curve" smooth="yes"/>
			<point x="449" y="497"/>
			<point x="427" y="483"/>
			<point x="420" y="445" type="curve" smooth="yes"/>
			<point x="413" y="402" type="line" smooth="yes"/>
			<point x="389" y="261"/>
			<point x="342" y="87"/>
			<point x="226" y="87" type="curve" smooth="yes"/>
			<point x="150" y="87"/>
			<point x="140" y="220"/>
			<point x="140" y="263" type="curve" smooth="yes"/>
			<point x="140" y="309"/>
			<point x="150" y="353"/>
			<point x="176" y="379" type="curve" smooth="yes"/>
			<point x="207" y="410"/>
			<point x="268" y="413"/>
			<point x="305" y="413" type="curve" smooth="yes"/>
			<point x="327" y="413"/>
			<point x="343" y="406"/>
			<point x="358" y="406" type="curve" smooth="yes"/>
			<point x="384" y="406"/>
			<point x="405" y="426"/>
			<point x="405" y="453" type="curve" smooth="yes"/>
			<point x="405" y="462"/>
			<point x="402" y="473"/>
		</contour>
	</outline>
</glyph>
<glyph name="r" format="2">
	<unicode hex="0072"/>
	<advance width="452"/>
	<outline>
		<contour>
			<point name="hr00" x="65" y="465" type="curve"/>
			<point x="74" y="411"/>
			<point x="79" y="341"/>
			<point x="79" y="272" type="curve" smooth="yes"/>
			<point x="79" y="247"/>
			<point x="78" y="222"/>
			<point x="77" y="198" type="curve" smooth="yes"/>
			<point x="75" y="141"/>
			<point x="64" y="87"/>
			<point x="64" y="28" type="curve" smooth="yes"/>
			<point x="64" y="-10"/>
			<point x="95" y="-28"/>
			<point x="116" y="-28" type="curve" smooth="yes"/>
			<point x="138" y="-28"/>
			<point x="160" y="-11"/>
			<point x="165" y="22" type="curve"/>
			<point x="165" y="62" type="line" smooth="yes"/>
			<point x="165" y="92"/>
			<point x="168" y="116"/>
			<point x="174" y="182" type="curve"/>
			<point x="186" y="254"/>
			<point x="212" y="322"/>
			<point x="270" y="372" type="curve" smooth="yes"/>
			<point x="284" y="384"/>
			<point x="324" y="417"/>
			<point x="347" y="417" type="curve" smooth="yes"/>
			<point x="362" y="417"/>
			<point x="395" y="396"/>
			<point x="415" y="396" type="curve" smooth="yes"/>
			<point x="452" y="396"/>
			<point x="465" y="421"/>
			<point x="465" y="441" type="curve" smooth="yes"/>
			<point x="465" y="463"/>
			<point x="453" y="482"/>
			<point x="427" y="494" type="curve" smooth="yes"/>
			<point x="404" y="505"/>
			<point x="375" y="518"/>
			<point x="345" y="518" type="curve" smooth="yes"/>
			<point x="277" y="518"/>
			<point x="210" y="454"/>
			<point x="172" y="412" type="curve"/>
			<point x="170" y="438"/>
			<point x="166" y="464"/>
			<point x="162" y="489" type="curve"/>
			<point x="149" y="512"/>
			<point x="130" y="523"/>
			<point x="112" y="523" type="curve" smooth="yes"/>
			<point x="88" y="523"/>
			<point x="65" y="502"/>
		</contour>
	</outline>
	<anchor name="top" x="344" y="498"/>
	<anchor name="bottomAttach" x="116" y="0"/>
	<anchor name="bottom" x="116" y="0"/>
</glyph>
<glyph name="s" format="2">
	<unicode hex="0073"/>
	<advance width="395"/>
	<outline>
		<contour>
			<point name="hr00" x="334" y="479" type="curve"/>
			<point x="312" y="509"/>
			<point x="278" y="523"/>
			<point x="242" y="523" type="curve" smooth="yes"/>
			<point x="166" y="523"/>
			<point x="96" y="468"/>
			<point x="96" y="391" type="curve" smooth="yes"/>
			<point x="96" y="372"/>
			<point x="100" y="352"/>
			<point x="107" y="334" type="curve" smooth="yes"/>
			<point x="135" y="260"/>
			<point x="169" y="265"/>
			<point x="222" y="220" type="curve" smooth="yes"/>
			<point x="232" y="211"/>
			<point x="234" y="190"/>
			<point x="234" y="177" type="curve" smooth="yes"/>
			<point x="234" y="126"/>
			<point x="160" y="104"/>
			<point x="120" y="96" type="curve" smooth="yes"/>
			<point x="85" y="89"/>
			<point x="70" y="89"/>
			<point x="33" y="87" type="curve"/>
			<point x="3" y="79"/>
			<point x="-11" y="58"/>
			<point x="-11" y="37" type="curve" smooth="yes"/>
			<point x="-11" y="16"/>
			<point x="3" y="-6"/>
			<point x="33" y="-13" type="curve"/>
			<point x="144" y="-7"/>
			<point x="335" y="18"/>
			<point x="335" y="179" type="curve" smooth="yes"/>
			<point x="335" y="228"/>
			<point x="313" y="278"/>
			<point x="274" y="307" type="curve" smooth="yes"/>
			<point x="243" y="330"/>
			<point x="197" y="333"/>
			<point x="197" y="389" type="curve" smooth="yes"/>
			<point x="197" y="414"/>
			<point x="219" y="421"/>
			<point x="245" y="421" type="curve" smooth="yes"/>
			<point x="252" y="421"/>
			<point x="255" y="419"/>
			<point x="257" y="417" type="curve" smooth="yes"/>
			<point x="270" y="404"/>
			<point x="283" y="399"/>
			<point x="296" y="399" type="curve" smooth="yes"/>
			<point x="321" y="399"/>
			<point x="343" y="419"/>
			<point x="343" y="447" type="curve" smooth="yes"/>
			<point x="343" y="457"/>
			<point x="340" y="467"/>
		</contour>
	</outline>
	<anchor name="top" x="242" y="500"/>
	<anchor name="bottomAttach" x="148" y="16"/>
	<anchor name="bottom" x="148" y="16"/>
</glyph>
<glyph name="t" format="2">
	<unicode hex="0074"/>
	<advance width="429"/>
	<outline>
		<contour>
			<point name="hr00" x="31" y="396" type="curve"/>
			<point x="74" y="397"/>
			<point x="114" y="409"/>
			<point x="156" y="415" type="curve" smooth="yes"/>
			<point x="160" y="415"/>
			<point x="164" y="416"/>
			<point x="168" y="417" type="curve"/>
			<point x="168" y="291"/>
			<point x="158" y="167"/>
			<point x="158" y="41" type="curve" smooth="yes"/>
			<point x="158" y="3"/>
			<point x="182" y="-17"/>
			<point x="207" y="-17" type="curve" smooth="yes"/>
			<point x="230" y="-17"/>
			<point x="253" y="-1"/>
			<point x="258" y="33" type="curve"/>
			<point x="258" y="138"/>
			<point x="267" y="242"/>
			<point x="267" y="346" type="curve" smooth="yes"/>
			<point x="267" y="374"/>
			<point x="265" y="401"/>
			<point x="265" y="428" type="curve"/>
			<point x="314" y="433"/>
			<point x="363" y="435"/>
			<point x="413" y="436" type="curve"/>
			<point x="449" y="439"/>
			<point x="467" y="463"/>
			<point x="467" y="486" type="curve" smooth="yes"/>
			<point x="467" y="509"/>
			<point x="449" y="532"/>
			<point x="413" y="536" type="curve"/>
			<point x="365" y="535"/>
			<point x="318" y="533"/>
			<point x="270" y="529" type="curve"/>
			<point x="273" y="560" type="line"/>
			<point x="276" y="617"/>
			<point x="280" y="676"/>
			<point x="280" y="734" type="curve"/>
			<point x="275" y="768"/>
			<point x="252" y="784"/>
			<point x="229" y="784" type="curve" smooth="yes"/>
			<point x="204" y="784"/>
			<point x="180" y="764"/>
			<point x="180" y="726" type="curve" smooth="yes"/>
			<point x="180" y="660"/>
			<point x="169" y="598"/>
			<point x="169" y="533" type="curve"/>
			<point x="169" y="518" type="line"/>
			<point x="159" y="516"/>
			<point x="149" y="515"/>
			<point x="139" y="514" type="curve" smooth="yes"/>
			<point x="103" y="509"/>
			<point x="68" y="497"/>
			<point x="31" y="496" type="curve"/>
			<point x="1" y="488"/>
			<point x="-13" y="467"/>
			<point x="-13" y="446" type="curve" smooth="yes"/>
			<point x="-13" y="425"/>
			<point x="1" y="403"/>
		</contour>
	</outline>
	<anchor name="top" x="226" y="755"/>
	<anchor name="bottomAttach" x="193" y="0"/>
	<anchor name="bottom" x="193" y="0"/>
	<anchor name="half_top" x="217" y="498"/>
</glyph>
<glyph name="u" format="2">
	<unicode hex="0075"/>
	<advance width="673"/>
	<outline>
		<contour>
			<point name="hr00" x="109" y="488" type="curve"/>
			<point x="101" y="382"/>
			<point x="56" y="281"/>
			<point x="56" y="180" type="curve" smooth="yes"/>
			<point x="56" y="136"/>
			<point x="65" y="92"/>
			<point x="88" y="48" type="curve" smooth="yes"/>
			<point x="115" y="-4"/>
			<point x="162" y="-24"/>
			<point x="212" y="-24" type="curve" smooth="yes"/>
			<point x="313" y="-24"/>
			<point x="391" y="38"/>
			<point x="446" y="117" type="curve"/>
			<point x="452" y="46"/>
			<point x="485" y="-40"/>
			<point x="553" y="-40" type="curve" smooth="yes"/>
			<point x="573" y="-40"/>
			<point x="588" y="-34"/>
			<point x="605" y="-27" type="curve" smooth="yes"/>
			<point x="623" y="-19" type="line" smooth="yes"/>
			<point x="647" y="-8"/>
			<point x="654" y="11"/>
			<point x="654" y="27" type="curve" smooth="yes"/>
			<point x="654" y="51"/>
			<point x="637" y="74"/>
			<point x="605" y="74" type="curve" smooth="yes"/>
			<point x="589" y="74"/>
			<point x="571" y="66"/>
			<point x="563" y="63" type="curve"/>
			<point x="551" y="97"/>
			<point x="548" y="130"/>
			<point x="548" y="163" type="curve" smooth="yes"/>
			<point x="548" y="228"/>
			<point x="562" y="292"/>
			<point x="562" y="359" type="curve" smooth="yes"/>
			<point x="562" y="404"/>
			<point x="560" y="449"/>
			<point x="558" y="460" type="curve" smooth="yes"/>
			<point x="552" y="488"/>
			<point x="531" y="503"/>
			<point x="510" y="503" type="curve" smooth="yes"/>
			<point x="490" y="503"/>
			<point x="470" y="489"/>
			<point x="460" y="461" type="curve"/>
			<point x="452" y="337"/>
			<point x="403" y="198"/>
			<point x="308" y="112" type="curve" smooth="yes"/>
			<point x="288" y="94"/>
			<point x="252" y="74"/>
			<point x="220" y="74" type="curve" smooth="yes"/>
			<point x="168" y="74"/>
			<point x="152" y="140"/>
			<point x="152" y="184" type="curve" smooth="yes"/>
			<point x="152" y="248"/>
			<point x="180" y="316"/>
			<point x="194" y="374" type="curve" smooth="yes"/>
			<point x="203" y="412"/>
			<point x="206" y="442"/>
			<point x="209" y="480" type="curve"/>
			<point x="204" y="513"/>
			<point x="182" y="530"/>
			<point x="160" y="530" type="curve" smooth="yes"/>
			<point x="140" y="530"/>
			<point x="119" y="516"/>
		</contour>
	</outline>
	<anchor name="top" x="330" y="493"/>
	<anchor name="topRightAttach" x="512" y="479"/>
	<anchor name="bottom" x="618" y="0"/>
	<anchor name="bottomAttach" x="618" y="-2"/>
</glyph>
<glyph name="v" format="2">
	<unicode hex="0076"/>
	<advance width="596"/>
	<outline>
		<contour>
			<point name="hr00" x="18" y="470" type="curve" smooth="yes"/>
			<point x="18" y="461"/>
			<point x="19" y="451"/>
			<point x="22" y="442" type="curve" smooth="yes"/>
			<point x="92" y="174" type="line" smooth="yes"/>
			<point x="130" y="29"/>
			<point x="134" y="-23"/>
			<point x="189" y="-23" type="curve" smooth="yes"/>
			<point x="236" y="-23"/>
			<point x="282" y="59"/>
			<point x="314" y="117" type="curve" smooth="yes"/>
			<point x="383" y="241"/>
			<point x="484" y="337"/>
			<point x="569" y="449" type="curve"/>
			<point x="575" y="460"/>
			<point x="578" y="472"/>
			<point x="578" y="482" type="curve" smooth="yes"/>
			<point x="578" y="510"/>
			<point x="556" y="529"/>
			<point x="532" y="529" type="curve" smooth="yes"/>
			<point x="491" y="529"/>
			<point x="440" y="449"/>
			<point x="400" y="402" type="curve" smooth="yes"/>
			<point x="352" y="345"/>
			<point x="297" y="288"/>
			<point x="259" y="222" type="curve" smooth="yes"/>
			<point x="241" y="192"/>
			<point x="225" y="161"/>
			<point x="207" y="130" type="curve"/>
			<point x="189" y="198" type="line" smooth="yes"/>
			<point x="165" y="287"/>
			<point x="143" y="375"/>
			<point x="119" y="464" type="curve"/>
			<point x="120" y="469"/>
			<point x="121" y="474"/>
			<point x="121" y="479" type="curve" smooth="yes"/>
			<point x="121" y="508"/>
			<point x="102" y="530"/>
			<point x="68" y="530" type="curve" smooth="yes"/>
			<point x="39" y="530"/>
			<point x="18" y="506"/>
		</contour>
	</outline>
	<anchor name="top" x="278" y="500"/>
	<anchor name="bottom" x="189" y="0"/>
</glyph>
<glyph name="w" format="2">
	<unicode hex="0077"/>
	<advance width="805"/>
	<outline>
		<contour>
			<point name="hr00" x="42" y="474" type="curve"/>
			<point x="46" y="415"/>
			<point x="61" y="359"/>
			<point x="74" y="302" type="curve" smooth="yes"/>
			<point x="90" y="230"/>
			<point x="100" y="176"/>
			<point x="128" y="105" type="curve" smooth="yes"/>
			<point x="145" y="62"/>
			<point x="172" y="-8"/>
			<point x="228" y="-8" type="curve" smooth="yes"/>
			<point x="238" y="-8"/>
			<point x="252" y="-4"/>
			<point x="261" y="4" type="curve" smooth="yes"/>
			<point x="312" y="51"/>
			<point x="325" y="155"/>
			<point x="367" y="183" type="curve"/>
			<point x="427" y="168"/>
			<point x="457" y="19"/>
			<point x="510" y="-1" type="curve" smooth="yes"/>
			<point x="518" y="-4"/>
			<point x="526" y="-5"/>
			<point x="533" y="-5" type="curve" smooth="yes"/>
			<point x="573" y="-5"/>
			<point x="605" y="27"/>
			<point x="642" y="68" type="curve" smooth="yes"/>
			<point x="739" y="176"/>
			<point x="759" y="320"/>
			<point x="759" y="470" type="curve" smooth="yes"/>
			<point x="759" y="501"/>
			<point x="732" y="520"/>
			<point x="710" y="520" type="curve" smooth="yes"/>
			<point x="685" y="520"/>
			<point x="659" y="502"/>
			<point x="659" y="470" type="curve" smooth="yes"/>
			<point x="659" y="397"/>
			<point x="655" y="327"/>
			<point x="634" y="257" type="curve" smooth="yes"/>
			<point x="617" y="201"/>
			<point x="588" y="149"/>
			<point x="546" y="113" type="curve"/>
			<point x="506" y="191"/>
			<point x="438" y="285"/>
			<point x="366" y="285" type="curve" smooth="yes"/>
			<point x="317" y="285"/>
			<point x="277" y="245"/>
			<point x="250" y="189" type="curve" smooth="yes"/>
			<point x="241" y="171"/>
			<point x="235" y="149"/>
			<point x="226" y="128" type="curve"/>
			<point x="214" y="158"/>
			<point x="203" y="188"/>
			<point x="193" y="219" type="curve" smooth="yes"/>
			<point x="182" y="255"/>
			<point x="179" y="290"/>
			<point x="171" y="326" type="curve" smooth="yes"/>
			<point x="159" y="379"/>
			<point x="146" y="428"/>
			<point x="142" y="482" type="curve"/>
			<point x="137" y="516"/>
			<point x="114" y="532"/>
			<point x="91" y="532" type="curve" smooth="yes"/>
			<point x="66" y="532"/>
			<point x="42" y="512"/>
		</contour>
	</outline>
	<anchor name="top" x="384" y="500"/>
	<anchor name="bottom" x="384" y="2"/>
</glyph>
<glyph name="x" format="2">
	<unicode hex="0078"/>
	<advance width="580"/>
	<outline>
		<contour>
			<point name="hr00" x="39" y="476" type="curve"/>
			<point x="59" y="415"/>
			<point x="110" y="323"/>
			<point x="170" y="234" type="curve"/>
			<point x="102" y="144"/>
			<point x="68" y="100"/>
			<point x="68" y="18" type="curve" smooth="yes"/>
			<point x="68" y="-24"/>
			<point x="84" y="-73"/>
			<point x="133" y="-73" type="curve" smooth="yes"/>
			<point x="165" y="-73"/>
			<point x="184" y="-51"/>
			<point x="184" y="-27" type="curve" smooth="yes"/>
			<point x="184" y="-15"/>
			<point x="180" y="-2"/>
			<point x="169" y="8" type="curve"/>
			<point x="169" y="63"/>
			<point x="198" y="107"/>
			<point x="232" y="150" type="curve"/>
			<point x="290" y="77"/>
			<point x="368" y="-12"/>
			<point x="413" y="-12" type="curve" smooth="yes"/>
			<point x="444" y="-12"/>
			<point x="463" y="9"/>
			<point x="463" y="33" type="curve" smooth="yes"/>
			<point x="463" y="48"/>
			<point x="456" y="64"/>
			<point x="441" y="79" type="curve"/>
			<point x="402" y="102"/>
			<point x="348" y="162"/>
			<point x="296" y="231" type="curve"/>
			<point x="356" y="307"/>
			<point x="428" y="389"/>
			<point x="509" y="421" type="curve" smooth="yes"/>
			<point x="535" y="431"/>
			<point x="547" y="453"/>
			<point x="547" y="471" type="curve" smooth="yes"/>
			<point x="547" y="496"/>
			<point x="527" y="518"/>
			<point x="496" y="518" type="curve" smooth="yes"/>
			<point x="434" y="518"/>
			<point x="343" y="444"/>
			<point x="235" y="317" type="curve"/>
			<point x="189" y="387"/>
			<point x="150" y="457"/>
			<point x="136" y="500" type="curve"/>
			<point x="123" y="523"/>
			<point x="104" y="534"/>
			<point x="86" y="534" type="curve" smooth="yes"/>
			<point x="62" y="534"/>
			<point x="39" y="513"/>
		</contour>
	</outline>
	<anchor name="top" x="264" y="498"/>
</glyph>
<glyph name="braceleft" format="2">
	<unicode hex="007B"/>
	<advance width="450"/>
	<outline>
		<contour>
			<point name="hr00" x="314" y="762" type="curve"/>
			<point x="181" y="743"/>
			<point x="119" y="640"/>
			<point x="119" y="516" type="curve" smooth="yes"/>
			<point x="119" y="462"/>
			<point x="135" y="433"/>
			<point x="159" y="389" type="curve"/>
			<point x="149" y="382" type="line" smooth="yes"/>
			<point x="111" y="356"/>
			<point x="57" y="348"/>
			<point x="57" y="305" type="curve" smooth="yes"/>
			<point x="57" y="261"/>
			<point x="102" y="246"/>
			<point x="135" y="230" type="curve"/>
			<point x="117" y="176"/>
			<point x="100" y="124"/>
			<point x="100" y="69" type="curve" smooth="yes"/>
			<point x="100" y="-7"/>
			<point x="121" y="-124"/>
			<point x="205" y="-160" type="curve" smooth="yes"/>
			<point x="220" y="-167"/>
			<point x="236" y="-167"/>
			<point x="252" y="-170" type="curve"/>
			<point x="287" y="-167"/>
			<point x="306" y="-145"/>
			<point x="306" y="-121" type="curve" smooth="yes"/>
			<point x="306" y="-103"/>
			<point x="294" y="-83"/>
			<point x="268" y="-72" type="curve"/>
			<point x="238" y="-65"/>
			<point x="226" y="-56"/>
			<point x="215" y="-26" type="curve" smooth="yes"/>
			<point x="204" y="5"/>
			<point x="199" y="30"/>
			<point x="199" y="53" type="curve" smooth="yes"/>
			<point x="199" y="94"/>
			<point x="212" y="127"/>
			<point x="225" y="178" type="curve" smooth="yes"/>
			<point x="230" y="198"/>
			<point x="236" y="217"/>
			<point x="236" y="241" type="curve" smooth="yes"/>
			<point x="236" y="264"/>
			<point x="223" y="284"/>
			<point x="208" y="300" type="curve"/>
			<point x="237" y="319"/>
			<point x="265" y="348"/>
			<point x="265" y="383" type="curve" smooth="yes"/>
			<point x="265" y="433"/>
			<point x="216" y="476"/>
			<point x="216" y="522" type="curve" smooth="yes"/>
			<point x="216" y="569"/>
			<point x="243" y="625"/>
			<point x="276" y="648" type="curve" smooth="yes"/>
			<point x="297" y="663"/>
			<point x="303" y="660"/>
			<point x="330" y="663" type="curve"/>
			<point x="356" y="674"/>
			<point x="368" y="694"/>
			<point x="368" y="713" type="curve" smooth="yes"/>
			<point x="368" y="736"/>
			<point x="349" y="759"/>
		</contour>
	</outline>
</glyph>
<glyph name="bar" format="2">
	<unicode hex="007C"/>
	<advance width="329"/>
	<outline>
		<contour>
			<point x="146" y="694" type="curve" smooth="yes"/>
			<point x="143" y="631"/>
			<point x="128" y="566"/>
			<point x="123" y="487" type="curve" smooth="yes"/>
			<point x="112" y="317"/>
			<point x="111" y="147"/>
			<point x="111" y="-23" type="curve" smooth="yes"/>
			<point x="111" y="-169" type="line" smooth="yes"/>
			<point x="111" y="-207"/>
			<point x="135" y="-227"/>
			<point x="160" y="-227" type="curve" smooth="yes"/>
			<point x="183" y="-227"/>
			<point x="211" y="-210"/>
			<point x="211" y="-177" type="curve" smooth="yes"/>
			<point x="211" y="42"/>
			<point x="211" y="261"/>
			<point x="223" y="479" type="curve" smooth="yes"/>
			<point x="227" y="550"/>
			<point x="246" y="620"/>
			<point x="246" y="691" type="curve" smooth="yes"/>
			<point x="246" y="724"/>
			<point x="219" y="741"/>
			<point x="197" y="741" type="curve" smooth="yes"/>
			<point x="169" y="741"/>
			<point x="147" y="720"/>
		</contour>
	</outline>
</glyph>
<glyph name="braceright" format="2">
	<unicode hex="007D"/>
	<advance width="422"/>
	<outline>
		<contour>
			<point name="hr00" x="111" y="644" type="curve" smooth="yes"/>
			<point x="136" y="639"/>
			<point x="146" y="642"/>
			<point x="166" y="629" type="curve" smooth="yes"/>
			<point x="202" y="605"/>
			<point x="216" y="562"/>
			<point x="216" y="522" type="curve" smooth="yes"/>
			<point x="216" y="502"/>
			<point x="213" y="483"/>
			<point x="208" y="461" type="curve" smooth="yes"/>
			<point x="199" y="423"/>
			<point x="168" y="395"/>
			<point x="168" y="357" type="curve" smooth="yes"/>
			<point x="168" y="335"/>
			<point x="181" y="307"/>
			<point x="202" y="292" type="curve"/>
			<point x="196" y="280"/>
			<point x="193" y="267"/>
			<point x="193" y="254" type="curve" smooth="yes"/>
			<point x="193" y="192"/>
			<point x="249" y="134"/>
			<point name="hr01" x="249" y="77" type="curve" smooth="yes"/>
			<point x="249" y="20"/>
			<point x="211" y="-46"/>
			<point x="150" y="-55" type="curve" smooth="yes"/>
			<point x="115" y="-60"/>
			<point x="87" y="-74"/>
			<point x="87" y="-109" type="curve" smooth="yes"/>
			<point x="87" y="-138"/>
			<point x="108" y="-158"/>
			<point x="133" y="-158" type="curve" smooth="yes"/>
			<point x="155" y="-158"/>
			<point x="181" y="-149"/>
			<point x="202" y="-141" type="curve" smooth="yes"/>
			<point x="218" y="-135"/>
			<point x="243" y="-124"/>
			<point x="258" y="-114" type="curve" smooth="yes"/>
			<point x="313" y="-79"/>
			<point x="347" y="7"/>
			<point x="347" y="73" type="curve" smooth="yes"/>
			<point x="347" y="138"/>
			<point x="313" y="180"/>
			<point x="295" y="241" type="curve"/>
			<point x="349" y="254"/>
			<point x="373" y="274"/>
			<point x="373" y="303" type="curve" smooth="yes"/>
			<point x="373" y="346"/>
			<point x="338" y="357"/>
			<point x="294" y="366" type="curve" smooth="yes"/>
			<point x="274" y="370" type="line"/>
			<point x="279" y="383"/>
			<point x="286" y="395"/>
			<point x="293" y="408" type="curve" smooth="yes"/>
			<point x="310" y="440"/>
			<point x="317" y="479"/>
			<point name="hr02" x="317" y="514" type="curve" smooth="yes"/>
			<point x="317" y="646"/>
			<point x="230" y="742"/>
			<point x="119" y="742" type="curve" smooth="yes"/>
			<point x="84" y="742"/>
			<point x="65" y="722"/>
			<point x="65" y="695" type="curve" smooth="yes"/>
			<point x="65" y="670"/>
			<point x="79" y="650"/>
		</contour>
	</outline>
</glyph>
<glyph name="asciitilde" format="2">
	<unicode hex="007E"/>
	<advance width="500"/>
	<outline>
		<contour>
			<point name="hr00" x="140" y="224" type="curve"/>
			<point x="141" y="247"/>
			<point x="145" y="265"/>
			<point x="159" y="275" type="curve"/>
			<point x="223" y="243"/>
			<point x="274" y="172"/>
			<point x="356" y="172" type="curve" smooth="yes"/>
			<point x="424" y="172"/>
			<point x="476" y="225"/>
			<point x="476" y="294" type="curve" smooth="yes"/>
			<point x="476" y="345"/>
			<point x="449" y="373"/>
			<point x="419" y="373" type="curve" smooth="yes"/>
			<point x="395" y="373"/>
			<point x="372" y="356"/>
			<point x="372" y="322" type="curve" smooth="yes"/>
			<point x="372" y="316"/>
			<point x="375" y="298"/>
			<point x="375" y="294" type="curve" smooth="yes"/>
			<point x="375" y="281"/>
			<point x="372" y="274"/>
			<point x="356" y="274" type="curve" smooth="yes"/>
			<point x="305" y="274"/>
			<point x="260" y="332"/>
			<point x="221" y="356" type="curve" smooth="yes"/>
			<point x="198" y="370"/>
			<point x="177" y="376"/>
			<point x="157" y="376" type="curve" smooth="yes"/>
			<point x="90" y="376"/>
			<point x="40" y="300"/>
			<point x="40" y="232" type="curve" smooth="yes"/>
			<point x="40" y="194"/>
			<point x="64" y="174"/>
			<point x="89" y="174" type="curve" smooth="yes"/>
			<point x="112" y="174"/>
			<point x="135" y="190"/>
		</contour>
	</outline>
</glyph>
<glyph name="exclamdown" format="2">
	<unicode hex="00A1"/>
	<advance width="389"/>
	<outline>
		<contour>
			<point x="204" y="-245" type="curve"/>
			<point x="207" y="-86"/>
			<point x="223" y="72"/>
			<point x="226" y="231" type="curve"/>
			<point x="221" y="264"/>
			<point x="199" y="281"/>
			<point x="177" y="281" type="curve" smooth="yes"/>
			<point x="157" y="281"/>
			<point x="136" y="267"/>
			<point x="126" y="239" type="curve"/>
			<point x="124" y="80"/>
			<point x="104" y="-78"/>
			<point x="104" y="-237" type="curve"/>
			<point x="104" y="-275"/>
			<point x="128" y="-295"/>
			<point x="153" y="-295" type="curve" smooth="yes"/>
			<point x="176" y="-295"/>
			<point x="199" y="-279"/>
		</contour>
		<contour>
			<point x="243" y="527" type="curve"/>
			<point x="243" y="551"/>
			<point x="207" y="563"/>
			<point x="195" y="563" type="curve" smooth="yes"/>
			<point x="151" y="563"/>
			<point x="114" y="503"/>
			<point x="114" y="455" type="curve" smooth="yes"/>
			<point x="114" y="424"/>
			<point x="133" y="388"/>
			<point x="181" y="388" type="curve" smooth="yes"/>
			<point x="222" y="388"/>
			<point x="262" y="423"/>
			<point x="262" y="465" type="curve" smooth="yes"/>
			<point x="262" y="485"/>
			<point x="250" y="482"/>
		</contour>
	</outline>
</glyph>
<glyph name="cent" format="2">
	<unicode hex="00A2"/>
	<advance width="547"/>
	<outline>
		<contour>
			<point x="278" y="649" type="curve"/>
			<point x="276" y="596"/>
			<point x="266" y="545"/>
			<point x="257" y="493" type="curve"/>
			<point x="212" y="484"/>
			<point x="168" y="467"/>
			<point x="133" y="438" type="curve" smooth="yes"/>
			<point x="87" y="400"/>
			<point x="50" y="323"/>
			<point x="50" y="242" type="curve" smooth="yes"/>
			<point x="50" y="137"/>
			<point x="98" y="29"/>
			<point x="201" y="-5" type="curve"/>
			<point x="199" y="-36"/>
			<point x="198" y="-67"/>
			<point x="198" y="-98" type="curve" smooth="yes"/>
			<point x="198" y="-136"/>
			<point x="222" y="-156"/>
			<point x="247" y="-156" type="curve" smooth="yes"/>
			<point x="270" y="-156"/>
			<point x="293" y="-140"/>
			<point x="298" y="-106" type="curve"/>
			<point x="298" y="-78"/>
			<point x="299" y="-49"/>
			<point x="300" y="-21" type="curve"/>
			<point x="305" y="-21"/>
			<point x="310" y="-22"/>
			<point x="314" y="-22" type="curve" smooth="yes"/>
			<point x="327" y="-22"/>
			<point x="340" y="-21"/>
			<point x="352" y="-19" type="curve" smooth="yes"/>
			<point x="379" y="-15"/>
			<point x="425" y="3"/>
			<point x="461" y="25" type="curve" smooth="yes"/>
			<point x="480" y="37"/>
			<point x="489" y="51"/>
			<point x="489" y="69" type="curve" smooth="yes"/>
			<point x="489" y="93"/>
			<point x="468" y="117"/>
			<point x="446" y="117" type="curve" smooth="yes"/>
			<point x="435" y="117"/>
			<point x="426" y="116"/>
			<point x="415" y="109" type="curve" smooth="yes"/>
			<point x="371" y="81"/>
			<point x="352" y="79"/>
			<point x="306" y="78" type="curve"/>
			<point x="313" y="187"/>
			<point x="325" y="296"/>
			<point x="342" y="402" type="curve"/>
			<point x="359" y="402"/>
			<point x="370" y="397"/>
			<point x="387" y="394" type="curve"/>
			<point x="397" y="386"/>
			<point x="408" y="383"/>
			<point x="419" y="383" type="curve" smooth="yes"/>
			<point x="444" y="383"/>
			<point x="466" y="402"/>
			<point x="466" y="434" type="curve" smooth="yes"/>
			<point x="466" y="484"/>
			<point x="402" y="501"/>
			<point x="360" y="503" type="curve"/>
			<point x="368" y="548"/>
			<point x="376" y="594"/>
			<point x="378" y="641" type="curve"/>
			<point x="373" y="674"/>
			<point x="351" y="691"/>
			<point x="329" y="691" type="curve" smooth="yes"/>
			<point x="309" y="691"/>
			<point x="288" y="677"/>
		</contour>
		<contour>
			<point x="149" y="244" type="curve" smooth="yes"/>
			<point x="149" y="305"/>
			<point x="182" y="365"/>
			<point x="241" y="385" type="curve"/>
			<point x="229" y="290"/>
			<point x="217" y="196"/>
			<point x="209" y="101" type="curve"/>
			<point x="163" y="128"/>
			<point x="149" y="199"/>
		</contour>
	</outline>
</glyph>
<glyph name="sterling" format="2">
	<unicode hex="00A3"/>
	<advance width="680"/>
	<outline>
		<contour>
			<point x="63" y="296" type="curve"/>
			<point x="140" y="293" type="line"/>
			<point x="116" y="213"/>
			<point x="83" y="136"/>
			<point x="58" y="56" type="curve"/>
			<point x="58" y="20"/>
			<point x="78" y="-4"/>
			<point x="123" y="-4" type="curve" smooth="yes"/>
			<point x="184" y="-4"/>
			<point x="235" y="-2"/>
			<point x="286" y="-2" type="curve" smooth="yes"/>
			<point x="311" y="-2"/>
			<point x="410" y="-1"/>
			<point x="526" y="3" type="curve"/>
			<point x="624" y="9"/>
			<point x="649" y="19"/>
			<point x="649" y="115" type="curve" smooth="yes"/>
			<point x="649" y="148"/>
			<point x="625" y="165"/>
			<point x="600" y="165" type="curve" smooth="yes"/>
			<point x="575" y="165"/>
			<point x="551" y="150"/>
			<point x="551" y="105" type="curve"/>
			<point x="452" y="98"/>
			<point x="352" y="98"/>
			<point x="252" y="98" type="curve" smooth="yes"/>
			<point x="178" y="98" type="line"/>
			<point x="200" y="161"/>
			<point x="223" y="223"/>
			<point x="242" y="287" type="curve"/>
			<point x="291" y="282"/>
			<point x="337" y="276"/>
			<point x="369" y="265" type="curve" smooth="yes"/>
			<point x="376" y="263"/>
			<point x="382" y="262"/>
			<point x="388" y="262" type="curve" smooth="yes"/>
			<point x="419" y="262"/>
			<point x="439" y="285"/>
			<point x="439" y="309" type="curve" smooth="yes"/>
			<point x="439" y="362"/>
			<point x="357" y="375"/>
			<point x="267" y="384" type="curve"/>
			<point x="279" y="443"/>
			<point x="300" y="557"/>
			<point x="315" y="578" type="curve" smooth="yes"/>
			<point x="327" y="596"/>
			<point x="345" y="603"/>
			<point x="365" y="603" type="curve" smooth="yes"/>
			<point x="411" y="603"/>
			<point x="442" y="564"/>
			<point x="472" y="564" type="curve" smooth="yes"/>
			<point x="499" y="564"/>
			<point x="519" y="585"/>
			<point x="519" y="610" type="curve" smooth="yes"/>
			<point x="519" y="665"/>
			<point x="429" y="701"/>
			<point x="366" y="701" type="curve" smooth="yes"/>
			<point x="312" y="701"/>
			<point x="259" y="680"/>
			<point x="230" y="631" type="curve" smooth="yes"/>
			<point x="201" y="583"/>
			<point x="197" y="524"/>
			<point x="185" y="471" type="curve" smooth="yes"/>
			<point x="178" y="444"/>
			<point x="173" y="417"/>
			<point x="166" y="391" type="curve"/>
			<point x="128" y="393"/>
			<point x="92" y="394"/>
			<point x="63" y="396" type="curve"/>
			<point x="33" y="388"/>
			<point x="19" y="367"/>
			<point x="19" y="346" type="curve" smooth="yes"/>
			<point x="19" y="325"/>
			<point x="33" y="303"/>
		</contour>
	</outline>
</glyph>
<glyph name="currency" format="2">
	<unicode hex="00A4"/>
	<advance width="558"/>
	<outline>
		<contour>
			<point x="401" y="519" type="curve"/>
			<point x="395" y="525"/>
			<point x="387" y="530"/>
			<point x="378" y="534" type="curve" smooth="yes"/>
			<point x="340" y="552"/>
			<point x="309" y="557"/>
			<point x="274" y="557" type="curve" smooth="yes"/>
			<point x="253" y="557"/>
			<point x="227" y="553"/>
			<point x="197" y="538" type="curve"/>
			<point x="172" y="584"/>
			<point x="109" y="640"/>
			<point x="71" y="640" type="curve" smooth="yes"/>
			<point x="42" y="640"/>
			<point x="22" y="618"/>
			<point x="22" y="594" type="curve" smooth="yes"/>
			<point x="22" y="544"/>
			<point x="103" y="531"/>
			<point x="112" y="482" type="curve" smooth="yes"/>
			<point x="113" y="477"/>
			<point x="116" y="473"/>
			<point x="118" y="469" type="curve"/>
			<point x="88" y="426"/>
			<point x="70" y="373"/>
			<point x="70" y="322" type="curve" smooth="yes"/>
			<point x="70" y="279"/>
			<point x="82" y="238"/>
			<point x="109" y="204" type="curve"/>
			<point x="79" y="189"/>
			<point x="46" y="157"/>
			<point x="46" y="124" type="curve" smooth="yes"/>
			<point x="46" y="98"/>
			<point x="63" y="72"/>
			<point x="93" y="72" type="curve" smooth="yes"/>
			<point x="128" y="72"/>
			<point x="136" y="119"/>
			<point x="182" y="122" type="curve" smooth="yes"/>
			<point x="193" y="123"/>
			<point x="203" y="126"/>
			<point x="211" y="131" type="curve"/>
			<point x="237" y="118"/>
			<point x="278" y="116"/>
			<point x="299" y="116" type="curve" smooth="yes"/>
			<point x="331" y="116"/>
			<point x="359" y="128"/>
			<point x="384" y="148" type="curve"/>
			<point x="405" y="114" type="line" smooth="yes"/>
			<point x="430" y="74"/>
			<point x="450" y="13"/>
			<point x="494" y="13" type="curve" smooth="yes"/>
			<point x="519" y="13"/>
			<point x="539" y="32"/>
			<point x="539" y="59" type="curve" smooth="yes"/>
			<point x="539" y="65"/>
			<point x="538" y="72"/>
			<point x="536" y="79" type="curve" smooth="yes"/>
			<point x="515" y="145"/>
			<point x="484" y="189"/>
			<point x="456" y="218" type="curve"/>
			<point x="474" y="256"/>
			<point x="484" y="303"/>
			<point x="484" y="348" type="curve" smooth="yes"/>
			<point x="484" y="383"/>
			<point x="478" y="416"/>
			<point x="467" y="444" type="curve"/>
			<point x="515" y="482"/>
			<point x="569" y="515"/>
			<point x="629" y="523" type="curve"/>
			<point x="655" y="534"/>
			<point x="667" y="554"/>
			<point x="667" y="573" type="curve" smooth="yes"/>
			<point x="667" y="596"/>
			<point x="648" y="619"/>
			<point x="613" y="622" type="curve"/>
			<point x="534" y="611"/>
			<point x="461" y="569"/>
		</contour>
		<contour>
			<point x="358" y="417" type="curve" smooth="yes"/>
			<point x="377" y="406"/>
			<point x="388" y="379"/>
			<point x="388" y="347" type="curve" smooth="yes"/>
			<point x="388" y="289"/>
			<point x="354" y="219"/>
			<point x="286" y="219" type="curve" smooth="yes"/>
			<point x="212" y="219"/>
			<point x="173" y="279"/>
			<point x="173" y="334" type="curve" smooth="yes"/>
			<point x="173" y="386"/>
			<point x="212" y="457"/>
			<point x="280" y="457" type="curve" smooth="yes"/>
			<point x="297" y="457"/>
			<point x="312" y="451"/>
			<point x="333" y="444" type="curve"/>
			<point x="337" y="434"/>
			<point x="346" y="424"/>
		</contour>
	</outline>
</glyph>
<glyph name="yen" format="2">
	<unicode hex="00A5"/>
	<advance width="661"/>
	<outline>
		<contour>
			<point name="hr00" x="132" y="125" type="curve"/>
			<point x="193" y="130"/>
			<point x="246" y="155"/>
			<point x="304" y="171" type="curve" smooth="yes"/>
			<point x="329" y="177" type="line"/>
			<point x="316" y="132" type="line" smooth="yes"/>
			<point x="312" y="119"/>
			<point x="307" y="108"/>
			<point x="303" y="96" type="curve"/>
			<point x="248" y="88"/>
			<point x="194" y="76"/>
			<point x="148" y="60" type="curve"/>
			<point x="128" y="47"/>
			<point x="120" y="30"/>
			<point x="120" y="13" type="curve" smooth="yes"/>
			<point x="120" y="-12"/>
			<point x="140" y="-35"/>
			<point x="174" y="-35" type="curve" smooth="yes"/>
			<point x="187" y="-35"/>
			<point x="215" y="-20"/>
			<point x="263" y="-12" type="curve"/>
			<point x="260" y="-23"/>
			<point x="257" y="-35"/>
			<point x="257" y="-47" type="curve" smooth="yes"/>
			<point x="257" y="-85"/>
			<point x="281" y="-105"/>
			<point x="306" y="-105" type="curve" smooth="yes"/>
			<point x="329" y="-105"/>
			<point x="353" y="-87"/>
			<point x="357" y="-55" type="curve" smooth="yes"/>
			<point x="359" y="-35"/>
			<point x="363" y="-16"/>
			<point x="369" y="2" type="curve"/>
			<point x="460" y="10"/>
			<point x="522" y="15"/>
			<point x="554" y="17" type="curve" smooth="yes"/>
			<point x="590" y="19"/>
			<point x="608" y="44"/>
			<point x="608" y="67" type="curve" smooth="yes"/>
			<point x="608" y="90"/>
			<point x="592" y="117"/>
			<point x="551" y="117" type="curve" smooth="yes"/>
			<point x="529" y="117"/>
			<point x="462" y="112"/>
			<point x="413" y="108" type="curve"/>
			<point x="422" y="136"/>
			<point x="428" y="164"/>
			<point x="435" y="191" type="curve"/>
			<point x="478" y="194"/>
			<point x="520" y="194"/>
			<point x="561" y="194" type="curve"/>
			<point x="597" y="197"/>
			<point x="615" y="221"/>
			<point x="615" y="244" type="curve" smooth="yes"/>
			<point x="615" y="267"/>
			<point x="597" y="290"/>
			<point x="561" y="294" type="curve"/>
			<point x="529" y="294"/>
			<point x="498" y="293"/>
			<point x="466" y="292" type="curve"/>
			<point x="522" y="430"/>
			<point x="595" y="584"/>
			<point x="595" y="711" type="curve" smooth="yes"/>
			<point x="595" y="746"/>
			<point x="569" y="762"/>
			<point x="547" y="762" type="curve" smooth="yes"/>
			<point x="525" y="762"/>
			<point x="504" y="748"/>
			<point x="500" y="723" type="curve" smooth="yes"/>
			<point x="496" y="697"/>
			<point x="490" y="677"/>
			<point x="475" y="658" type="curve" smooth="yes"/>
			<point x="437" y="612"/>
			<point x="315" y="525"/>
			<point x="238" y="525" type="curve" smooth="yes"/>
			<point x="144" y="525"/>
			<point x="137" y="661"/>
			<point x="135" y="726" type="curve"/>
			<point x="130" y="760"/>
			<point x="107" y="776"/>
			<point x="84" y="776" type="curve" smooth="yes"/>
			<point x="59" y="776"/>
			<point x="35" y="756"/>
			<point x="35" y="718" type="curve"/>
			<point x="38" y="651"/>
			<point x="47" y="579"/>
			<point x="82" y="519" type="curve" smooth="yes"/>
			<point x="122" y="452"/>
			<point x="177" y="427"/>
			<point x="236" y="427" type="curve" smooth="yes"/>
			<point x="306" y="427"/>
			<point x="382" y="461"/>
			<point x="445" y="502" type="curve"/>
			<point x="418" y="432"/>
			<point x="383" y="361"/>
			<point x="357" y="282" type="curve"/>
			<point x="340" y="280"/>
			<point x="323" y="277"/>
			<point x="307" y="274" type="curve" smooth="yes"/>
			<point x="247" y="262"/>
			<point x="192" y="230"/>
			<point x="132" y="225" type="curve"/>
			<point x="102" y="217"/>
			<point x="88" y="196"/>
			<point x="88" y="175" type="curve" smooth="yes"/>
			<point x="88" y="154"/>
			<point x="102" y="132"/>
		</contour>
	</outline>
</glyph>
<glyph name="brokenbar" format="2">
	<unicode hex="00A6"/>
	<advance width="389"/>
	<outline>
		<contour>
			<point name="hr00" x="148" y="670" type="curve"/>
			<point x="148" y="567"/>
			<point x="146" y="464"/>
			<point x="146" y="361" type="curve" smooth="yes"/>
			<point x="146" y="323"/>
			<point x="170" y="303"/>
			<point x="195" y="303" type="curve" smooth="yes"/>
			<point x="218" y="303"/>
			<point x="241" y="319"/>
			<point x="246" y="353" type="curve"/>
			<point x="246" y="461"/>
			<point x="248" y="570"/>
			<point x="248" y="678" type="curve"/>
			<point x="243" y="712"/>
			<point x="220" y="728"/>
			<point x="197" y="728" type="curve" smooth="yes"/>
			<point x="172" y="728"/>
			<point x="149" y="708"/>
		</contour>
		<contour>
			<point x="139" y="151" type="curve" smooth="yes"/>
			<point x="139" y="45"/>
			<point x="134" y="-61"/>
			<point x="134" y="-167" type="curve" smooth="yes"/>
			<point x="134" y="-205"/>
			<point x="158" y="-225"/>
			<point x="183" y="-225" type="curve" smooth="yes"/>
			<point x="206" y="-225"/>
			<point x="229" y="-209"/>
			<point x="234" y="-175" type="curve"/>
			<point x="234" y="-64"/>
			<point x="239" y="48"/>
			<point x="239" y="159" type="curve"/>
			<point x="234" y="193"/>
			<point x="211" y="209"/>
			<point x="188" y="209" type="curve" smooth="yes"/>
			<point x="163" y="209"/>
			<point x="139" y="189"/>
		</contour>
	</outline>
</glyph>
<glyph name="section" format="2">
	<unicode hex="00A7"/>
	<advance width="542"/>
	<outline>
		<contour>
			<point name="hr00" x="122" y="436" type="curve" smooth="yes"/>
			<point x="111" y="385"/>
			<point x="85" y="351"/>
			<point x="85" y="303" type="curve" smooth="yes"/>
			<point x="85" y="287"/>
			<point x="88" y="271"/>
			<point x="97" y="255" type="curve" smooth="yes"/>
			<point x="142" y="167"/>
			<point x="240" y="117"/>
			<point x="277" y="39" type="curve" smooth="yes"/>
			<point x="280" y="33"/>
			<point x="281" y="28"/>
			<point x="281" y="22" type="curve" smooth="yes"/>
			<point x="281" y="-39"/>
			<point x="144" y="-114"/>
			<point x="93" y="-118" type="curve"/>
			<point x="61" y="-126"/>
			<point x="47" y="-148"/>
			<point x="47" y="-169" type="curve" smooth="yes"/>
			<point x="47" y="-194"/>
			<point x="66" y="-217"/>
			<point x="102" y="-217" type="curve" smooth="yes"/>
			<point x="197" y="-217"/>
			<point x="385" y="-96"/>
			<point x="385" y="19" type="curve" smooth="yes"/>
			<point x="385" y="45"/>
			<point x="381" y="69"/>
			<point x="356" y="108" type="curve" smooth="yes"/>
			<point x="308" y="182"/>
			<point x="229" y="213"/>
			<point x="188" y="297" type="curve" smooth="yes"/>
			<point x="186" y="302"/>
			<point x="185" y="307"/>
			<point x="185" y="312" type="curve" smooth="yes"/>
			<point x="185" y="337"/>
			<point x="205" y="365"/>
			<point x="212" y="384" type="curve" smooth="yes"/>
			<point x="217" y="399" type="line"/>
			<point x="230" y="380"/>
			<point x="294" y="355"/>
			<point x="321" y="332" type="curve" smooth="yes"/>
			<point x="354" y="304"/>
			<point x="357" y="277"/>
			<point x="359" y="242" type="curve"/>
			<point x="347" y="230"/>
			<point x="342" y="217"/>
			<point x="342" y="204" type="curve" smooth="yes"/>
			<point x="342" y="179"/>
			<point x="362" y="156"/>
			<point x="395" y="156" type="curve" smooth="yes"/>
			<point x="441" y="156"/>
			<point x="462" y="203"/>
			<point x="462" y="237" type="curve" smooth="yes"/>
			<point x="462" y="354"/>
			<point x="388" y="407"/>
			<point x="365" y="423" type="curve" smooth="yes"/>
			<point x="331" y="447"/>
			<point x="253" y="465"/>
			<point x="252" y="544" type="curve" smooth="yes"/>
			<point x="252" y="595"/>
			<point x="311" y="611"/>
			<point x="369" y="611" type="curve" smooth="yes"/>
			<point x="379" y="611"/>
			<point x="389" y="611"/>
			<point x="398" y="610" type="curve"/>
			<point x="407" y="603"/>
			<point x="417" y="600"/>
			<point x="427" y="600" type="curve" smooth="yes"/>
			<point x="452" y="600"/>
			<point x="475" y="619"/>
			<point x="475" y="653" type="curve" smooth="yes"/>
			<point x="475" y="696"/>
			<point x="428" y="714"/>
			<point x="377" y="714" type="curve" smooth="yes"/>
			<point x="313" y="714"/>
			<point x="259" y="700"/>
			<point x="212" y="666" type="curve" smooth="yes"/>
			<point x="159" y="627"/>
			<point x="153" y="581"/>
			<point x="153" y="548" type="curve" smooth="yes"/>
			<point x="153" y="527"/>
			<point x="156" y="505"/>
			<point x="163" y="485" type="curve"/>
			<point x="147" y="485"/>
			<point x="127" y="460"/>
		</contour>
	</outline>
</glyph>
<glyph name="dieresis" format="2">
	<unicode hex="00A8"/>
	<advance width="500"/>
	<outline>
		<contour>
			<point name="hr00" x="435" y="618" type="curve"/>
			<point x="396" y="611"/>
			<point x="383" y="584"/>
			<point x="383" y="561" type="curve" smooth="yes"/>
			<point x="383" y="534"/>
			<point x="402" y="501"/>
			<point x="440" y="501" type="curve" smooth="yes"/>
			<point x="485" y="501"/>
			<point x="518" y="537"/>
			<point x="518" y="572" type="curve" smooth="yes"/>
			<point x="518" y="588"/>
			<point x="503" y="627"/>
			<point x="469" y="627" type="curve" smooth="yes"/>
			<point x="455" y="627"/>
			<point x="444" y="624"/>
		</contour>
		<contour>
			<point x="304" y="540" type="curve" smooth="yes"/>
			<point x="312" y="552"/>
			<point x="316" y="564"/>
			<point x="316" y="576" type="curve" smooth="yes"/>
			<point x="316" y="612"/>
			<point x="284" y="642"/>
			<point x="248" y="642" type="curve" smooth="yes"/>
			<point x="216" y="642"/>
			<point x="198" y="622"/>
			<point x="198" y="590" type="curve"/>
			<point x="196" y="584"/>
			<point x="195" y="577"/>
			<point x="195" y="571" type="curve" smooth="yes"/>
			<point x="195" y="538"/>
			<point x="225" y="512"/>
			<point x="256" y="512" type="curve" smooth="yes"/>
			<point x="273" y="512"/>
			<point x="291" y="520"/>
		</contour>
	</outline>
</glyph>
<glyph name="copyright" format="2">
	<unicode hex="00A9"/>
	<advance width="896"/>
	<outline>
		<contour>
			<point x="500" y="669" type="curve" smooth="yes"/>
			<point x="381" y="669"/>
			<point x="192" y="663"/>
			<point x="119" y="546" type="curve" smooth="yes"/>
			<point x="80" y="484"/>
			<point x="50" y="421"/>
			<point x="50" y="303" type="curve" smooth="yes"/>
			<point x="50" y="178"/>
			<point x="84" y="59"/>
			<point x="208" y="-10" type="curve" smooth="yes"/>
			<point x="294" y="-58"/>
			<point x="381" y="-69"/>
			<point x="465" y="-69" type="curve" smooth="yes"/>
			<point x="671" y="-69"/>
			<point x="844" y="86"/>
			<point x="844" y="251" type="curve" smooth="yes"/>
			<point x="844" y="339"/>
			<point x="798" y="494"/>
			<point x="754" y="547" type="curve" smooth="yes"/>
			<point x="734" y="571"/>
			<point x="697" y="593"/>
			<point x="672" y="593" type="curve" smooth="yes"/>
			<point x="643" y="593"/>
			<point x="623" y="571"/>
			<point x="623" y="547" type="curve" smooth="yes"/>
			<point x="623" y="531"/>
			<point x="632" y="511"/>
			<point x="653" y="499" type="curve" smooth="yes"/>
			<point x="714" y="463"/>
			<point x="740" y="322"/>
			<point x="740" y="251" type="curve" smooth="yes"/>
			<point x="740" y="107"/>
			<point x="574" y="28"/>
			<point x="438" y="28" type="curve" smooth="yes"/>
			<point x="236" y="28"/>
			<point x="151" y="157"/>
			<point x="151" y="305" type="curve" smooth="yes"/>
			<point x="151" y="364"/>
			<point x="161" y="440"/>
			<point x="201" y="490" type="curve" smooth="yes"/>
			<point x="269" y="574"/>
			<point x="404" y="564"/>
			<point x="500" y="569" type="curve" smooth="yes"/>
			<point x="536" y="571"/>
			<point x="554" y="596"/>
			<point x="554" y="619" type="curve" smooth="yes"/>
			<point x="554" y="642"/>
			<point x="536" y="669"/>
		</contour>
		<contour>
			<point x="547" y="469" type="curve"/>
			<point x="506" y="472"/>
			<point x="455" y="486"/>
			<point x="407" y="486" type="curve" smooth="yes"/>
			<point x="299" y="486"/>
			<point x="252" y="394"/>
			<point x="252" y="321" type="curve" smooth="yes"/>
			<point x="252" y="227"/>
			<point x="315" y="116"/>
			<point x="428" y="116" type="curve" smooth="yes"/>
			<point x="452" y="116"/>
			<point x="482" y="119"/>
			<point x="500" y="122" type="curve" smooth="yes"/>
			<point x="536" y="128"/>
			<point x="554" y="149"/>
			<point x="554" y="172" type="curve" smooth="yes"/>
			<point x="554" y="195"/>
			<point x="536" y="218"/>
			<point x="500" y="222" type="curve"/>
			<point x="476" y="221"/>
			<point x="454" y="218"/>
			<point x="434" y="218" type="curve" smooth="yes"/>
			<point x="395" y="218"/>
			<point x="353" y="234"/>
			<point x="353" y="323" type="curve" smooth="yes"/>
			<point x="353" y="369"/>
			<point x="374" y="385"/>
			<point x="420" y="385" type="curve" smooth="yes"/>
			<point x="464" y="385"/>
			<point x="518" y="370"/>
			<point x="547" y="369" type="curve"/>
			<point x="583" y="372"/>
			<point x="601" y="396"/>
			<point x="601" y="419" type="curve" smooth="yes"/>
			<point x="601" y="442"/>
			<point x="583" y="465"/>
		</contour>
	</outline>
</glyph>
<glyph name="ordfeminine" format="2">
	<unicode hex="00AA"/>
	<advance width="497"/>
	<outline>
		<contour>
			<point name="hr00" x="326" y="710" type="curve"/>
			<point x="305" y="724"/>
			<point x="275" y="725"/>
			<point x="252" y="725" type="curve" smooth="yes"/>
			<point x="149" y="725"/>
			<point x="60" y="631"/>
			<point x="60" y="526" type="curve" smooth="yes"/>
			<point x="60" y="442"/>
			<point x="109" y="386"/>
			<point x="170" y="386" type="curve" smooth="yes"/>
			<point x="215" y="386"/>
			<point x="268" y="419"/>
			<point x="304" y="466" type="curve"/>
			<point x="329" y="425"/>
			<point x="361" y="402"/>
			<point x="421" y="390" type="curve"/>
			<point x="456" y="393"/>
			<point x="475" y="415"/>
			<point x="475" y="439" type="curve" smooth="yes"/>
			<point x="475" y="457"/>
			<point x="463" y="477"/>
			<point x="437" y="488" type="curve"/>
			<point x="360" y="504"/>
			<point x="382" y="585"/>
			<point x="336" y="634" type="curve"/>
			<point x="343" y="642"/>
			<point x="348" y="653"/>
			<point x="348" y="665" type="curve" smooth="yes"/>
			<point x="348" y="679"/>
			<point x="341" y="695"/>
		</contour>
		<contour>
			<point x="249" y="611" type="curve" smooth="yes"/>
			<point x="239" y="575"/>
			<point x="244" y="542"/>
			<point x="213" y="512" type="curve" smooth="yes"/>
			<point x="200" y="500"/>
			<point x="181" y="486"/>
			<point x="172" y="486" type="curve" smooth="yes"/>
			<point x="164" y="486"/>
			<point x="160" y="514"/>
			<point x="160" y="523" type="curve" smooth="yes"/>
			<point x="160" y="562"/>
			<point x="187" y="604"/>
			<point x="218" y="620" type="curve" smooth="yes"/>
			<point x="225" y="624"/>
			<point x="240" y="624"/>
			<point x="254" y="624" type="curve"/>
			<point x="252" y="620"/>
			<point x="250" y="615"/>
		</contour>
	</outline>
</glyph>
